<?xml version="1.0" encoding="utf-8"?>
<!-- Generator: Adobe Illustrator 26.0.3, SVG Export Plug-In . SVG Version: 6.00 Build 0)  -->
<svg version="1.0" id="katman_1" xmlns="http://www.w3.org/2000/svg" xmlns:xlink="http://www.w3.org/1999/xlink" x="0px" y="0px"
	 viewBox="0 0 800 600" style="enable-background:new 0 0 800 600;" xml:space="preserve">
<style type="text/css">
	.st0{fill:#0000FF;}
</style>
<path d="M392,265.1c-12.9,0-25.6,5.5-35.3,16.4v-53.7h-19.2v90.4l0,0c0,29.4,23.8,53.2,53.2,53.2c29.4,0,53.2-23.8,53.2-53.2
	S421.3,265.1,392,265.1z M390.6,350.9c-18.1,0-32.7-14.6-32.7-32.7c0-18,14.6-32.7,32.7-32.7c18.1,0,32.7,14.6,32.7,32.7
	C423.2,336.2,408.6,350.9,390.6,350.9z"/>
<path d="M511,265.1c-12.9,0-25.6,5.5-35.3,16.4v-53.7h-19.2v90.4l0,0c0,29.4,23.8,53.2,53.2,53.2c29.4,0,53.2-23.8,53.2-53.2
	S540.4,265.1,511,265.1z M509.6,350.9c-18.1,0-32.7-14.6-32.7-32.7c0-18,14.6-32.7,32.7-32.7c18.1,0,32.7,14.6,32.7,32.7
	C542.3,336.2,527.7,350.9,509.6,350.9z"/>
<path d="M229.3,327.5v-59.6h20.6v59.4c0,15.2,8.8,24.9,23.6,24.9c15,0,23.6-9.4,23.6-24.9v-59.4h20.8v59.6
	c0,27.5-16.7,43.8-44.4,43.8C246.5,371.4,229.3,354.5,229.3,327.5z"/>
<path d="M600,368.9h-20.6V227.8H600V368.9z"/>
<path d="M716.7,326.4h-78.9c3,15.7,14,26.4,33.5,26.4c11.4,0,25.3-4.3,34.3-10.9l8.6,15.2c-10.3,7.7-26.6,14-43.7,14
	c-37.8,0-54.1-26.4-54.1-53c0-15.2,4.7-27.7,14.3-37.7c9.5-9.9,22.1-15,37.3-15c14.4,0,26.4,4.5,35.6,13.7s13.9,21.5,13.9,37.3
	C717.4,319.3,717.2,322.7,716.7,326.4z M637.8,309.5h58.8c-1.7-15.9-13.5-26.2-28.7-26.2C652.4,283.3,640.8,293.8,637.8,309.5z"/>
<path d="M163.9,265.1c-12.9,0-25.6,5.5-35.3,16.4v-53.7h-19.2v90.4l0,0c0,29.4,23.8,53.2,53.2,53.2s53.2-23.8,53.2-53.2
	S193.2,265.1,163.9,265.1z M162.5,350.9c-18.1,0-32.7-14.6-32.7-32.7c0-18,14.6-32.7,32.7-32.7c18.1,0,32.7,14.6,32.7,32.7
	C195.1,336.2,180.5,350.9,162.5,350.9z"/>
<g>
	<ellipse class="st0" cx="95.3" cy="358.2" rx="13.1" ry="13.1"/>
</g>
</svg>
