<svg width="800" height="600" viewBox="0 0 800 600" fill="none" xmlns="http://www.w3.org/2000/svg">
<path d="M392 265.1C379.1 265.1 366.4 270.6 356.7 281.5V227.8H337.5V318.2C337.5 347.6 361.3 371.4 390.7 371.4C420.1 371.4 443.9 347.6 443.9 318.2C443.9 288.8 421.3 265.1 392 265.1ZM390.6 350.9C372.5 350.9 357.9 336.3 357.9 318.2C357.9 300.2 372.5 285.5 390.6 285.5C408.7 285.5 423.3 300.1 423.3 318.2C423.2 336.2 408.6 350.9 390.6 350.9Z" fill="white"/>
<path d="M511 265.1C498.1 265.1 485.4 270.6 475.7 281.5V227.8H456.5V318.2C456.5 347.6 480.3 371.4 509.7 371.4C539.1 371.4 562.9 347.6 562.9 318.2C562.9 288.8 540.4 265.1 511 265.1ZM509.6 350.9C491.5 350.9 476.9 336.3 476.9 318.2C476.9 300.2 491.5 285.5 509.6 285.5C527.7 285.5 542.3 300.1 542.3 318.2C542.3 336.2 527.7 350.9 509.6 350.9Z" fill="white"/>
<path d="M229.301 327.5V267.9H249.901V327.3C249.901 342.5 258.701 352.2 273.501 352.2C288.501 352.2 297.101 342.8 297.101 327.3V267.9H317.901V327.5C317.901 355 301.201 371.3 273.501 371.3C246.501 371.4 229.301 354.5 229.301 327.5Z" fill="white"/>
<path d="M599.998 368.9H579.398V227.8H599.998V368.9Z" fill="white"/>
<path d="M716.698 326.4H637.798C640.798 342.1 651.798 352.8 671.298 352.8C682.698 352.8 696.598 348.5 705.598 341.9L714.198 357.1C703.898 364.8 687.598 371.1 670.498 371.1C632.698 371.1 616.398 344.7 616.398 318.1C616.398 302.9 621.098 290.4 630.698 280.4C640.198 270.5 652.798 265.4 667.998 265.4C682.398 265.4 694.398 269.9 703.598 279.1C712.798 288.3 717.498 300.6 717.498 316.4C717.398 319.3 717.198 322.7 716.698 326.4ZM637.798 309.5H696.598C694.898 293.6 683.098 283.3 667.898 283.3C652.398 283.3 640.798 293.8 637.798 309.5Z" fill="white"/>
<path d="M163.898 265.1C150.998 265.1 138.298 270.6 128.598 281.5V227.8H109.398V318.2C109.398 347.6 133.198 371.4 162.598 371.4C191.998 371.4 215.798 347.6 215.798 318.2C215.798 288.8 193.198 265.1 163.898 265.1ZM162.498 350.9C144.398 350.9 129.798 336.3 129.798 318.2C129.798 300.2 144.398 285.5 162.498 285.5C180.598 285.5 195.198 300.1 195.198 318.2C195.098 336.2 180.498 350.9 162.498 350.9Z" fill="white"/>
<path d="M95.2992 371.3C102.534 371.3 108.399 365.435 108.399 358.2C108.399 350.965 102.534 345.1 95.2992 345.1C88.0643 345.1 82.1992 350.965 82.1992 358.2C82.1992 365.435 88.0643 371.3 95.2992 371.3Z" fill="#0000FF"/>
</svg>
