<?xml version="1.0" encoding="utf-8"?>
<!-- Generator: Adobe Illustrator 26.4.1, SVG Export Plug-In . SVG Version: 6.00 Build 0)  -->
<svg version="1.0" id="katman_1" xmlns="http://www.w3.org/2000/svg" xmlns:xlink="http://www.w3.org/1999/xlink" x="0px" y="0px"
	 viewBox="0 0 1190.55 841.89" style="enable-background:new 0 0 1190.55 841.89;" xml:space="preserve">
<style type="text/css">
	.st0{fill-rule:evenodd;clip-rule:evenodd;fill:#010202;}
</style>
<path class="st0" d="M86.96,352.8l110.28-57.13l111.47,57.13l-111.47,57.33L86.96,352.8z M749.04,380.58v-1.36
	c0-18.85,11.08-24.87,29.75-23.51v-34.39c-44.72-2.72-65.92,19.62-65.92,57.9v1.36h-20.22v34.39h20.22V519.1h36.17V414.96h21.39
	h8.36h11.86V519.1h36.17V414.96h29.75v-34.39h-29.75v-1.36c0-18.85,10.89-24.87,29.75-23.51v-34.39
	c-44.72-2.72-65.92,19.62-65.92,57.9v1.36h-11.86h-8.36H749.04z M496.25,418.26c11.47-9.13,18.47-22.15,18.47-38.86
	c0-32.44-26.45-54.59-59.7-54.59h-77.2v193.89h83.42c34.03,0,61.25-22.93,61.25-56.15C522.11,442.55,512,427.2,496.25,418.26z
	 M455.22,360.76c12.44,0,21,9.13,21,21.37s-8.95,21.37-21,21.37h-38.7v-42.74H455.22z M461.06,483.15h-44.53V437.5h44.53
	c13.22,0,22.75,9.71,22.75,22.73C483.81,473.44,474.28,483.15,461.06,483.15z M635.28,380.38v74.8c0,24.09-13.22,34.39-30.92,34.39
	c-16.33,0-27.81-9.71-27.81-28.56v-80.63h-36.17v85.09c0,36.91,23.14,57.31,53.09,57.31c18.86,0,33.45-6.99,41.61-19.43v15.54h36.17
	V380.38H635.28z M1006.5,464.31H900.71c5.25,18.26,20.42,26.03,39.28,26.03c14.19,0,25.47-5.83,31.5-13.79l29.16,16.51
	c-13.03,18.84-34.03,29.72-61.05,29.72c-47.06,0-76.81-31.86-76.81-73.24c0-41.38,29.94-73.24,74.09-73.24
	c41.42,0,70.98,32.44,70.98,73.24C1007.86,454.98,1007.27,459.65,1006.5,464.31z M936.88,408.75c-19.44,0-32.67,10.3-36.75,27.98
	h71.56C967.22,416.71,952.05,408.75,936.88,408.75z M1060.16,404.28v-23.9H1024V518.9h36.17v-66.25c0-29.14,23.73-37.5,42.59-35.16
	v-39.83C1085.06,377.66,1067.36,385.43,1060.16,404.28z M197.25,508.16l-75.24-40.8L86.96,486.3l110.28,59.74l111.47-59.74
	l-35.44-18.94L197.25,508.16z M122.01,402.98l75.24,37l76.03-37l35.44,17.27l-111.47,54.27L86.96,420.24L122.01,402.98z"/>
</svg>
