<svg width="1191" height="842" viewBox="0 0 1191 842" fill="none" xmlns="http://www.w3.org/2000/svg">
<path fill-rule="evenodd" clip-rule="evenodd" d="M86.9609 352.8L197.241 295.67L308.711 352.8L197.241 410.13L86.9609 352.8ZM749.041 380.58V379.22C749.041 360.37 760.121 354.35 778.791 355.71V321.32C734.071 318.6 712.871 340.94 712.871 379.22V380.58H692.651V414.97H712.871V519.1H749.041V414.96H770.431H778.791H790.651V519.1H826.821V414.96H856.571V380.57H826.821V379.21C826.821 360.36 837.711 354.34 856.571 355.7V321.31C811.851 318.59 790.651 340.93 790.651 379.21V380.57H778.791H770.431H749.041V380.58ZM496.251 418.26C507.721 409.13 514.721 396.11 514.721 379.4C514.721 346.96 488.271 324.81 455.021 324.81H377.821V518.7H461.241C495.271 518.7 522.491 495.77 522.491 462.55C522.111 442.55 512.001 427.2 496.251 418.26ZM455.221 360.76C467.661 360.76 476.221 369.89 476.221 382.13C476.221 394.37 467.271 403.5 455.221 403.5H416.521V360.76H455.221ZM461.061 483.15H416.531V437.5H461.061C474.281 437.5 483.811 447.21 483.811 460.23C483.811 473.44 474.281 483.15 461.061 483.15ZM635.281 380.38V455.18C635.281 479.27 622.061 489.57 604.361 489.57C588.031 489.57 576.551 479.86 576.551 461.01V380.38H540.381V465.47C540.381 502.38 563.521 522.78 593.471 522.78C612.331 522.78 626.921 515.79 635.081 503.35V518.89H671.251V380.38H635.281ZM1006.5 464.31H900.711C905.961 482.57 921.131 490.34 939.991 490.34C954.181 490.34 965.461 484.51 971.491 476.55L1000.65 493.06C987.621 511.9 966.621 522.78 939.601 522.78C892.541 522.78 862.791 490.92 862.791 449.54C862.791 408.16 892.731 376.3 936.881 376.3C978.301 376.3 1007.86 408.74 1007.86 449.54C1007.86 454.98 1007.27 459.65 1006.5 464.31ZM936.881 408.75C917.441 408.75 904.211 419.05 900.131 436.73H971.691C967.221 416.71 952.051 408.75 936.881 408.75ZM1060.16 404.28V380.38H1024V518.9H1060.17V452.65C1060.17 423.51 1083.9 415.15 1102.76 417.49V377.66C1085.06 377.66 1067.36 385.43 1060.16 404.28ZM197.251 508.16L122.011 467.36L86.9609 486.3L197.241 546.04L308.711 486.3L273.271 467.36L197.251 508.16ZM122.011 402.98L197.251 439.98L273.281 402.98L308.721 420.25L197.251 474.52L86.9609 420.24L122.011 402.98Z" fill="white"/>
</svg>
