<svg width="39" height="38" viewBox="0 0 39 38" fill="none" xmlns="http://www.w3.org/2000/svg">
<path d="M0.832031 19C0.832031 8.78273 9.11476 0.5 19.332 0.5C29.5493 0.5 37.832 8.78273 37.832 19C37.832 29.2173 29.5493 37.5 19.332 37.5C9.11476 37.5 0.832031 29.2173 0.832031 19Z" stroke="#1B2717" stroke-opacity="0.1"/>
<path d="M26.8696 19.0188C26.8696 14.8684 23.5012 11.5 19.3508 11.5C15.2005 11.5 11.832 14.8684 11.832 19.0188C11.832 22.6579 14.4185 25.688 17.8471 26.3872V21.2744H16.3433V19.0188H17.8471V17.1391C17.8471 15.688 19.0275 14.5075 20.4786 14.5075H22.3583V16.7632H20.8546C20.4411 16.7632 20.1027 17.1015 20.1027 17.515V19.0188H22.3583V21.2744H20.1027V26.5C23.8997 26.1241 26.8696 22.9211 26.8696 19.0188Z" fill="#282B27"/>
</svg>
