<svg width="170" height="180" viewBox="0 0 170 180" fill="none" xmlns="http://www.w3.org/2000/svg">
<g clip-path="url(#clip0_1301_11777)">
<rect x="0.0185547" y="0.0687256" width="76.8494" height="9.67967" rx="4.83984" fill="#ECEEF4"/>
<rect x="0.0185547" y="16.2015" width="132.023" height="7.74374" rx="3.87187" fill="#ECEEF4"/>
<path fill-rule="evenodd" clip-rule="evenodd" d="M169.481 40.337L0.0185547 40.337L0.0185547 39.819L169.481 39.819L169.481 40.337Z" fill="#ECEEF4"/>
<rect x="8.37598" y="147.628" width="5.18896" height="5.16997" rx="2.58498" fill="#ECEEF4"/>
<rect x="41.1479" y="147.628" width="5.18896" height="5.16997" rx="2.58498" fill="#ECEEF4"/>
<rect x="69.2778" y="147.628" width="5.18896" height="5.16997" rx="2.58498" fill="#ECEEF4"/>
<rect x="95.7217" y="147.628" width="5.18896" height="5.16997" rx="2.58498" fill="#ECEEF4"/>
<rect x="124.171" y="147.628" width="5.18896" height="5.16997" rx="2.58498" fill="#ECEEF4"/>
<rect x="152.574" y="147.628" width="5.18895" height="5.16997" rx="2.58498" fill="#ECEEF4"/>
<path fill-rule="evenodd" clip-rule="evenodd" d="M168.945 56.0924H0.554843V143.028H168.945V56.0924ZM0.0185547 55.5656V143.555H169.481V55.5656H0.0185547Z" fill="#ECEEF4"/>
<path fill-rule="evenodd" clip-rule="evenodd" d="M169.481 72.1624H0.0185547V71.6355H169.481V72.1624Z" fill="#ECEEF4"/>
<path fill-rule="evenodd" clip-rule="evenodd" d="M169.481 90.6032H0.0185547V90.0763H169.481V90.6032Z" fill="#ECEEF4"/>
<path fill-rule="evenodd" clip-rule="evenodd" d="M169.481 109.044H0.0185547V108.517H169.481V109.044Z" fill="#ECEEF4"/>
<path fill-rule="evenodd" clip-rule="evenodd" d="M169.481 127.485H0.0185547V126.958H169.481V127.485Z" fill="#ECEEF4"/>
<path fill-rule="evenodd" clip-rule="evenodd" d="M28.0389 143.555L28.0389 55.5656L28.5752 55.5656L28.5752 143.555L28.0389 143.555Z" fill="#ECEEF4"/>
<path fill-rule="evenodd" clip-rule="evenodd" d="M56.0584 143.555L56.0584 55.5656L56.5947 55.5656L56.5947 143.555L56.0584 143.555Z" fill="#ECEEF4"/>
<path fill-rule="evenodd" clip-rule="evenodd" d="M84.0775 143.555L84.0775 55.5656L84.6138 55.5656L84.6138 143.555L84.0775 143.555Z" fill="#ECEEF4"/>
<path fill-rule="evenodd" clip-rule="evenodd" d="M112.366 143.555L112.366 55.5656L112.902 55.5656L112.902 143.555L112.366 143.555Z" fill="#ECEEF4"/>
<path fill-rule="evenodd" clip-rule="evenodd" d="M140.386 143.555L140.386 55.5656L140.922 55.5656L140.922 143.555L140.386 143.555Z" fill="#ECEEF4"/>
<path d="M43.3696 67.181C43.3696 64.3299 45.7222 62.0186 48.6243 62.0186C51.5264 62.0186 53.8789 64.3299 53.8789 67.181V96.2201C53.8789 99.0712 51.5264 101.383 48.6243 101.383C45.7222 101.383 43.3696 99.0712 43.3696 96.2201V67.181Z" fill="#FDAED0"/>
<path fill-rule="evenodd" clip-rule="evenodd" d="M52.8064 96.2201V67.181C52.8064 64.9119 50.934 63.0723 48.6243 63.0723C46.3146 63.0723 44.4422 64.9119 44.4422 67.181V96.2201C44.4422 98.4892 46.3146 100.329 48.6243 100.329C50.934 100.329 52.8064 98.4892 52.8064 96.2201ZM48.6243 62.0186C45.7222 62.0186 43.3696 64.3299 43.3696 67.181V96.2201C43.3696 99.0712 45.7222 101.383 48.6243 101.383C51.5264 101.383 53.8789 99.0712 53.8789 96.2201V67.181C53.8789 64.3299 51.5264 62.0186 48.6243 62.0186Z" fill="#FA8DBB"/>
<path d="M13.812 67.5037C13.812 64.4743 16.3116 62.0186 19.3951 62.0186C22.4785 62.0186 24.9782 64.4743 24.9782 67.5037V95.8974C24.9782 98.9268 22.4785 101.383 19.3951 101.383C16.3116 101.383 13.812 98.9268 13.812 95.8974V67.5037Z" fill="#FDAED0"/>
<path fill-rule="evenodd" clip-rule="evenodd" d="M23.9056 95.8974V67.5037C23.9056 65.0563 21.8862 63.0723 19.3951 63.0723C16.904 63.0723 14.8846 65.0563 14.8846 67.5037V95.8974C14.8846 98.3448 16.904 100.329 19.3951 100.329C21.8862 100.329 23.9056 98.3448 23.9056 95.8974ZM19.3951 62.0186C16.3116 62.0186 13.812 64.4743 13.812 67.5037V95.8974C13.812 98.9268 16.3116 101.383 19.3951 101.383C22.4785 101.383 24.9782 98.9268 24.9782 95.8974V67.5037C24.9782 64.4743 22.4785 62.0186 19.3951 62.0186Z" fill="#FA8DBB"/>
<path d="M3.30273 103.49C3.30273 102.326 4.26315 101.383 5.44789 101.383H11.6669C12.8516 101.383 13.8121 102.326 13.8121 103.49V112.181C13.8121 113.345 12.8516 114.289 11.6669 114.289H5.44789C4.26315 114.289 3.30273 113.345 3.30273 112.181V103.49Z" fill="#B59DF9"/>
<path fill-rule="evenodd" clip-rule="evenodd" d="M11.6669 102.436H5.44789C4.85552 102.436 4.37531 102.908 4.37531 103.49V112.181C4.37531 112.763 4.85552 113.235 5.44789 113.235H11.6669C12.2593 113.235 12.7395 112.763 12.7395 112.181V103.49C12.7395 102.908 12.2593 102.436 11.6669 102.436ZM5.44789 101.383C4.26315 101.383 3.30273 102.326 3.30273 103.49V112.181C3.30273 113.345 4.26315 114.289 5.44789 114.289H11.6669C12.8516 114.289 13.8121 113.345 13.8121 112.181V103.49C13.8121 102.326 12.8516 101.383 11.6669 101.383H5.44789Z" fill="#9D7DF7"/>
<path d="M30.8896 88.0027C30.8896 86.8387 31.8501 85.8951 33.0348 85.8951H39.9106C41.0954 85.8951 42.0558 86.8387 42.0558 88.0027V99.2751C42.0558 100.439 41.0954 101.383 39.9106 101.383H33.0348C31.8501 101.383 30.8896 100.439 30.8896 99.2751V88.0027Z" fill="#B59DF9"/>
<path fill-rule="evenodd" clip-rule="evenodd" d="M39.9106 86.9489H33.0348C32.4424 86.9489 31.9622 87.4207 31.9622 88.0027V99.2751C31.9622 99.8571 32.4424 100.329 33.0348 100.329H39.9106C40.503 100.329 40.9832 99.8571 40.9832 99.2751V88.0027C40.9832 87.4207 40.503 86.9489 39.9106 86.9489ZM33.0348 85.8951C31.8501 85.8951 30.8896 86.8387 30.8896 88.0027V99.2751C30.8896 100.439 31.8501 101.383 33.0348 101.383H39.9106C41.0954 101.383 42.0558 100.439 42.0558 99.2751V88.0027C42.0558 86.8387 41.0954 85.8951 39.9106 85.8951H33.0348Z" fill="#9D7DF7"/>
<path d="M58.4766 103.49C58.4766 102.326 59.437 101.383 60.6217 101.383H67.4976C68.6823 101.383 69.6427 102.326 69.6427 103.49V137.348C69.6427 138.512 68.6823 139.456 67.4976 139.456H60.6217C59.437 139.456 58.4766 138.512 58.4766 137.348V103.49Z" fill="#B59DF9"/>
<path fill-rule="evenodd" clip-rule="evenodd" d="M67.4976 102.436H60.6217C60.0294 102.436 59.5491 102.908 59.5491 103.49V137.348C59.5491 137.93 60.0294 138.402 60.6217 138.402H67.4976C68.0899 138.402 68.5701 137.93 68.5701 137.348V103.49C68.5701 102.908 68.0899 102.436 67.4976 102.436ZM60.6217 101.383C59.437 101.383 58.4766 102.326 58.4766 103.49V137.348C58.4766 138.512 59.437 139.456 60.6217 139.456H67.4976C68.6823 139.456 69.6427 138.512 69.6427 137.348V103.49C69.6427 102.326 68.6823 101.383 67.4976 101.383H60.6217Z" fill="#9D7DF7"/>
<path d="M86.7202 103.49C86.7202 102.326 87.6806 101.383 88.8654 101.383H95.7412C96.9259 101.383 97.8864 102.326 97.8864 103.49V110.245C97.8864 111.409 96.9259 112.353 95.7412 112.353H88.8654C87.6806 112.353 86.7202 111.409 86.7202 110.245V103.49Z" fill="#B59DF9"/>
<path fill-rule="evenodd" clip-rule="evenodd" d="M95.7412 102.436H88.8654C88.273 102.436 87.7928 102.908 87.7928 103.49V110.245C87.7928 110.827 88.273 111.299 88.8654 111.299H95.7412C96.3336 111.299 96.8138 110.827 96.8138 110.245V103.49C96.8138 102.908 96.3336 102.436 95.7412 102.436ZM88.8654 101.383C87.6806 101.383 86.7202 102.326 86.7202 103.49V110.245C86.7202 111.409 87.6806 112.353 88.8654 112.353H95.7412C96.9259 112.353 97.8864 111.409 97.8864 110.245V103.49C97.8864 102.326 96.9259 101.383 95.7412 101.383H88.8654Z" fill="#9D7DF7"/>
<path d="M70.9565 103.49C70.9565 102.326 71.917 101.383 73.1017 101.383H79.9775C81.1623 101.383 82.1227 102.326 82.1227 103.49V110.245C82.1227 111.409 81.1623 112.353 79.9775 112.353H73.1017C71.917 112.353 70.9565 111.409 70.9565 110.245V103.49Z" fill="#FDAED0"/>
<path fill-rule="evenodd" clip-rule="evenodd" d="M79.9775 102.436H73.1017C72.5093 102.436 72.0291 102.908 72.0291 103.49V110.245C72.0291 110.827 72.5093 111.299 73.1017 111.299H79.9775C80.5699 111.299 81.0501 110.827 81.0501 110.245V103.49C81.0501 102.908 80.5699 102.436 79.9775 102.436ZM73.1017 101.383C71.917 101.383 70.9565 102.326 70.9565 103.49V110.245C70.9565 111.409 71.917 112.353 73.1017 112.353H79.9775C81.1623 112.353 82.1227 111.409 82.1227 110.245V103.49C82.1227 102.326 81.1623 101.383 79.9775 101.383H73.1017Z" fill="#FA8DBB"/>
<path d="M115.621 85.4214C115.621 84.2574 116.582 83.3138 117.766 83.3138H123.985C125.17 83.3138 126.13 84.2574 126.13 85.4214V98.6297C126.13 99.7937 125.17 100.737 123.985 100.737H117.766C116.582 100.737 115.621 99.7937 115.621 98.6297V85.4214Z" fill="#B59DF9"/>
<path fill-rule="evenodd" clip-rule="evenodd" d="M123.985 84.3676H117.766C117.174 84.3676 116.694 84.8394 116.694 85.4214V98.6297C116.694 99.2117 117.174 99.6835 117.766 99.6835H123.985C124.578 99.6835 125.058 99.2117 125.058 98.6297V85.4214C125.058 84.8394 124.578 84.3676 123.985 84.3676ZM117.766 83.3138C116.582 83.3138 115.621 84.2574 115.621 85.4214V98.6297C115.621 99.7937 116.582 100.737 117.766 100.737H123.985C125.17 100.737 126.13 99.7937 126.13 98.6297V85.4214C126.13 84.2574 125.17 83.3138 123.985 83.3138H117.766Z" fill="#9D7DF7"/>
<path d="M127.444 85.4214C127.444 84.2574 128.404 83.3138 129.589 83.3138H135.808C136.993 83.3138 137.953 84.2574 137.953 85.4214V98.6297C137.953 99.7937 136.993 100.737 135.808 100.737H129.589C128.404 100.737 127.444 99.7937 127.444 98.6297V85.4214Z" fill="#FDAED0"/>
<path fill-rule="evenodd" clip-rule="evenodd" d="M135.808 84.3676H129.589C128.997 84.3676 128.516 84.8394 128.516 85.4214V98.6297C128.516 99.2117 128.997 99.6835 129.589 99.6835H135.808C136.4 99.6835 136.881 99.2117 136.881 98.6297V85.4214C136.881 84.8394 136.4 84.3676 135.808 84.3676ZM129.589 83.3138C128.404 83.3138 127.444 84.2574 127.444 85.4214V98.6297C127.444 99.7937 128.404 100.737 129.589 100.737H135.808C136.993 100.737 137.953 99.7937 137.953 98.6297V85.4214C137.953 84.2574 136.993 83.3138 135.808 83.3138H129.589Z" fill="#FA8DBB"/>
<path d="M143.208 103.49C143.208 102.326 144.168 101.383 145.353 101.383H152.229C153.414 101.383 154.374 102.326 154.374 103.49V122.506C154.374 123.67 153.414 124.614 152.229 124.614H145.353C144.168 124.614 143.208 123.67 143.208 122.506V103.49Z" fill="#B59DF9"/>
<path fill-rule="evenodd" clip-rule="evenodd" d="M152.229 102.436H145.353C144.761 102.436 144.281 102.908 144.281 103.49V122.506C144.281 123.088 144.761 123.56 145.353 123.56H152.229C152.821 123.56 153.302 123.088 153.302 122.506V103.49C153.302 102.908 152.821 102.436 152.229 102.436ZM145.353 101.383C144.168 101.383 143.208 102.326 143.208 103.49V122.506C143.208 123.67 144.168 124.614 145.353 124.614H152.229C153.414 124.614 154.374 123.67 154.374 122.506V103.49C154.374 102.326 153.414 101.383 152.229 101.383H145.353Z" fill="#9D7DF7"/>
<path d="M99.2002 107.513C99.2002 104.484 101.7 102.028 104.783 102.028C107.867 102.028 110.366 104.484 110.366 107.513V112.03C110.366 115.06 107.867 117.515 104.783 117.515C101.7 117.515 99.2002 115.06 99.2002 112.03V107.513Z" fill="#FDAED0"/>
<path fill-rule="evenodd" clip-rule="evenodd" d="M109.294 112.03V107.513C109.294 105.066 107.274 103.082 104.783 103.082C102.292 103.082 100.273 105.066 100.273 107.513V112.03C100.273 114.478 102.292 116.462 104.783 116.462C107.274 116.462 109.294 114.478 109.294 112.03ZM104.783 102.028C101.7 102.028 99.2002 104.484 99.2002 107.513V112.03C99.2002 115.06 101.7 117.515 104.783 117.515C107.867 117.515 110.366 115.06 110.366 112.03V107.513C110.366 104.484 107.867 102.028 104.783 102.028Z" fill="#FA8DBB"/>
<path d="M155.031 72.0209C155.031 68.9915 157.53 66.5358 160.614 66.5358C163.697 66.5358 166.197 68.9916 166.197 72.0209V96.5427C166.197 99.5721 163.697 102.028 160.614 102.028C157.53 102.028 155.031 99.5721 155.031 96.5427V72.0209Z" fill="#FDAED0"/>
<path fill-rule="evenodd" clip-rule="evenodd" d="M165.124 96.5427V72.0209C165.124 69.5735 163.105 67.5895 160.614 67.5895C158.123 67.5895 156.103 69.5735 156.103 72.0209V96.5427C156.103 98.9901 158.123 100.974 160.614 100.974C163.105 100.974 165.124 98.9901 165.124 96.5427ZM160.614 66.5358C157.53 66.5358 155.031 68.9915 155.031 72.0209V96.5427C155.031 99.5721 157.53 102.028 160.614 102.028C163.697 102.028 166.197 99.5721 166.197 96.5427V72.0209C166.197 68.9916 163.697 66.5358 160.614 66.5358Z" fill="#FA8DBB"/>
<path d="M0.0185547 176.675C0.0185547 175.606 0.900776 174.739 1.98905 174.739C3.07733 174.739 3.95955 175.606 3.95955 176.675C3.95955 177.744 3.07733 178.611 1.98905 178.611C0.900776 178.611 0.0185547 177.744 0.0185547 176.675Z" fill="#B59DF9"/>
<rect x="8.55762" y="173.012" width="27.587" height="6.45311" rx="3.22655" fill="#ECEEF4"/>
<path d="M51.9082 176.675C51.9082 175.606 52.7904 174.739 53.8787 174.739C54.967 174.739 55.8492 175.606 55.8492 176.675C55.8492 177.744 54.967 178.611 53.8787 178.611C52.7904 178.611 51.9082 177.744 51.9082 176.675Z" fill="#FDAED0"/>
<rect x="60.4473" y="173.012" width="27.587" height="6.45311" rx="3.22655" fill="#ECEEF4"/>
</g>
<defs>
<clipPath id="clip0_1301_11777">
<rect width="169.463" height="179.833" fill="white" transform="translate(0.0185547 0.0687256)"/>
</clipPath>
</defs>
</svg>
