<svg width="150" height="152" viewBox="0 0 150 152" fill="none" xmlns="http://www.w3.org/2000/svg">
<rect x="0.972656" y="0.067627" width="68.3295" height="8.4102" rx="4.2051" fill="#ECEEF4"/>
<rect x="0.972656" y="14.3289" width="117.387" height="6.72816" rx="3.36408" fill="#ECEEF4"/>
<path d="M0.680664 39.3152L149.604 39.3152" stroke="#ECEEF4" stroke-width="0.689001"/>
<rect x="117.483" y="70.1526" width="3.50408" height="3.36408" rx="1.68204" fill="#5A78E5"/>
<rect x="124.784" y="69.0312" width="24.5285" height="5.6068" rx="2.8034" fill="#ECEEF4"/>
<rect x="117.483" y="78.0022" width="3.50408" height="3.36408" rx="1.68204" fill="#B59DF9"/>
<rect x="124.784" y="76.8809" width="24.5285" height="5.6068" rx="2.8034" fill="#ECEEF4"/>
<rect x="117.483" y="85.8516" width="3.50408" height="3.36408" rx="1.68204" fill="#FDAED0"/>
<rect x="124.784" y="84.7302" width="24.5285" height="5.6068" rx="2.8034" fill="#ECEEF4"/>
<rect x="117.483" y="93.7012" width="3.50408" height="3.36408" rx="1.68204" fill="#539EF3"/>
<rect x="124.784" y="92.5798" width="24.5285" height="5.6068" rx="2.8034" fill="#ECEEF4"/>
<path opacity="0.6" d="M42.5865 96.6416L22.8696 114.025L48.2199 121.365L67.5344 129.285L63.9129 108.617L68.7415 96.6416L55.8652 90.8469L42.5865 96.6416Z" fill="#B59DF9" stroke="#B59DF9" stroke-width="1.378"/>
<path d="M22.0859 80.9707L55.5778 65.4862L89.0697 80.9707L97.3362 115.742L74.1672 143.634H36.9883L13.8193 115.742L22.0859 80.9707Z" stroke="#79829F" stroke-width="0.689001"/>
<path d="M29.5189 86.2143L56.1618 73.8964L82.8047 86.2143L89.3797 113.87L70.9503 136.057H41.3733L22.9439 113.87L29.5189 86.2143Z" stroke="#79829F" stroke-width="0.689001"/>
<path d="M35.3274 91.1085L55.5779 81.746L75.8284 91.1085L80.8246 112.124L66.8189 128.985H44.3369L30.3312 112.124L35.3274 91.1085Z" stroke="#79829F" stroke-width="0.689001"/>
<path d="M42.6967 96.8074L55.87 90.7169L69.0432 96.8074L72.2914 110.47L63.1834 121.435H48.5565L39.4485 110.47L42.6967 96.8074Z" stroke="#79829F" stroke-width="0.689001"/>
<path d="M49.609 101.596L56.1616 98.5663L62.7141 101.596L64.3272 108.381L59.8008 113.83H52.5223L47.996 108.381L49.609 101.596Z" stroke="#79829F" stroke-width="0.689001"/>
<path d="M14.0171 115.764L55.8652 106.686L89.2631 80.9961" stroke="#79829F" stroke-width="0.689001"/>
<path d="M74.705 144.012L56.1853 106.858L22.6736 81.3052" stroke="#79829F" stroke-width="0.689001"/>
<path d="M56.1747 65.5112L56.0399 106.7L37.1797 143.581" stroke="#79829F" stroke-width="0.689001"/>
<path d="M56.0664 106.879L97.7133 115.957" stroke="#79829F" stroke-width="0.689001"/>
<path opacity="0.6" d="M36.5508 92.0058L55.8653 65.7368L61.9011 101.664L74.5762 110.549L59.0844 112.867L43.3913 131.023L50.2319 107.845L36.5508 92.0058Z" fill="#5598E6" stroke="#5A78E5" stroke-width="1.378"/>
<ellipse cx="55.8697" cy="65.3869" rx="0.87602" ry="0.841019" fill="#5A78E5"/>
<ellipse cx="36.5972" cy="91.739" rx="0.876019" ry="0.841022" fill="#5A78E5"/>
<ellipse cx="50.0298" cy="107.999" rx="0.87602" ry="0.841019" fill="#5A78E5"/>
<ellipse cx="43.0215" cy="130.987" rx="0.876019" ry="0.841019" fill="#5A78E5"/>
<ellipse cx="58.7896" cy="112.484" rx="0.87602" ry="0.841019" fill="#5A78E5"/>
<ellipse cx="73.9742" cy="110.241" rx="0.876019" ry="0.841019" fill="#5A78E5"/>
<ellipse cx="61.71" cy="101.27" rx="0.876019" ry="0.841019" fill="#5A78E5"/>
<ellipse cx="22.5811" cy="114.166" rx="0.876019" ry="0.841019" fill="#B59DF9"/>
<ellipse cx="48.2774" cy="121.455" rx="0.876019" ry="0.841022" fill="#B59DF9"/>
<ellipse cx="67.5499" cy="128.744" rx="0.876019" ry="0.841022" fill="#B59DF9"/>
<ellipse cx="68.7178" cy="96.7851" rx="0.876019" ry="0.841019" fill="#B59DF9"/>
<ellipse cx="55.8697" cy="74.3579" rx="0.87602" ry="0.841015" fill="#FDAED0"/>
<ellipse cx="82.7344" cy="86.132" rx="0.876019" ry="0.841019" fill="#FDAED0"/>
<ellipse cx="80.9825" cy="111.923" rx="0.876019" ry="0.841022" fill="#FDAED0"/>
<ellipse cx="62.878" cy="120.894" rx="0.876019" ry="0.841011" fill="#FDAED0"/>
<ellipse cx="64.0459" cy="108.559" rx="0.87602" ry="0.841022" fill="#B59DF9"/>
<ellipse cx="55.8697" cy="90.6176" rx="0.87602" ry="0.841019" fill="#B59DF9"/>
<ellipse cx="42.4375" cy="96.7851" rx="0.876019" ry="0.841019" fill="#B59DF9"/>
<ellipse cx="62.878" cy="120.894" rx="0.876019" ry="0.841011" fill="#FDAED0"/>
<ellipse cx="47.6934" cy="107.999" rx="0.876019" ry="0.841019" fill="#FDAED0"/>
<ellipse cx="29.0049" cy="86.132" rx="0.876019" ry="0.841019" fill="#FDAED0"/>
<ellipse cx="52.3658" cy="114.166" rx="0.876019" ry="0.841019" fill="#FDAED0"/>
<path opacity="0.6" d="M55.8651 74.2356L28.9053 86.2112L47.8174 108.231L52.2436 114.025L63.108 120.979L81.2154 112.094L82.8249 86.2112L55.8651 74.2356Z" fill="#FDAED0" stroke="#FDAED0" stroke-width="1.378"/>
<ellipse cx="29.0049" cy="86.132" rx="0.876019" ry="0.841019" fill="#539EF3"/>
<ellipse cx="13.8208" cy="115.288" rx="0.876019" ry="0.841019" fill="#539EF3"/>
<ellipse cx="52.3658" cy="114.166" rx="0.876019" ry="0.841019" fill="#539EF3"/>
<ellipse cx="64.0459" cy="109.12" rx="0.87602" ry="0.841019" fill="#539EF3"/>
<ellipse cx="89.7422" cy="81.0859" rx="0.876019" ry="0.841019" fill="#539EF3"/>
<ellipse cx="55.8697" cy="81.6467" rx="0.87602" ry="0.841019" fill="#539EF3"/>
<path opacity="0.6" d="M14.0171 115.571L28.9053 86.2112L55.8652 81.9618L89.6655 81.1892L63.9129 108.81L52.2437 114.026L14.0171 115.571Z" fill="#8FBFF6" stroke="#539EF3" stroke-width="1.378"/>
<rect x="51.1978" y="57.2571" width="10.5122" height="4.48544" rx="2.24272" fill="#ECEEF4"/>
<rect x="91.4946" y="76.3203" width="10.5122" height="4.48544" rx="2.24272" fill="#ECEEF4"/>
<rect x="100.839" y="112.204" width="10.5122" height="4.48544" rx="2.24272" fill="#ECEEF4"/>
<rect x="75.1421" y="146.405" width="10.5122" height="4.48544" rx="2.24272" fill="#ECEEF4"/>
<rect x="24.917" y="145.844" width="10.5122" height="4.48544" rx="2.24272" fill="#ECEEF4"/>
<rect x="0.388672" y="111.082" width="10.5122" height="4.48544" rx="2.24272" fill="#ECEEF4"/>
<rect x="9.73291" y="75.7595" width="10.5122" height="4.48544" rx="2.24272" fill="#ECEEF4"/>
</svg>
