<svg width="139" height="103" viewBox="0 0 139 103" fill="none" xmlns="http://www.w3.org/2000/svg">
<path d="M121.032 13.7945V7.48814H122.478L122.606 8.55615C122.802 8.18319 123.084 7.88653 123.451 7.66614C123.826 7.44576 124.266 7.33557 124.769 7.33557C125.554 7.33557 126.165 7.58138 126.6 8.073C127.035 8.56462 127.253 9.2851 127.253 10.2344V13.7945H125.614V10.387C125.614 9.84453 125.503 9.4292 125.281 9.14101C125.059 8.85281 124.714 8.70872 124.245 8.70872C123.784 8.70872 123.404 8.86977 123.105 9.19186C122.815 9.51396 122.67 9.9632 122.67 10.5396V13.7945H121.032Z" fill="#4B5162"/>
<path d="M112.011 13.7945L110.155 7.48816H111.78L112.881 12.0272L114.161 7.48816H115.979L117.259 12.0272L118.372 7.48816H119.998L118.129 13.7945H116.427L115.07 9.07745L113.713 13.7945H112.011Z" fill="#4B5162"/>
<path d="M106.278 13.947C105.664 13.947 105.109 13.8072 104.614 13.5274C104.128 13.2477 103.739 12.8621 103.449 12.3704C103.168 11.8703 103.027 11.294 103.027 10.6413C103.027 9.98863 103.172 9.41648 103.462 8.92486C103.752 8.42477 104.14 8.03486 104.627 7.75514C105.122 7.47543 105.676 7.33557 106.291 7.33557C106.897 7.33557 107.443 7.47543 107.929 7.75514C108.424 8.03486 108.812 8.42477 109.094 8.92486C109.384 9.41648 109.529 9.98863 109.529 10.6413C109.529 11.294 109.384 11.8703 109.094 12.3704C108.812 12.8621 108.424 13.2477 107.929 13.5274C107.434 13.8072 106.884 13.947 106.278 13.947ZM106.278 12.5357C106.705 12.5357 107.076 12.3789 107.392 12.0653C107.707 11.7432 107.865 11.2685 107.865 10.6413C107.865 10.0141 107.707 9.54363 107.392 9.23001C107.076 8.90791 106.709 8.74686 106.291 8.74686C105.856 8.74686 105.48 8.90791 105.164 9.23001C104.857 9.54363 104.704 10.0141 104.704 10.6413C104.704 11.2685 104.857 11.7432 105.164 12.0653C105.48 12.3789 105.851 12.5357 106.278 12.5357Z" fill="#4B5162"/>
<path d="M97.8005 13.947C97.2031 13.947 96.6698 13.8029 96.2005 13.5147C95.7311 13.2265 95.3599 12.8324 95.0868 12.3323C94.8138 11.8322 94.6772 11.2643 94.6772 10.6286C94.6772 9.99287 94.8138 9.4292 95.0868 8.93758C95.3599 8.43748 95.7311 8.04758 96.2005 7.76786C96.6698 7.47967 97.2031 7.33557 97.8005 7.33557C98.2783 7.33557 98.6964 7.42458 99.0548 7.60258C99.4132 7.78058 99.7034 8.03062 99.9252 8.35272V4.64014H101.564V13.7945H100.104L99.9252 12.8917C99.7204 13.1715 99.4474 13.4173 99.106 13.6292C98.7732 13.8411 98.3381 13.947 97.8005 13.947ZM98.146 12.523C98.6751 12.523 99.106 12.3493 99.4388 12.0017C99.7802 11.6457 99.9508 11.1923 99.9508 10.6413C99.9508 10.0903 99.7802 9.64111 99.4388 9.29358C99.106 8.93758 98.6751 8.75958 98.146 8.75958C97.6255 8.75958 97.1946 8.93334 96.8532 9.28087C96.5119 9.62839 96.3412 10.0776 96.3412 10.6286C96.3412 11.1795 96.5119 11.633 96.8532 11.989C97.1946 12.345 97.6255 12.523 98.146 12.523Z" fill="#4B5162"/>
<path d="M88.1318 13.7945V4.64014H89.7702V10.0437L92.023 7.48815H93.9686L91.3702 10.3616L94.391 13.7945H92.343L89.7702 10.6286V13.7945H88.1318Z" fill="#4B5162"/>
<path d="M82.933 13.947C82.3869 13.947 81.9389 13.8623 81.589 13.6927C81.2392 13.5147 80.9789 13.2816 80.8082 12.9934C80.6376 12.7053 80.5522 12.3874 80.5522 12.0399C80.5522 11.455 80.7826 10.9803 81.2434 10.6159C81.7042 10.2514 82.3954 10.0692 83.317 10.0692H84.9298V9.91658C84.9298 9.48429 84.8061 9.16644 84.5586 8.96301C84.3112 8.75958 84.004 8.65786 83.637 8.65786C83.3042 8.65786 83.0141 8.73839 82.7666 8.89943C82.5192 9.05201 82.3656 9.28086 82.3058 9.58601H80.7058C80.7485 9.12829 80.9021 8.72991 81.1666 8.39086C81.4397 8.05181 81.7896 7.79329 82.2162 7.61529C82.6429 7.42881 83.1208 7.33557 83.6498 7.33557C84.5544 7.33557 85.2669 7.56019 85.7874 8.00943C86.308 8.45867 86.5682 9.09439 86.5682 9.91658V13.7945H85.173L85.0194 12.7773C84.8317 13.1164 84.5672 13.3961 84.2258 13.6164C83.893 13.8368 83.4621 13.947 82.933 13.947ZM83.3042 12.6756C83.7736 12.6756 84.1362 12.523 84.3922 12.2179C84.6568 11.9127 84.8232 11.5355 84.8914 11.0863H83.4962C83.061 11.0863 82.7496 11.1668 82.5618 11.3279C82.3741 11.4804 82.2802 11.6712 82.2802 11.9C82.2802 12.1458 82.3741 12.3365 82.5618 12.4722C82.7496 12.6078 82.997 12.6756 83.3042 12.6756Z" fill="#4B5162"/>
<path d="M76.1793 13.947C75.5393 13.947 74.9718 13.8114 74.4768 13.5402C73.9819 13.2689 73.5936 12.8875 73.312 12.3959C73.0304 11.9043 72.8896 11.3363 72.8896 10.6922C72.8896 10.0395 73.0262 9.45886 73.2992 8.95029C73.5808 8.44172 73.9649 8.04757 74.4513 7.76786C74.9462 7.47967 75.5265 7.33557 76.1921 7.33557C76.815 7.33557 77.3654 7.47119 77.8432 7.74243C78.3211 8.01367 78.6923 8.38662 78.9568 8.86129C79.2299 9.32748 79.3664 9.84877 79.3664 10.4252C79.3664 10.5184 79.3622 10.6159 79.3536 10.7176C79.3536 10.8193 79.3494 10.9253 79.3408 11.0354H74.5153C74.5494 11.5271 74.7201 11.9127 75.0273 12.1924C75.343 12.4722 75.7227 12.612 76.1664 12.612C76.4992 12.612 76.7766 12.54 76.9984 12.3959C77.2288 12.2433 77.3995 12.0483 77.5104 11.811H79.1744C79.055 12.2094 78.8545 12.5739 78.5729 12.9044C78.2998 13.2265 77.9585 13.4808 77.5489 13.6673C77.1478 13.8538 76.6913 13.947 76.1793 13.947ZM76.1921 8.65786C75.791 8.65786 75.4369 8.77229 75.1297 9.00115C74.8225 9.22153 74.6262 9.56058 74.5409 10.0183H77.7025C77.6769 9.60296 77.5232 9.27239 77.2416 9.02658C76.96 8.78077 76.6102 8.65786 76.1921 8.65786Z" fill="#4B5162"/>
<path d="M68.1318 13.7945V7.48814H69.591L69.7446 8.67058C69.975 8.26372 70.2865 7.94162 70.679 7.70429C71.0801 7.45848 71.5494 7.33557 72.087 7.33557V9.05201H71.6262C71.2678 9.05201 70.9478 9.1071 70.6662 9.21729C70.3846 9.32748 70.1628 9.5182 70.0006 9.78944C69.847 10.0607 69.7702 10.4379 69.7702 10.921V13.7945H68.1318Z" fill="#4B5162"/>
<path d="M60.0952 13.7944V4.89441H63.692C64.6221 4.89441 65.3304 5.11055 65.8168 5.54284C66.3117 5.96665 66.5592 6.51337 66.5592 7.18299C66.5592 7.74242 66.4056 8.19166 66.0984 8.53071C65.7998 8.86128 65.4328 9.0859 64.9976 9.20457C65.5096 9.30628 65.932 9.56057 66.2648 9.96743C66.5976 10.3658 66.764 10.832 66.764 11.366C66.764 12.0695 66.508 12.6501 65.996 13.1079C65.484 13.5656 64.7587 13.7944 63.82 13.7944H60.0952ZM61.7336 8.63242H63.4488C63.9096 8.63242 64.2637 8.52647 64.5112 8.31456C64.7587 8.10266 64.8824 7.80175 64.8824 7.41185C64.8824 7.03889 64.7587 6.74646 64.5112 6.53456C64.2723 6.31418 63.9096 6.20399 63.4232 6.20399H61.7336V8.63242ZM61.7336 12.4721H63.564C64.0504 12.4721 64.4259 12.362 64.6904 12.1416C64.9635 11.9127 65.1 11.5949 65.1 11.188C65.1 10.7727 64.9592 10.4463 64.6776 10.209C64.396 9.97166 64.0163 9.853 63.5384 9.853H61.7336V12.4721Z" fill="#4B5162"/>
<path d="M52.4415 13.947C51.8015 13.947 51.234 13.8114 50.7391 13.5402C50.2441 13.2689 49.8559 12.8875 49.5743 12.3959C49.2927 11.9043 49.1519 11.3363 49.1519 10.6922C49.1519 10.0395 49.2884 9.45886 49.5615 8.95029C49.8431 8.44172 50.2271 8.04757 50.7135 7.76786C51.2084 7.47967 51.7887 7.33557 52.4543 7.33557C53.0772 7.33557 53.6276 7.47119 54.1055 7.74243C54.5833 8.01367 54.9545 8.38662 55.2191 8.86129C55.4921 9.32748 55.6287 9.84877 55.6287 10.4252C55.6287 10.5184 55.6244 10.6159 55.6159 10.7176C55.6159 10.8193 55.6116 10.9253 55.6031 11.0354H50.7775C50.8116 11.5271 50.9823 11.9127 51.2895 12.1924C51.6052 12.4722 51.9849 12.612 52.4287 12.612C52.7615 12.612 53.0388 12.54 53.2607 12.3959C53.4911 12.2433 53.6617 12.0483 53.7727 11.811H55.4367C55.3172 12.2094 55.1167 12.5739 54.8351 12.9044C54.562 13.2265 54.2207 13.4808 53.8111 13.6673C53.41 13.8538 52.9535 13.947 52.4415 13.947ZM52.4543 8.65786C52.0532 8.65786 51.6991 8.77229 51.3919 9.00115C51.0847 9.22153 50.8884 9.56058 50.8031 10.0183H53.9647C53.9391 9.60296 53.7855 9.27239 53.5039 9.02658C53.2223 8.78077 52.8724 8.65786 52.4543 8.65786Z" fill="#4B5162"/>
<path d="M44.7922 13.947C44.1437 13.947 43.572 13.8072 43.077 13.5274C42.5821 13.2477 42.1896 12.8578 41.8995 12.3577C41.6179 11.8576 41.4771 11.2855 41.4771 10.6413C41.4771 9.9971 41.6179 9.42496 41.8995 8.92486C42.1896 8.42477 42.5821 8.03486 43.077 7.75514C43.572 7.47543 44.1437 7.33557 44.7922 7.33557C45.6029 7.33557 46.2856 7.54748 46.8402 7.97129C47.3949 8.38662 47.749 8.96301 47.9026 9.70044H46.1746C46.0893 9.39529 45.9186 9.15796 45.6626 8.98843C45.4152 8.81043 45.1208 8.72143 44.7794 8.72143C44.3272 8.72143 43.9432 8.89096 43.6274 9.23001C43.3117 9.56906 43.1539 10.0395 43.1539 10.6413C43.1539 11.2431 43.3117 11.7135 43.6274 12.0526C43.9432 12.3916 44.3272 12.5612 44.7794 12.5612C45.1208 12.5612 45.4152 12.4764 45.6626 12.3069C45.9186 12.1373 46.0893 11.8958 46.1746 11.5822H47.9026C47.749 12.2942 47.3949 12.8663 46.8402 13.2986C46.2856 13.7309 45.6029 13.947 44.7922 13.947Z" fill="#4B5162"/>
<path d="M39.1524 6.50914C38.8538 6.50914 38.6063 6.42014 38.41 6.24214C38.2223 6.06414 38.1284 5.83952 38.1284 5.56828C38.1284 5.29704 38.2223 5.07666 38.41 4.90714C38.6063 4.72914 38.8538 4.64014 39.1524 4.64014C39.4511 4.64014 39.6943 4.72914 39.882 4.90714C40.0783 5.07666 40.1764 5.29704 40.1764 5.56828C40.1764 5.83952 40.0783 6.06414 39.882 6.24214C39.6943 6.42014 39.4511 6.50914 39.1524 6.50914ZM38.3332 13.7945V7.48815H39.9716V13.7945H38.3332Z" fill="#4B5162"/>
<path d="M32.9097 13.7945L30.5801 7.48816H32.2953L33.9081 12.256L35.5209 7.48816H37.2361L34.8937 13.7945H32.9097Z" fill="#4B5162"/>
<path d="M26.1196 13.7945V7.48814H27.5788L27.7324 8.67058C27.9628 8.26372 28.2743 7.94162 28.6668 7.70429C29.0679 7.45848 29.5372 7.33557 30.0748 7.33557V9.05201H29.614C29.2556 9.05201 28.9356 9.1071 28.654 9.21729C28.3724 9.32748 28.1506 9.5182 27.9884 9.78944C27.8348 10.0607 27.758 10.4379 27.758 10.921V13.7945H26.1196Z" fill="#4B5162"/>
<path d="M21.5542 13.947C20.9142 13.947 20.3468 13.8114 19.8518 13.5402C19.3569 13.2689 18.9686 12.8875 18.687 12.3959C18.4054 11.9043 18.2646 11.3363 18.2646 10.6922C18.2646 10.0395 18.4012 9.45886 18.6742 8.95029C18.9558 8.44172 19.3398 8.04757 19.8262 7.76786C20.3212 7.47967 20.9014 7.33557 21.567 7.33557C22.19 7.33557 22.7404 7.47119 23.2182 7.74243C23.6961 8.01367 24.0673 8.38662 24.3319 8.86129C24.6049 9.32748 24.7415 9.84877 24.7415 10.4252C24.7415 10.5184 24.7372 10.6159 24.7287 10.7176C24.7287 10.8193 24.7244 10.9253 24.7159 11.0354H19.8902C19.9244 11.5271 20.095 11.9127 20.4022 12.1924C20.718 12.4722 21.0977 12.612 21.5414 12.612C21.8742 12.612 22.1516 12.54 22.3734 12.3959C22.6038 12.2433 22.7745 12.0483 22.8855 11.811H24.5494C24.43 12.2094 24.2295 12.5739 23.9479 12.9044C23.6748 13.2265 23.3334 13.4808 22.9238 13.6673C22.5228 13.8538 22.0662 13.947 21.5542 13.947ZM21.567 8.65786C21.166 8.65786 20.8118 8.77229 20.5046 9.00115C20.1974 9.22153 20.0012 9.56058 19.9158 10.0183H23.0774C23.0518 9.60296 22.8983 9.27239 22.6167 9.02658C22.3351 8.78077 21.9852 8.65786 21.567 8.65786Z" fill="#4B5162"/>
<path d="M13.9295 13.947C13.2724 13.947 12.6922 13.8368 12.1887 13.6164C11.6852 13.3876 11.2884 13.0655 10.9983 12.6501C10.7082 12.2263 10.5588 11.7135 10.5503 11.1117H12.2783C12.2954 11.527 12.4447 11.8788 12.7263 12.167C13.0164 12.4467 13.4132 12.5866 13.9167 12.5866C14.3519 12.5866 14.6975 12.4848 14.9535 12.2814C15.2095 12.0695 15.3375 11.7898 15.3375 11.4423C15.3375 11.0778 15.2223 10.7938 14.9919 10.5904C14.77 10.387 14.4714 10.2217 14.0959 10.0946C13.7204 9.96741 13.3194 9.83179 12.8927 9.6877C12.2015 9.45036 11.6724 9.14522 11.3055 8.77226C10.9471 8.39931 10.7679 7.90345 10.7679 7.28469C10.7594 6.75916 10.8831 6.30992 11.1391 5.93697C11.4036 5.55554 11.762 5.26311 12.2143 5.05968C12.6666 4.84777 13.1871 4.74182 13.7759 4.74182C14.3732 4.74182 14.898 4.84777 15.3503 5.05968C15.8111 5.27158 16.1695 5.56825 16.4255 5.94968C16.69 6.33111 16.8308 6.78459 16.8479 7.31012H15.0943C15.0858 6.9965 14.962 6.72102 14.7231 6.48368C14.4927 6.23787 14.1684 6.11497 13.7503 6.11497C13.3919 6.10649 13.089 6.19549 12.8415 6.38197C12.6026 6.55997 12.4831 6.82273 12.4831 7.17026C12.4831 7.46693 12.577 7.70426 12.7647 7.88226C12.9524 8.05178 13.2084 8.19588 13.5327 8.31455C13.857 8.43321 14.2282 8.56036 14.6463 8.69598C15.09 8.84855 15.4954 9.02655 15.8623 9.22998C16.2292 9.43341 16.5236 9.70465 16.7455 10.0437C16.9674 10.3743 17.0783 10.8023 17.0783 11.3278C17.0783 11.794 16.9588 12.2263 16.7199 12.6247C16.481 13.0231 16.1268 13.3452 15.6575 13.591C15.1882 13.8283 14.6122 13.947 13.9295 13.947Z" fill="#4B5162"/>
<rect x="0.399902" y="40.4152" width="4.8" height="4.76787" rx="2" fill="#6096FA"/>
<path d="M10 42.7991C10 41.4825 11.0673 40.4152 12.3839 40.4152H53.2161C54.5327 40.4152 55.6 41.4825 55.6 42.7991C55.6 44.1157 54.5327 45.183 53.2161 45.183H12.3839C11.0673 45.183 10 44.1157 10 42.7991Z" fill="#D2D5E2"/>
<rect x="0.399902" y="53.1295" width="4.8" height="4.76787" rx="2" fill="#57D3D4"/>
<path d="M10 55.5135C10 54.1968 11.0673 53.1295 12.3839 53.1295H53.2161C54.5327 53.1295 55.6 54.1968 55.6 55.5135C55.6 56.8301 54.5327 57.8974 53.2161 57.8974H12.3839C11.0673 57.8974 10 56.8301 10 55.5135Z" fill="#D2D5E2"/>
<rect x="0.399902" y="65.8439" width="4.8" height="4.76787" rx="2" fill="#999DE7"/>
<path d="M10 68.2278C10 66.9112 11.0673 65.8439 12.3839 65.8439H53.2161C54.5327 65.8439 55.6 66.9112 55.6 68.2278C55.6 69.5444 54.5327 70.6117 53.2161 70.6117H12.3839C11.0673 70.6117 10 69.5444 10 68.2278Z" fill="#D2D5E2"/>
<rect x="0.399902" y="78.5581" width="4.8" height="4.76788" rx="2" fill="#FFCE78"/>
<path d="M10 80.942C10 79.6254 11.0673 78.5581 12.3839 78.5581H53.2161C54.5327 78.5581 55.6 79.6254 55.6 80.942C55.6 82.2587 54.5327 83.326 53.2161 83.326H12.3839C11.0673 83.326 10 82.2587 10 80.942Z" fill="#D2D5E2"/>
<rect x="0.399902" y="91.2725" width="4.8" height="4.76788" rx="2" fill="#F791B3"/>
<path d="M10 93.6564C10 92.3398 11.0673 91.2725 12.3839 91.2725H53.2161C54.5327 91.2725 55.6 92.3398 55.6 93.6564C55.6 94.973 54.5327 96.0403 53.2161 96.0403H12.3839C11.0673 96.0403 10 94.973 10 93.6564Z" fill="#D2D5E2"/>
<path d="M138 68.2278C138 86.8798 122.778 102 104 102C85.2223 102 70 86.8798 70 68.2278C70 49.5758 85.2223 34.4553 104 34.4553C122.778 34.4553 138 49.5758 138 68.2278ZM91.8857 68.2278C91.8857 74.8735 97.3095 80.261 104 80.261C110.691 80.261 116.114 74.8735 116.114 68.2278C116.114 61.582 110.691 56.1945 104 56.1945C97.3095 56.1945 91.8857 61.582 91.8857 68.2278Z" fill="#D9D9D9"/>
<path d="M104 34.4553C110.22 34.4553 116.32 36.1499 121.637 39.3548C126.955 42.5596 131.285 47.1517 134.157 52.6315C137.03 58.1113 138.334 64.2686 137.927 70.4334C137.521 76.5982 135.42 82.5342 131.854 87.5954L113.924 75.1285C115.195 73.3252 115.944 71.2102 116.088 69.0136C116.233 66.8171 115.769 64.6232 114.745 62.6708C113.722 60.7183 112.179 59.0821 110.284 57.9402C108.39 56.7983 106.216 56.1945 104 56.1945V34.4553Z" fill="#6096FA" stroke="white" stroke-width="2"/>
<path d="M132.554 86.5608C129.862 90.6984 126.291 94.2008 122.091 96.8223C117.892 99.4438 113.166 101.121 108.245 101.736C103.324 102.351 98.3268 101.889 93.6045 100.383C88.8821 98.8765 84.5487 96.3622 80.9082 93.0161L95.7723 77.0599C97.0695 78.2521 98.6135 79.148 100.296 79.6847C101.979 80.2214 103.759 80.386 105.512 80.1668C107.266 79.9477 108.95 79.3501 110.446 78.4161C111.942 77.482 113.215 76.2341 114.174 74.7599L132.554 86.5608Z" fill="#57D3D4" stroke="white" stroke-width="2"/>
<path d="M81.8275 93.8309C75.7324 88.6228 71.6924 81.4378 70.4251 73.5514L92.0372 70.1246C92.4887 72.9345 93.9282 75.4946 96.0999 77.3502L81.8275 93.8309Z" fill="#999DE7" stroke="white" stroke-width="2"/>
<path d="M70.7377 75.2246C69.1095 67.5877 70.195 59.6263 73.8096 52.6946C77.4242 45.763 83.3447 40.2892 90.5639 37.2043L99.2127 57.174C96.6404 58.2732 94.531 60.2235 93.2431 62.6933C91.9552 65.163 91.5684 67.9997 92.1485 70.7208L70.7377 75.2246Z" fill="#FFCE78" stroke="white" stroke-width="2"/>
<path d="M87.9001 38.4817C92.934 35.7935 98.5688 34.4091 104.284 34.4565L104.101 56.195C102.065 56.1781 100.057 56.6713 98.2636 57.6291L87.9001 38.4817Z" fill="#F791B3" stroke="white" stroke-width="2"/>
</svg>
