<svg width="286" height="181" viewBox="0 0 286 181" fill="none" xmlns="http://www.w3.org/2000/svg">
<rect x="0.115723" y="0.0479736" width="77.2039" height="9.73678" rx="4.86839" fill="#ECEEF4"/>
<rect x="0.268555" y="16.5408" width="131.973" height="7.78942" rx="3.89471" fill="#ECEEF4"/>
<path d="M0.268555 40.2933L285.713 40.2933" stroke="#ECEEF4" stroke-width="0.80062"/>
<rect x="0.115723" y="55.8722" width="12.5374" height="5.19295" rx="2.59647" fill="#ECEEF4"/>
<rect x="0.115723" y="69.5037" width="12.5374" height="5.19295" rx="2.59647" fill="#ECEEF4"/>
<rect x="0.115723" y="83.1353" width="12.5374" height="5.19295" rx="2.59647" fill="#ECEEF4"/>
<rect x="0.115723" y="96.7667" width="12.5374" height="5.19295" rx="2.59647" fill="#ECEEF4"/>
<rect x="0.115723" y="110.398" width="12.5374" height="5.19294" rx="2.59647" fill="#ECEEF4"/>
<rect x="0.115723" y="124.03" width="12.5374" height="5.19295" rx="2.59647" fill="#ECEEF4"/>
<rect x="0.115723" y="137.661" width="12.5374" height="5.19295" rx="2.59647" fill="#ECEEF4"/>
<rect x="43.7661" y="148.371" width="8.04171" height="4.48711" rx="2.24356" fill="#ECEEF4"/>
<rect x="86.5571" y="148.696" width="7.91835" height="3.89471" rx="1.94735" fill="#ECEEF4"/>
<rect x="130.768" y="148.696" width="7.91835" height="3.89471" rx="1.94735" fill="#ECEEF4"/>
<rect x="170.36" y="148.696" width="7.91835" height="3.89471" rx="1.94735" fill="#ECEEF4"/>
<rect x="214.571" y="148.696" width="7.91835" height="3.89471" rx="1.94735" fill="#ECEEF4"/>
<rect x="259.441" y="148.696" width="7.91837" height="3.89471" rx="1.94735" fill="#ECEEF4"/>
<rect x="27.0302" y="56.2725" width="258.282" height="86.3438" stroke="#ECEEF4" stroke-width="0.80062"/>
<path d="M26.6299 84.5724H285.713" stroke="#ECEEF4" stroke-width="0.80062"/>
<path d="M26.6299 70.4833H285.713" stroke="#ECEEF4" stroke-width="0.80062"/>
<path d="M26.6299 98.6617H285.713" stroke="#ECEEF4" stroke-width="0.80062"/>
<path d="M26.6299 112.751H285.713" stroke="#ECEEF4" stroke-width="0.80062"/>
<path d="M26.6299 126.84H285.713" stroke="#ECEEF4" stroke-width="0.80062"/>
<path d="M70.2144 55.8722L70.2143 143.017" stroke="#ECEEF4" stroke-width="0.80062"/>
<path d="M112.991 55.8722L112.991 143.017" stroke="#ECEEF4" stroke-width="0.80062"/>
<path d="M155.768 55.8722L155.768 143.017" stroke="#ECEEF4" stroke-width="0.80062"/>
<path d="M198.544 55.8722L198.544 143.017" stroke="#ECEEF4" stroke-width="0.80062"/>
<path d="M241.322 55.8722L241.322 143.017" stroke="#ECEEF4" stroke-width="0.80062"/>
<rect x="32.8989" y="99.0132" width="29.7767" height="24.6791" fill="#5A78E5"/>
<rect x="32.8989" y="123.692" width="29.7767" height="6.73068" fill="#B59DF9"/>
<rect x="32.8989" y="130.423" width="29.7767" height="3.36535" fill="#FDAED0"/>
<rect x="75.0391" y="99.0132" width="31.3439" height="3.36534" fill="#FDAED0"/>
<rect x="119.095" y="56.3856" width="29.7767" height="14.5831" fill="#FDAED0"/>
<rect x="161.409" y="120.327" width="29.7767" height="6.73067" fill="#FDAED0"/>
<rect x="203.723" y="64.238" width="31.3439" height="14.5831" fill="#FDAED0"/>
<rect x="247.604" y="99.0132" width="29.7767" height="3.36534" fill="#FDAED0"/>
<rect x="75.0391" y="78.8212" width="31.3439" height="5.6089" fill="#B59DF9"/>
<rect x="119.095" y="70.9686" width="29.7767" height="20.192" fill="#B59DF9"/>
<rect x="161.409" y="114.718" width="29.7767" height="5.60889" fill="#B59DF9"/>
<rect x="203.723" y="78.8212" width="31.3439" height="13.4613" fill="#B59DF9"/>
<rect x="247.604" y="64.2382" width="29.7767" height="3.36534" fill="#B59DF9"/>
<rect x="75.0391" y="84.4299" width="31.3439" height="14.5831" fill="#5A78E5"/>
<rect x="119.095" y="91.1608" width="29.7767" height="7.85245" fill="#5A78E5"/>
<rect x="161.409" y="99.0132" width="29.7767" height="15.7049" fill="#5A78E5"/>
<rect x="203.723" y="92.2827" width="31.3439" height="6.73067" fill="#5A78E5"/>
<path d="M247.604 67.6035H277.381V99.0133H247.604V67.6035Z" fill="#5A78E5"/>
<rect x="0.268555" y="175.31" width="3.95918" height="3.89471" rx="1.94735" fill="#5A78E5"/>
<rect x="8.69385" y="174.012" width="27.7142" height="6.49118" rx="3.24559" fill="#ECEEF4"/>
<rect x="52.356" y="175.31" width="3.95918" height="3.89471" rx="1.94735" fill="#B59DF9"/>
<rect x="60.8228" y="174.012" width="27.7142" height="6.49118" rx="3.24559" fill="#ECEEF4"/>
<rect x="104.443" y="175.31" width="3.95918" height="3.89471" rx="1.94735" fill="#FDAED0"/>
<rect x="112.952" y="174.012" width="27.7142" height="6.49118" rx="3.24559" fill="#ECEEF4"/>
</svg>
