<svg width="177" height="182" viewBox="0 0 177 182" fill="none" xmlns="http://www.w3.org/2000/svg">
<rect x="0.235352" y="0.772522" width="73.9863" height="9.52099" rx="4.76049" fill="#ECEEF4"/>
<rect x="0.235352" y="16.9172" width="127.105" height="7.61679" rx="3.80839" fill="#ECEEF4"/>
<path d="M0.235352 45.2037L176.664 45.2038" stroke="#ECEEF4" stroke-width="0.76207"/>
<rect x="21.0205" y="176.819" width="3.79417" height="3.86968" rx="1.89708" fill="#5A78E5"/>
<rect x="31.2212" y="175.324" width="26.5592" height="6.34732" rx="3.17366" fill="#ECEEF4"/>
<rect x="70.5957" y="176.819" width="3.79417" height="3.86968" rx="1.89708" fill="#B59DF9"/>
<rect x="80.5454" y="175.324" width="26.5592" height="6.34732" rx="3.17366" fill="#ECEEF4"/>
<rect x="120.17" y="176.819" width="3.79417" height="3.86968" rx="1.89708" fill="#FDAED0"/>
<rect x="130.501" y="175.324" width="26.5592" height="6.34732" rx="3.17366" fill="#ECEEF4"/>
<rect x="0.235352" y="66.15" width="13.2796" height="5.07786" rx="2.53893" fill="#ECEEF4"/>
<rect x="0.235352" y="78.8446" width="13.2796" height="5.07786" rx="2.53893" fill="#ECEEF4"/>
<rect x="0.235352" y="91.5393" width="13.2796" height="5.07786" rx="2.53893" fill="#ECEEF4"/>
<rect x="0.235352" y="104.234" width="13.2796" height="5.07786" rx="2.53893" fill="#ECEEF4"/>
<rect x="0.235352" y="116.929" width="13.2796" height="5.07785" rx="2.53893" fill="#ECEEF4"/>
<rect x="0.235352" y="129.623" width="13.2796" height="5.07786" rx="2.53893" fill="#ECEEF4"/>
<rect x="0.235352" y="142.318" width="13.2796" height="5.07786" rx="2.53893" fill="#ECEEF4"/>
<rect x="24.2651" y="153.743" width="13.2796" height="6.34732" rx="3.17366" fill="#ECEEF4"/>
<rect x="50.1919" y="153.743" width="13.2796" height="6.34732" rx="3.17366" fill="#ECEEF4"/>
<rect x="76.1187" y="153.743" width="13.2796" height="6.34732" rx="3.17366" fill="#ECEEF4"/>
<rect x="102.045" y="153.743" width="13.2796" height="6.34732" rx="3.17366" fill="#ECEEF4"/>
<rect x="127.973" y="153.743" width="13.2796" height="6.34732" rx="3.17366" fill="#ECEEF4"/>
<rect x="153.899" y="153.743" width="13.2796" height="6.34732" rx="3.17366" fill="#ECEEF4"/>
<rect x="21.4846" y="66.5311" width="154.167" height="79.8489" stroke="#ECEEF4" stroke-width="0.76207"/>
<path d="M21.0205 92.8654H175.712" stroke="#ECEEF4" stroke-width="0.76207"/>
<path d="M21.0205 79.8052H175.712" stroke="#ECEEF4" stroke-width="0.76207"/>
<path d="M21.0205 105.926H175.712" stroke="#ECEEF4" stroke-width="0.76207"/>
<path d="M21.0205 118.986H175.712" stroke="#ECEEF4" stroke-width="0.76207"/>
<path d="M21.0205 132.046H175.712" stroke="#ECEEF4" stroke-width="0.76207"/>
<path d="M47.0435 66.2612L47.0435 147.041" stroke="#ECEEF4" stroke-width="0.76207"/>
<path d="M72.5845 66.2612L72.5845 147.041" stroke="#ECEEF4" stroke-width="0.76207"/>
<path d="M98.125 66.2612L98.125 147.041" stroke="#ECEEF4" stroke-width="0.76207"/>
<path d="M123.666 66.2612L123.666 147.041" stroke="#ECEEF4" stroke-width="0.76207"/>
<path d="M149.207 66.2612L149.207 147.041" stroke="#ECEEF4" stroke-width="0.76207"/>
<path d="M21.2612 79.8052V105.926H123.907L97.884 66.745L72.584 79.8052L47.0431 92.6235L21.2612 79.8052Z" fill="#5A78E5"/>
<path d="M148.966 119.228L123.907 105.926H175.23V146.557L148.966 119.228Z" fill="#5A78E5"/>
<ellipse cx="21.4193" cy="119.15" rx="1.5809" ry="1.58683" fill="#B59DF9"/>
<ellipse cx="47.346" cy="93.1261" rx="1.5809" ry="1.58683" fill="#B59DF9"/>
<ellipse cx="72.6405" cy="119.15" rx="1.58091" ry="1.58683" fill="#B59DF9"/>
<ellipse cx="98.5672" cy="131.845" rx="1.5809" ry="1.58683" fill="#B59DF9"/>
<ellipse cx="123.862" cy="93.1261" rx="1.58091" ry="1.58683" fill="#B59DF9"/>
<ellipse cx="149.156" cy="79.7968" rx="1.58089" ry="1.58683" fill="#B59DF9"/>
<ellipse cx="175.083" cy="93.1261" rx="1.5809" ry="1.58683" fill="#B59DF9"/>
<path d="M21.2612 119.469L47.284 93.1072L72.825 119.469L98.3659 131.804L124.148 93.1072L149.689 79.8052L174.989 93.1072" stroke="#B59DF9" stroke-width="1.52414"/>
<path d="M21.2612 105.926L47.0431 118.986L73.3069 105.926L97.884 91.4142L122.943 79.8052L149.207 92.8654L175.23 105.926" stroke="#FDAED0" stroke-width="1.52414" stroke-dasharray="3.05 3.05"/>
<ellipse cx="21.4193" cy="105.821" rx="1.5809" ry="1.58683" fill="#FDAED0"/>
<ellipse cx="47.346" cy="119.15" rx="1.5809" ry="1.58683" fill="#FDAED0"/>
<ellipse cx="72.6405" cy="105.821" rx="1.58091" ry="1.58683" fill="#FDAED0"/>
<ellipse cx="98.5672" cy="91.222" rx="1.5809" ry="1.58683" fill="#FDAED0"/>
<ellipse cx="123.862" cy="79.7968" rx="1.58091" ry="1.58683" fill="#FDAED0"/>
<ellipse cx="149.156" cy="93.1261" rx="1.58089" ry="1.58683" fill="#FDAED0"/>
<ellipse cx="175.083" cy="105.821" rx="1.5809" ry="1.58683" fill="#FDAED0"/>
</svg>
