<svg width="600" height="450" viewBox="0 0 600 450" fill="none" xmlns="http://www.w3.org/2000/svg">
<mask id="mask0_318_2959" style="mask-type:luminance" maskUnits="userSpaceOnUse" x="58" y="157" width="484" height="137">
<path d="M541.398 157H58.8984V293.8H541.398V157Z" fill="white"/>
</mask>
<g mask="url(#mask0_318_2959)">
<path d="M111.098 179.7V218.3H75.6984V179.7H58.8984V271.8H75.6984V234.5H111.098V271.8H127.998V179.7H111.098Z" fill="white"/>
</g>
<mask id="mask1_318_2959" style="mask-type:luminance" maskUnits="userSpaceOnUse" x="58" y="157" width="484" height="137">
<path d="M541.398 157H58.8984V293.8H541.398V157Z" fill="white"/>
</mask>
<g mask="url(#mask1_318_2959)">
<path d="M181.8 242C181.8 245.7 180.3 249.2 177.7 251.8C175.1 254.4 171.5 255.9 167.9 255.9C164.2 255.9 160.7 254.4 158.1 251.8C155.5 249.2 154 245.7 154 242V202.6H138V242C138 249.9 141.1 257.5 146.7 263.1C152.3 268.7 159.9 271.8 167.8 271.8C175.7 271.8 183.3 268.7 188.9 263.1C194.5 257.5 197.6 249.9 197.6 242V202.6H181.7V242H181.8Z" fill="white"/>
</g>
<mask id="mask2_318_2959" style="mask-type:luminance" maskUnits="userSpaceOnUse" x="58" y="157" width="484" height="137">
<path d="M541.398 157H58.8984V293.8H541.398V157Z" fill="white"/>
</mask>
<g mask="url(#mask2_318_2959)">
<path d="M299.998 206.6C299.998 198.5 305.398 196 311.198 196C315.898 196 322.198 199.6 326.198 204L336.698 191.7C331.498 184.6 320.898 179.8 312.198 179.8C294.898 179.8 282.398 189.9 282.398 206.7C282.398 237.9 320.498 228 320.498 245.4C320.498 250.8 315.298 255.5 309.298 255.5C299.898 255.5 296.798 250.9 292.498 246L280.898 258C288.298 267.1 297.498 271.7 308.398 271.7C324.798 271.7 338.098 261.4 338.098 245.4C338.098 210.9 299.998 221.6 299.998 206.6Z" fill="white"/>
</g>
<mask id="mask3_318_2959" style="mask-type:luminance" maskUnits="userSpaceOnUse" x="58" y="157" width="484" height="137">
<path d="M541.398 157H58.8984V293.8H541.398V157Z" fill="white"/>
</mask>
<g mask="url(#mask3_318_2959)">
<path d="M535.698 257C526.298 257 523.598 252.9 523.598 246.7V219.1H538.298V205.1H523.598V186.6L507.398 193.9V250.2C507.398 264.6 517.298 271.9 530.998 271.9C533.098 271.9 535.298 271.8 537.398 271.4L541.298 256.9C539.598 256.9 537.498 257 535.698 257Z" fill="white"/>
</g>
<mask id="mask4_318_2959" style="mask-type:luminance" maskUnits="userSpaceOnUse" x="58" y="157" width="484" height="137">
<path d="M541.398 157H58.8984V293.8H541.398V157Z" fill="white"/>
</mask>
<g mask="url(#mask4_318_2959)">
<path d="M242.499 203C234.599 203 229.099 205.3 223.699 210.5V180.2H207.699V236.4C207.699 257.4 222.899 271.8 239.999 271.8C258.999 271.8 275.599 257.1 275.599 237.4C275.699 217.9 260.399 203 242.499 203ZM242.399 255.8C238.799 255.8 235.299 254.7 232.299 252.7C229.299 250.7 226.999 247.9 225.599 244.6C224.199 241.3 223.899 237.6 224.599 234.1C225.299 230.6 226.999 227.4 229.599 224.8C232.099 222.3 235.399 220.5 238.899 219.8C242.399 219.1 246.099 219.5 249.399 220.8C252.699 222.2 255.499 224.5 257.499 227.5C259.499 230.5 260.599 234 260.599 237.6C260.599 242.4 258.699 247 255.299 250.4C251.799 253.8 247.199 255.8 242.399 255.8Z" fill="white"/>
</g>
<mask id="mask5_318_2959" style="mask-type:luminance" maskUnits="userSpaceOnUse" x="58" y="157" width="484" height="137">
<path d="M541.398 157H58.8984V293.8H541.398V157Z" fill="white"/>
</mask>
<g mask="url(#mask5_318_2959)">
<path d="M415.998 236.6C415.998 216.8 399.398 202.2 380.398 202.2C363.298 202.2 348.098 216.6 348.098 237.6V293.8H364.098V263.4C369.398 268.6 374.898 270.9 382.798 270.9C400.698 271 415.998 256.1 415.998 236.6ZM400.898 236.4C400.898 240 399.798 243.5 397.798 246.5C395.798 249.5 392.998 251.8 389.698 253.2C386.398 254.6 382.698 254.9 379.198 254.2C375.698 253.5 372.498 251.8 369.898 249.2C367.398 246.7 365.598 243.4 364.898 239.9C364.198 236.4 364.598 232.7 365.898 229.4C367.298 226.1 369.598 223.3 372.598 221.3C375.598 219.3 379.098 218.2 382.698 218.2C387.498 218.2 392.098 220.1 395.498 223.5C398.998 227 400.898 231.6 400.898 236.4Z" fill="white"/>
</g>
<mask id="mask6_318_2959" style="mask-type:luminance" maskUnits="userSpaceOnUse" x="58" y="157" width="484" height="137">
<path d="M541.398 157H58.8984V293.8H541.398V157Z" fill="white"/>
</mask>
<g mask="url(#mask6_318_2959)">
<path d="M467.598 201.4V185.3C469.698 184.3 471.498 182.7 472.798 180.8C474.098 178.8 474.698 176.5 474.698 174.2V173.8C474.698 170.5 473.398 167.4 471.098 165.1C468.798 162.8 465.598 161.5 462.398 161.5H461.998C458.698 161.5 455.598 162.8 453.298 165.1C450.998 167.4 449.698 170.6 449.698 173.8V174.2C449.698 176.5 450.398 178.8 451.598 180.8C452.898 182.8 454.698 184.3 456.798 185.3V201.4C450.698 202.3 444.998 204.9 440.198 208.7L396.198 174.4C396.498 173.3 396.698 172.1 396.698 170.9C396.698 168.1 395.898 165.5 394.398 163.2C392.898 160.9 390.698 159.1 388.198 158.1C385.698 157 382.898 156.8 380.198 157.3C377.498 157.8 374.998 159.2 373.098 161.1C371.198 163 369.798 165.5 369.298 168.2C368.798 170.9 368.998 173.7 370.098 176.2C371.098 178.7 372.898 180.9 375.198 182.5C377.498 184 380.198 184.9 382.898 184.9C385.298 184.9 387.698 184.2 389.798 183L433.198 216.7C429.298 222.6 427.298 229.5 427.398 236.6C427.498 243.7 429.698 250.5 433.798 256.3L420.598 269.5C419.498 269.2 418.398 269 417.298 269C414.998 269 412.798 269.7 410.898 270.9C408.998 272.2 407.598 273.9 406.698 276C405.798 278.1 405.598 280.4 406.098 282.6C406.498 284.8 407.598 286.9 409.198 288.5C410.798 290.1 412.798 291.2 415.098 291.6C417.298 292 419.598 291.8 421.698 291C423.798 290.1 425.598 288.7 426.798 286.8C428.098 284.9 428.698 282.7 428.698 280.4C428.698 279.3 428.498 278.2 428.198 277.1L441.198 264.1C445.498 267.4 450.398 269.6 455.698 270.7C460.998 271.8 466.398 271.6 471.598 270.3C476.798 268.9 481.598 266.4 485.698 262.9C489.798 259.4 492.998 255 495.098 250.1C497.198 245.2 498.198 239.8 497.898 234.4C497.598 229 496.098 223.8 493.498 219.1C490.898 214.4 487.198 210.4 482.798 207.3C477.998 204.2 472.998 202.2 467.598 201.4ZM462.198 254.2C458.598 254.2 455.098 253.1 452.198 251.2C449.198 249.2 446.898 246.4 445.598 243.1C444.198 239.8 443.898 236.2 444.598 232.7C445.298 229.2 446.998 226 449.498 223.5C451.998 221 455.198 219.3 458.698 218.6C462.198 217.9 465.798 218.3 469.098 219.6C472.398 221 475.198 223.3 477.198 226.2C479.198 229.2 480.198 232.7 480.198 236.2C480.198 241 478.298 245.6 474.898 249C471.598 252.3 466.998 254.2 462.198 254.2Z" fill="#EF785C"/>
</g>
</svg>
