<svg width="600" height="450" viewBox="0 0 600 450" fill="none" xmlns="http://www.w3.org/2000/svg">
<g clip-path="url(#clip0_318_2989)">
<path fill-rule="evenodd" clip-rule="evenodd" d="M527.465 259.916C529.006 259.402 529.519 258.889 529.519 257.349C529.519 255.808 528.492 254.781 526.952 254.781H523.871V262.997H525.412V259.916H525.925L528.492 262.997H530.033L527.465 259.916ZM525.925 258.889H524.385V256.835H525.925C526.952 256.835 527.979 256.835 527.979 258.376C528.492 258.889 527.465 258.889 525.925 258.889Z" fill="white"/>
<path fill-rule="evenodd" clip-rule="evenodd" d="M525.927 251.7C521.819 251.7 518.225 254.781 518.225 259.402C518.225 264.023 521.305 267.104 525.927 267.104C530.034 267.104 533.629 264.023 533.629 259.402C533.629 254.781 530.548 251.7 525.927 251.7ZM525.927 266.077C522.846 266.077 519.765 262.996 519.765 259.402C519.765 255.808 522.332 252.727 525.927 252.727C529.521 252.727 532.088 255.808 532.088 259.402C532.602 263.51 530.034 266.077 525.927 266.077ZM84.3425 184.436H66.3711V265.05H116.178V249.133H84.3425V184.436Z" fill="white"/>
<path d="M132.608 202.407C137.996 202.407 142.363 198.039 142.363 192.651C142.363 187.263 137.996 182.896 132.608 182.896C127.219 182.896 122.852 187.263 122.852 192.651C122.852 198.039 127.219 202.407 132.608 202.407Z" fill="white"/>
<path fill-rule="evenodd" clip-rule="evenodd" d="M123.879 210.109H140.823V265.051H123.879V210.109Z" fill="white"/>
<path fill-rule="evenodd" clip-rule="evenodd" d="M267.651 210.109H246.599L228.114 232.702V184.436H210.656V265.05H228.114V238.35L246.085 265.05H267.651L245.572 235.269L267.651 210.109ZM182.415 209.082C174.2 209.082 169.065 213.19 166.497 217.811H165.984V210.109H150.066V265.05H167.011V238.35C167.011 231.161 168.551 223.973 177.28 223.973C185.496 223.973 186.009 232.702 186.009 238.863V265.564H202.954V235.783C202.44 220.378 199.36 209.082 182.415 209.082Z" fill="white"/>
<path fill-rule="evenodd" clip-rule="evenodd" d="M294.353 209.082C277.409 209.082 264.059 220.379 264.059 237.837C264.059 255.295 277.409 266.591 294.353 266.591C303.082 266.591 312.325 262.997 317.459 255.808L305.65 246.566C302.569 250.673 298.975 253.241 293.326 253.241C286.651 253.241 282.03 249.133 280.49 242.971H319.513V237.323C319.513 219.865 309.757 209.082 294.353 209.082ZM281.003 231.675C281.517 226.54 285.111 221.406 293.326 221.406C299.488 221.406 303.596 226.027 303.596 231.675H281.003ZM366.753 215.758C362.645 210.623 356.483 208.055 349.295 208.055C333.891 208.055 324.648 222.433 324.648 237.323C324.648 253.754 335.431 265.564 351.348 265.564C359.051 265.564 365.212 260.943 368.293 256.835H368.806V264.537H384.211V183.922H367.266L366.753 215.758ZM354.429 251.7C346.214 251.7 341.079 245.539 341.079 237.323C341.079 229.108 346.214 222.946 354.429 222.946C362.645 222.946 367.78 228.594 367.78 237.323C367.78 246.052 363.158 251.7 354.429 251.7Z" fill="white"/>
<path fill-rule="evenodd" clip-rule="evenodd" d="M505.388 167.491H408.856C404.235 167.491 400.641 171.085 400.641 176.22V274.293C400.641 278.401 404.235 283.022 408.856 283.022H505.388C510.01 283.022 513.604 279.428 513.604 274.293V175.707C514.117 171.085 510.523 167.491 505.388 167.491ZM434.016 265.051H417.072V210.109H434.016V265.051ZM425.801 202.921C420.666 202.921 416.045 198.813 416.045 193.165C416.045 188.03 420.152 183.409 425.801 183.409C430.935 183.409 435.557 187.517 435.557 193.165C435.557 198.813 431.449 202.921 425.801 202.921ZM497.173 265.051H480.228V238.35C480.228 232.188 480.228 223.459 471.499 223.459C462.77 223.459 461.23 230.648 461.23 237.837V264.537H444.799V210.109H460.717V217.811H461.23C463.797 213.704 468.932 209.082 477.148 209.082C494.092 209.082 497.173 220.379 497.173 235.269V265.051Z" fill="white"/>
</g>
<defs>
<clipPath id="clip0_318_2989">
<rect width="467.258" height="115.017" fill="white" transform="translate(66.3711 167.491)"/>
</clipPath>
</defs>
</svg>
