<svg width="39" height="38" viewBox="0 0 39 38" fill="none" xmlns="http://www.w3.org/2000/svg">
<path d="M0.832031 19C0.832031 8.78273 9.11476 0.5 19.332 0.5C29.5493 0.5 37.832 8.78273 37.832 19C37.832 29.2173 29.5493 37.5 19.332 37.5C9.11476 37.5 0.832031 29.2173 0.832031 19Z" stroke="#1B2717" stroke-opacity="0.1"/>
<path fill-rule="evenodd" clip-rule="evenodd" d="M24.332 11.5C24.9951 11.5 25.631 11.7634 26.0998 12.2322C26.5686 12.7011 26.832 13.337 26.832 14V24C26.832 24.663 26.5686 25.2989 26.0998 25.7678C25.631 26.2366 24.9951 26.5 24.332 26.5H14.332C13.669 26.5 13.0331 26.2366 12.5643 25.7678C12.0954 25.2989 11.832 24.663 11.832 24V14C11.832 13.337 12.0954 12.7011 12.5643 12.2322C13.0331 11.7634 13.669 11.5 14.332 11.5H24.332ZM15.9987 17.3333C15.7777 17.3333 15.5657 17.4211 15.4094 17.5774C15.2532 17.7337 15.1654 17.9457 15.1654 18.1667V22.3333C15.1654 22.5543 15.2532 22.7663 15.4094 22.9226C15.5657 23.0789 15.7777 23.1667 15.9987 23.1667C16.2197 23.1667 16.4317 23.0789 16.588 22.9226C16.7442 22.7663 16.832 22.5543 16.832 22.3333V18.1667C16.832 17.9457 16.7442 17.7337 16.588 17.5774C16.4317 17.4211 16.2197 17.3333 15.9987 17.3333ZM18.4987 16.5C18.2777 16.5 18.0657 16.5878 17.9094 16.7441C17.7532 16.9004 17.6654 17.1123 17.6654 17.3333V22.3333C17.6654 22.5543 17.7532 22.7663 17.9094 22.9226C18.0657 23.0789 18.2777 23.1667 18.4987 23.1667C18.7197 23.1667 18.9317 23.0789 19.088 22.9226C19.2442 22.7663 19.332 22.5543 19.332 22.3333V19.2924C19.332 19.1043 19.3996 18.92 19.5338 18.7883C19.7214 18.6043 19.855 18.5268 20.1897 18.3808C20.4672 18.2625 21.1879 18.2892 21.4779 18.3808C21.5741 18.4052 21.6598 18.4602 21.722 18.5375C21.7654 18.5958 21.832 18.7258 21.832 19V22.3333C21.832 22.5543 21.9198 22.7663 22.0761 22.9226C22.2324 23.0789 22.4444 23.1667 22.6654 23.1667C22.8864 23.1667 23.0983 23.0789 23.2546 22.9226C23.4109 22.7663 23.4987 22.5543 23.4987 22.3333V19C23.4987 18.4417 23.357 17.945 23.062 17.5467C22.7906 17.1855 22.4107 16.9206 21.9779 16.7908C21.2262 16.555 20.3937 16.6858 19.8379 16.9242C19.6598 17.0004 19.4864 17.0872 19.3187 17.1842C19.2838 16.9922 19.1825 16.8185 19.0327 16.6935C18.8828 16.5684 18.6939 16.5 18.4987 16.5ZM15.9987 14.8333C15.7777 14.8333 15.5657 14.9211 15.4094 15.0774C15.2532 15.2337 15.1654 15.4457 15.1654 15.6667C15.1654 15.8877 15.2532 16.0996 15.4094 16.2559C15.5657 16.4122 15.7777 16.5 15.9987 16.5C16.2197 16.5 16.4317 16.4122 16.588 16.2559C16.7442 16.0996 16.832 15.8877 16.832 15.6667C16.832 15.4457 16.7442 15.2337 16.588 15.0774C16.4317 14.9211 16.2197 14.8333 15.9987 14.8333Z" fill="#282B27"/>
</svg>
