<?xml version="1.0" encoding="utf-8"?>
<!-- Generator: Adobe Illustrator 26.0.3, SVG Export Plug-In . SVG Version: 6.00 Build 0)  -->
<svg version="1.0" id="katman_1" xmlns="http://www.w3.org/2000/svg" xmlns:xlink="http://www.w3.org/1999/xlink" x="0px" y="0px"
	 viewBox="0 0 600 450" style="enable-background:new 0 0 600 450;" xml:space="preserve">
<style type="text/css">
	.st0{fill-rule:evenodd;clip-rule:evenodd;fill:#010202;}
</style>
<symbol  id="logo_linkedin" viewBox="-45.5 -11.2 91 22.4">
	<g id="Page-1_00000031913625453559223340000016251681555867319942_">
		<g id="Page-1_00000153665950798314930090000014275427671269625277_">
			<g id="linkedin_00000164479925824220526470000010522911893540319626_">
				<path id="Shape_00000025410349272490545250000018354634378141222830_" class="st0" d="M44.3,6.8c0.3-0.1,0.4-0.2,0.4-0.5
					s-0.2-0.5-0.5-0.5h-0.6v1.6h0.3V6.8H44l0.5,0.6h0.3L44.3,6.8L44.3,6.8z M44,6.6h-0.3V6.2H44c0.2,0,0.4,0,0.4,0.3
					C44.5,6.6,44.3,6.6,44,6.6L44,6.6z"/>
				<path id="Shape_00000098908747482774366360000017182898772855197335_" class="st0" d="M44,5.2c-0.8,0-1.5,0.6-1.5,1.5
					s0.6,1.5,1.5,1.5c0.8,0,1.5-0.6,1.5-1.5S44.9,5.2,44,5.2z M44,8c-0.6,0-1.2-0.6-1.2-1.3s0.5-1.3,1.2-1.3s1.2,0.6,1.2,1.3
					C45.3,7.5,44.8,8,44,8L44,8z M-42-7.9h-3.5V7.8h9.7V4.7H-42L-42-7.9L-42-7.9z"/>
				<ellipse class="st0" cx="-32.6" cy="-6.3" rx="1.9" ry="1.9"/>
				<path class="st0" d="M-34.3-2.9h3.3V7.8h-3.3L-34.3-2.9z"/>
				<path id="Shape_00000029740814111551839050000010441056980934522014_" class="st0" d="M-6.3-2.9h-4.1L-14,1.5v-9.4h-3.4V7.8h3.4
					V2.6l3.5,5.2h4.2L-10.6,2L-6.3-2.9L-6.3-2.9z M-22.9-3.1c-1.6,0-2.6,0.8-3.1,1.7h-0.1v-1.5h-3.1V7.8h3.3V2.6
					c0-1.4,0.3-2.8,2-2.8c1.6,0,1.7,1.7,1.7,2.9v5.2h3.3V2.1C-19-0.9-19.6-3.1-22.9-3.1L-22.9-3.1z"/>
				<path id="Shape_00000011748836420316296410000000976361021673628862_" class="st0" d="M-1.1-3.1C-4.4-3.1-7-0.9-7,2.5
					s2.6,5.6,5.9,5.6c1.7,0,3.5-0.7,4.5-2.1L1.1,4.2C0.5,5-0.2,5.5-1.3,5.5c-1.3,0-2.2-0.8-2.5-2h7.6V2.4C3.8-1,1.9-3.1-1.1-3.1
					L-1.1-3.1z M-3.7,1.3c0.1-1,0.8-2,2.4-2c1.2,0,2,0.9,2,2H-3.7L-3.7,1.3z M13-1.8c-0.8-1-2-1.5-3.4-1.5c-3,0-4.8,2.8-4.8,5.7
					c0,3.2,2.1,5.5,5.2,5.5c1.5,0,2.7-0.9,3.3-1.7h0.1v1.5h3V-8h-3.3L13-1.8L13-1.8z M10.6,5.2C9,5.2,8,4,8,2.4s1-2.8,2.6-2.8
					s2.6,1.1,2.6,2.8S12.3,5.2,10.6,5.2z"/>
				<path class="st0" d="M40-11.2H21.2c-0.9,0-1.6,0.7-1.6,1.7V9.6c0,0.8,0.7,1.7,1.6,1.7H40c0.9,0,1.6-0.7,1.6-1.7V-9.6
					C41.7-10.5,41-11.2,40-11.2z M26.1,7.8h-3.3V-2.9h3.3V7.8z M24.5-4.3c-1,0-1.9-0.8-1.9-1.9c0-1,0.8-1.9,1.9-1.9
					c1,0,1.9,0.8,1.9,1.9S25.6-4.3,24.5-4.3z M38.4,7.8h-3.3V2.6c0-1.2,0-2.9-1.7-2.9c-1.7,0-2,1.4-2,2.8v5.2h-3.2V-2.9h3.1v1.5h0.1
					c0.5-0.8,1.5-1.7,3.1-1.7c3.3,0,3.9,2.2,3.9,5.1L38.4,7.8L38.4,7.8z"/>
			</g>
		</g>
	</g>
</symbol>
<use xlink:href="#logo_linkedin"  width="91" height="22.4" x="-45.5" y="-11.2" transform="matrix(5.1347 0 0 5.1347 300 225)" style="overflow:visible;"/>
</svg>
