<svg width="35" height="35" viewBox="0 0 35 35" fill="none" xmlns="http://www.w3.org/2000/svg">
<path d="M17.2 34.4C26.6993 34.4 34.4 26.6993 34.4 17.2C34.4 7.7007 26.6993 0 17.2 0C7.7007 0 0 7.7007 0 17.2C0 26.6993 7.7007 34.4 17.2 34.4Z" fill="url(#paint0_radial_2114_29838)"/>
<path d="M17.0317 8.01458L19.133 13.4428L20.884 17.9079L23.423 24.3868L23.9483 24.6494C24.4737 24.9121 25.1741 25.0872 25.7869 24.8245C26.5749 24.5619 27.1002 23.6864 27.1002 22.8984C27.1002 22.1104 27.1002 22.3731 27.0127 22.198L26.5749 21.41L21.4969 8.27723V8.10213C20.884 6.8764 19.5707 6.26354 18.345 6.78885C18.0824 6.8764 17.8197 7.0515 17.5571 7.31416C17.3819 7.48926 17.2944 7.75192 17.0317 8.01458Z" fill="white"/>
<path d="M16.5938 8.97772L18.7825 14.3184L19.1328 13.4429L17.0315 8.01465L16.5938 8.97772Z" fill="white"/>
<path d="M14.4053 13.968L17.9074 16.1568L18.7829 14.3182L16.5941 8.97754L14.4053 13.968Z" fill="white"/>
<path d="M10.2905 14.2307C9.85275 15.1062 10.203 16.332 11.0785 16.8573L12.4793 17.7328L16.0689 20.0091L23.4233 24.4743L20.8843 17.9955L17.9075 16.1569L14.3179 13.8805L13.2673 13.2677C12.1291 12.5672 10.7283 13.0925 10.203 14.1432L10.2905 14.2307Z" fill="#F7F5F5"/>
<path d="M10.7279 26.4004C11.8661 27.0133 13.1793 26.5755 13.7047 25.5249L16.2437 20.0091L12.654 17.7328L9.93993 23.5988C9.50217 24.7369 9.85237 25.8751 10.7279 26.3129V26.4004Z" fill="white"/>
<path d="M8.01369 15.0187C9.12583 15.0187 10.0274 14.1172 10.0274 13.005C10.0274 11.8929 9.12583 10.9913 8.01369 10.9913C6.90156 10.9913 6 11.8929 6 13.005C6 14.1172 6.90156 15.0187 8.01369 15.0187Z" fill="#F7F5F5"/>
<defs>
<radialGradient id="paint0_radial_2114_29838" cx="0" cy="0" r="1" gradientUnits="userSpaceOnUse" gradientTransform="translate(22.8 25.8) scale(23.7 23.7)">
<stop offset="0.4" stop-color="#4269F5"/>
<stop offset="1" stop-color="#6398F6"/>
</radialGradient>
</defs>
</svg>
