<svg width="110" height="35" viewBox="0 0 110 35" fill="none" xmlns="http://www.w3.org/2000/svg">
<g clip-path="url(#clip0_2094_29896)">
<path d="M49.6 9.10005C48.6 9.10005 47.8 9.90005 47.8 10.9C47.8 9.90005 47 9.10005 46 9.10005C47 9.10005 47.8 8.30005 47.8 7.30005C47.8 8.30005 48.7 9.10005 49.6 9.10005Z" fill="#0A2C4E"/>
<path d="M46.3999 12.4C46.3999 12.2 46.3999 12 46.5999 12C46.5999 12 46.7999 12 47.0999 12H48.8999C49.0999 12 49.2999 12 49.3999 12C49.4999 12 49.5999 12.2 49.5999 12.4V24.5C49.5999 24.7 49.5999 24.9 49.3999 24.9C49.3999 24.9 49.1999 24.9 48.8999 24.9H47.0999C46.8999 24.9 46.6999 24.9 46.5999 24.9C46.4999 24.9 46.3999 24.7 46.3999 24.5V12.4Z" fill="#0A2C4E"/>
<path d="M61.8 21.6001H55.4L54.3 24.6001C54.3 24.8001 54.1 25.0001 54.1 25.0001C54.1 25.0001 53.9 25.0001 53.7 25.0001H51.9C51.7 25.0001 51.6 25.0001 51.5 25.0001C51.4 25.0001 51.5 24.8001 51.5 24.5001L56.7 11.1001C56.7 10.9001 56.9 10.7001 56.9 10.7001C56.9 10.7001 57.1 10.7001 57.3 10.7001H60C60.2 10.7001 60.3 10.7001 60.4 10.7001C60.5 10.7001 60.6 10.9001 60.6 11.1001L65.8 24.4001C65.8 24.6001 65.8 24.8001 65.8 24.9001C65.8 25.0001 65.6 24.9001 65.4 24.9001H63.6C63.4 24.9001 63.3 24.9001 63.1 24.9001C63.1 24.9001 62.9 24.7001 62.9 24.6001L61.9 21.6001H61.8ZM56.2 19.5001H60.9L58.5 13.2001L56.2 19.5001Z" fill="#0A2C4E"/>
<path d="M65.6001 12.9001C65.4001 12.9001 65.2001 12.9001 65.1001 12.9001C65.0001 12.9001 65.1001 12.7001 65.1001 12.4001V11.3001C65.1001 11.1001 65.1001 10.9001 65.1001 10.8001C65.1001 10.7001 65.3001 10.8001 65.6001 10.8001H76.6001C76.8001 10.8001 77.0001 10.8001 77.1001 10.8001C77.2001 10.8001 77.1001 11.0001 77.1001 11.3001V12.4001C77.1001 12.6001 77.1001 12.8001 77.1001 12.9001C77.1001 13.0001 76.9001 12.9001 76.6001 12.9001H72.6001V24.5001C72.6001 24.7001 72.6001 24.9001 72.4001 25.0001C72.2001 25.1001 72.2001 25.0001 71.9001 25.0001H70.1001C69.9001 25.0001 69.7001 25.0001 69.6001 25.0001C69.5001 25.0001 69.4001 24.8001 69.4001 24.5001V12.9001H65.5001H65.6001Z" fill="#0A2C4E"/>
<path d="M79.5 11.2001C79.5 11.0001 79.5 10.8001 79.7 10.7001C79.9 10.6001 79.9 10.7001 80.2 10.7001H82C82.2 10.7001 82.4 10.7001 82.5 10.7001C82.6 10.7001 82.7 10.9001 82.7 11.2001V24.5001C82.7 24.7001 82.7 24.9001 82.5 25.0001C82.3 25.1001 82.3 25.0001 82 25.0001H80.2C80 25.0001 79.8 25.0001 79.7 25.0001C79.6 25.0001 79.5 24.8001 79.5 24.5001V11.2001Z" fill="#0A2C4E"/>
<path d="M93.5002 17.1C93.7002 17.1 93.9002 17.1 94.0002 17.1C94.1002 17.1 94.0002 17.3 94.0002 17.6V18.7C94.0002 18.9 94.0002 19.1 94.0002 19.2C94.0002 19.2 93.8002 19.2 93.5002 19.2H88.9002V24.3C88.9002 24.5 88.9002 24.7 88.7002 24.8C88.5002 24.9 88.5002 24.8 88.2002 24.8H86.4002C86.2002 24.8 86.0002 24.8 85.9002 24.8C85.8002 24.8 85.7002 24.6 85.7002 24.3V11C85.7002 10.8 85.7002 10.6 85.9002 10.5C86.1002 10.4 86.1002 10.5 86.4002 10.5H95.0002C95.2002 10.5 95.4002 10.5 95.5002 10.5C95.6002 10.5 95.5002 10.7 95.5002 11V12.1C95.5002 12.3 95.5002 12.5 95.5002 12.6C95.5002 12.7 95.3002 12.6 95.0002 12.6H88.8002V16.8H93.4002L93.5002 17.1Z" fill="#0A2C4E"/>
<path d="M96.8001 11.4C96.6001 11.2 96.6001 10.9 96.6001 10.8C96.6001 10.8 96.8001 10.6 97.0001 10.6H99.2001C99.4001 10.6 99.5001 10.6 99.6001 10.6C99.7001 10.6 99.8001 10.8 99.8001 10.9L103.3 16.8L106.9 10.9C106.9 10.7 107.1 10.7 107.1 10.6C107.1 10.6 107.3 10.6 107.5 10.6H109.7C109.9 10.6 110 10.6 110.1 10.8C110.2 11 110.1 11.1 109.9 11.4L104.8 19.6V24.6C104.8 24.8 104.8 25 104.8 25.1C104.8 25.2 104.6 25.1 104.3 25.1H102.5C102.3 25.1 102.1 25.1 102 25.1C101.9 25.1 101.8 24.9 101.8 24.6V19.6L96.7001 11.4H96.8001Z" fill="#0A2C4E"/>
<path d="M17.2 34.8C26.6993 34.8 34.4 27.0993 34.4 17.6C34.4 8.10073 26.6993 0.400024 17.2 0.400024C7.7007 0.400024 0 8.10073 0 17.6C0 27.0993 7.7007 34.8 17.2 34.8Z" fill="url(#paint0_radial_2094_29896)"/>
<path d="M17.0317 8.4146L19.133 13.8428L20.884 18.308L23.423 24.7868L23.9483 25.0495C24.4737 25.3121 25.1741 25.4872 25.7869 25.2246C26.5749 24.9619 27.1002 24.0864 27.1002 23.2984C27.1002 22.5105 27.1002 22.7731 27.0127 22.598L26.5749 21.81L21.4969 8.67726V8.50215C20.884 7.27642 19.5707 6.66356 18.345 7.18887C18.0824 7.27642 17.8197 7.45153 17.5571 7.71418C17.3819 7.88929 17.2944 8.15194 17.0317 8.4146Z" fill="white"/>
<path d="M16.5938 9.37762L18.7825 14.7183L19.1328 13.8428L17.0315 8.41455L16.5938 9.37762Z" fill="white"/>
<path d="M14.4053 14.3681L17.9074 16.5569L18.7829 14.7184L16.5941 9.37769L14.4053 14.3681Z" fill="white"/>
<path d="M10.2905 14.6309C9.85275 15.5064 10.203 16.7321 11.0785 17.2574L12.4793 18.1329L16.0689 20.4093L23.4233 24.8744L20.8843 18.3956L17.9075 16.557L14.3179 14.2807L13.2673 13.6678C12.1291 12.9674 10.7283 13.4927 10.203 14.5433L10.2905 14.6309Z" fill="#F7F5F5"/>
<path d="M10.7279 26.8005C11.8661 27.4133 13.1793 26.9756 13.7047 25.9249L16.2437 20.4092L12.654 18.1328L9.93993 23.9988C9.50217 25.137 9.85237 26.2751 10.7279 26.7129V26.8005Z" fill="white"/>
<path d="M8.01369 15.4187C9.12583 15.4187 10.0274 14.5172 10.0274 13.4051C10.0274 12.2929 9.12583 11.3914 8.01369 11.3914C6.90156 11.3914 6 12.2929 6 13.4051C6 14.5172 6.90156 15.4187 8.01369 15.4187Z" fill="#F7F5F5"/>
</g>
<defs>
<radialGradient id="paint0_radial_2094_29896" cx="0" cy="0" r="1" gradientUnits="userSpaceOnUse" gradientTransform="translate(22.8 26.2) scale(23.7 23.7)">
<stop offset="0.4" stop-color="#4269F5"/>
<stop offset="1" stop-color="#6398F6"/>
</radialGradient>
<clipPath id="clip0_2094_29896">
<rect width="110" height="35" fill="white"/>
</clipPath>
</defs>
</svg>
