<svg width="600" height="400" viewBox="0 0 600 400" fill="none" xmlns="http://www.w3.org/2000/svg">
<path d="M246.801 249.8V150.7H265.001V249.8H246.801ZM421.201 182.4H438.601V190.6C442.301 184 450.901 180.5 458.301 180.5C467.501 180.5 474.901 184.5 478.301 191.7C483.601 183.5 490.801 180.5 499.701 180.5C512.101 180.5 524.001 188 524.001 206.1V249.8H506.401V209.8C506.401 202.6 502.801 197.1 494.501 197.1C486.701 197.1 482.101 203.1 482.101 210.4V249.8H464.101V209.8C464.101 202.6 460.401 197.1 452.201 197.1C444.301 197.1 439.601 203 439.601 210.4V249.8H421.401V182.4H421.201ZM306.101 251.8C285.601 251.8 270.801 236.6 270.801 216.2C270.801 196.1 285.601 180.5 306.101 180.5C326.801 180.5 341.401 196.2 341.401 216.2C341.401 236.4 326.601 251.8 306.101 251.8ZM306.101 197C295.501 197 286.901 205.6 286.901 216.2C286.901 226.8 295.501 235.4 306.101 235.4C316.701 235.4 325.201 226.8 325.301 216.2C325.201 205.5 316.701 197 306.101 197ZM380.301 251.8C359.801 251.8 345.001 236.6 345.001 216.2C345.001 196.1 359.801 180.5 380.301 180.5C401.001 180.5 415.601 196.2 415.601 216.2C415.601 236.4 400.701 251.8 380.301 251.8ZM380.301 196.7C369.601 196.7 360.901 205.4 360.901 216.1C360.901 226.8 369.601 235.5 380.301 235.5C391.001 235.5 399.701 226.8 399.701 216.1C399.601 205.4 391.001 196.7 380.301 196.7Z" fill="white"/>
<path d="M142 221.4C130.4 221.4 121.1 212 121.1 200.5C121.1 189 130.5 179.6 142 179.6C153.5 179.6 162.9 189 162.9 200.5C162.9 212 153.6 221.4 142 221.4ZM215.5 192.8H170.7L209.5 170.4L201.8 157.1L163 179.5L185.4 140.7L172.1 133L149.7 171.8V127H134.3V171.8L111.9 133L98.6 140.7L121 179.5L82.2 157.1L74.5 170.4L113.3 192.8H68.5V208.2H113.3L74.5 230.6L82.2 243.9L121 221.5L98.6 260.3L111.9 268L134.3 229.2V274H149.7V228.3L172.5 267.8L185 260.6L162.2 221L201.8 243.9L209.5 230.6L170.7 208.2H215.5V192.8Z" fill="#5259A4"/>
</svg>
