<svg width="512" height="512" viewBox="0 0 512 512" fill="none" xmlns="http://www.w3.org/2000/svg">
<path d="M114.397 252.6C115.297 252.5 116.197 252.5 116.997 252.6C117.497 251.5 117.497 249.7 117.097 247.8C116.497 244.9 115.697 243.1 113.897 243.4C112.197 243.7 112.097 245.8 112.697 248.7C113.097 250.3 113.697 251.7 114.397 252.6Z" fill="white"/>
<path d="M99.6999 254.9C100.9 255.4 101.7 255.8 102 255.5C102.2 255.3 102.1 254.9 101.8 254.5C101.2 253.5 99.9999 252.5 98.5999 251.9C95.8999 250.7 92.6999 251.1 90.1999 252.9C89.3999 253.5 88.5999 254.3 88.6999 254.8C88.6999 255 88.8999 255.1 89.0999 255.1C89.7999 255.2 92.0999 254 94.8999 253.8C96.8999 253.8 98.4999 254.4 99.6999 254.9Z" fill="white"/>
<path d="M97.1984 256.3C95.5984 256.6 94.6984 257.1 94.1984 257.6C93.6984 258 93.3984 258.5 93.3984 258.8L93.4984 259.1L93.7984 259.2C94.1984 259.2 94.9984 258.9 94.9984 258.9C97.1984 258.1 98.6984 258.2 100.098 258.4C100.898 258.5 101.298 258.5 101.498 258.3C101.598 258.2 101.598 258.1 101.498 257.8C100.998 257.1 99.3984 256.1 97.1984 256.3Z" fill="white"/>
<path d="M97.8998 258.5C98.3998 257.5 98.3998 255 97.9998 253C97.3998 250.1 96.4998 248.4 94.7998 248.7C93.0998 249 92.9998 251.3 93.5998 254.3C93.8998 256.2 94.6998 257.4 95.0998 258.1C96.2998 260 97.2998 259.5 97.8998 258.5Z" fill="white"/>
<path d="M109.397 261.5C110.497 262 111.697 261.8 112.097 261C112.497 260.2 111.897 259.1 110.797 258.6C109.697 258.1 108.497 258.3 108.097 259.1C107.797 259.9 108.297 261 109.397 261.5Z" fill="white"/>
<path d="M116.397 255.4C115.497 255.4 114.797 256.4 114.797 257.6C114.797 258.8 115.497 259.8 116.397 259.8C117.297 259.8 117.997 258.8 117.997 257.6C117.897 256.4 117.297 255.4 116.397 255.4Z" fill="white"/>
<path d="M57.2988 277.2C57.0988 276.9 56.6988 277 56.3988 277.1C56.1988 277.2 55.8988 277.2 55.5988 277.2C54.9988 277.2 54.3988 276.9 54.0988 276.4C53.6988 275.8 53.6988 274.9 54.1988 273.8L54.3988 273.3C55.0988 271.7 56.2988 269.1 54.9988 266.5C53.9988 264.6 52.3988 263.4 50.3988 263.2C48.4988 263 46.5988 263.7 45.3988 265C43.4988 267.1 43.1988 270.1 43.4988 271.1C43.5988 271.5 43.8988 271.6 43.9988 271.6C44.2988 271.6 44.7988 271.4 45.0988 270.6L45.1988 270.3C45.2988 269.9 45.5988 269.1 45.9988 268.4C46.4988 267.6 47.2988 267.1 48.1988 266.9C49.0988 266.7 50.0988 266.9 50.8988 267.4C52.2988 268.3 52.7988 270 52.1988 271.6C51.8988 272.4 51.3988 274 51.4988 275.3C51.6988 277.9 53.2988 279 54.7988 279.1C56.1988 279.2 57.1988 278.4 57.3988 277.8C57.4988 277.5 57.3988 277.3 57.2988 277.2Z" fill="white"/>
<path d="M138.598 272.4C138.498 272.2 138.198 270.9 137.698 269.4L136.698 266.8C138.598 263.9 138.698 261.3 138.398 259.9C138.098 258.1 137.398 256.5 135.898 255C134.398 253.4 131.298 251.8 126.898 250.5L124.598 249.9C124.598 249.8 124.498 244.5 124.398 242.2C124.298 240.6 124.198 238 123.398 235.5C122.398 232.1 120.798 229.1 118.698 227.2C124.398 221.3 127.998 214.8 127.998 209.2C127.998 198.5 114.798 195.2 98.4984 201.9L95.0984 203.4C95.0984 203.4 88.8984 197.3 88.7984 197.2C70.2984 181 12.2984 245.5 30.7984 261.1L34.7984 264.5C33.6984 267.2 33.2984 270.3 33.6984 273.7C34.0984 278 36.3984 282.1 39.9984 285.3C43.3984 288.3 47.8984 290.2 52.2984 290.2C59.4984 306.8 75.9984 317 95.2984 317.6C115.998 318.2 133.398 308.5 140.698 291C141.198 289.8 143.198 284.3 143.198 279.4C143.098 274.4 140.298 272.4 138.598 272.4ZM53.7984 285.5C53.1984 285.6 52.4984 285.7 51.8984 285.6C45.5984 285.4 38.8984 279.8 38.1984 273.1C37.4984 265.7 41.1984 260 47.8984 258.7C48.6984 258.5 49.6984 258.4 50.6984 258.5C54.3984 258.7 59.9984 261.6 61.1984 269.7C62.2984 276.9 60.5984 284.3 53.7984 285.5ZM46.7984 254.3C42.5984 255.1 38.9984 257.5 36.6984 260.7C35.3984 259.6 32.8984 257.4 32.3984 256.6C28.7984 249.8 36.2984 236.6 41.4984 229.1C54.3984 210.7 74.6984 196.7 83.9984 199.2C85.4984 199.6 90.5984 205.5 90.5984 205.5C90.5984 205.5 81.1984 210.7 72.4984 217.9C60.8984 227 52.0984 240.1 46.7984 254.3ZM112.498 282.7C112.598 282.6 112.698 282.5 112.698 282.3C112.698 282.1 112.498 282 112.298 282C112.298 282 102.498 283.5 93.1984 280.1C94.1984 276.8 96.8984 278 100.898 278.3C108.198 278.7 114.798 277.7 119.598 276.3C123.798 275.1 129.298 272.7 133.598 269.3C134.998 272.5 135.598 276 135.598 276C135.598 276 136.698 275.8 137.698 276.4C138.598 276.9 139.198 278.1 138.798 281C137.898 286.5 135.598 290.9 131.698 294.9C129.298 297.5 126.498 299.7 123.198 301.3C121.498 302.2 119.598 303 117.598 303.7C102.898 308.5 87.8984 303.2 82.9984 291.9C82.5984 291 82.2984 290.2 81.9984 289.2C79.8984 281.7 81.6984 272.8 87.1984 267.2C87.4984 266.8 87.8984 266.4 87.8984 265.9C87.8984 265.5 87.5984 265 87.3984 264.7C85.4984 261.9 78.7984 257.2 80.1984 248C81.1984 241.4 86.8984 236.8 92.2984 237.1L93.6984 237.2C95.9984 237.3 98.0984 237.6 99.9984 237.7C103.198 237.8 106.098 237.4 109.498 234.5C110.698 233.5 111.598 232.7 113.098 232.4C113.298 232.4 113.698 232.2 114.498 232.3C115.298 232.3 116.098 232.6 116.798 233C119.498 234.8 119.898 239.2 120.098 242.5C120.198 244.3 120.398 248.8 120.498 250.1C120.698 253 121.398 253.4 122.998 254C123.898 254.3 124.698 254.5 125.898 254.8C129.498 255.8 131.698 256.9 132.998 258.2C133.798 259 134.198 259.9 134.298 260.8C134.698 263.9 131.898 267.8 124.298 271.3C116.098 275.1 106.098 276.1 99.1984 275.3L96.7984 275C91.2984 274.3 88.0984 281.4 91.3984 286.3C93.4984 289.5 99.3984 291.5 105.198 291.5C118.598 291.5 128.798 285.8 132.598 280.9L132.898 280.5C133.098 280.2 132.898 280.1 132.698 280.2C129.598 282.3 115.698 290.8 100.898 288.3C100.898 288.3 99.0984 288 97.4984 287.4C96.1984 286.9 93.4984 285.6 93.0984 282.8C104.998 286.2 112.498 282.7 112.498 282.7ZM70.6984 229C75.2984 223.7 80.8984 219.1 85.9984 216.5C86.1984 216.4 86.3984 216.6 86.2984 216.8C85.8984 217.5 85.0984 219.1 84.8984 220.3C84.8984 220.5 85.0984 220.6 85.1984 220.5C88.3984 218.4 93.7984 216 98.5984 215.8C98.7984 215.8 98.8984 216.1 98.6984 216.2C97.9984 216.8 97.1984 217.5 96.5984 218.3C96.4984 218.4 96.5984 218.6 96.7984 218.6C100.198 218.6 104.898 219.8 107.998 221.5C108.198 221.6 108.098 222 107.798 222C103.098 220.9 95.3984 220.1 87.3984 222.1C80.2984 223.8 74.7984 226.5 70.8984 229.4C70.7984 229.5 70.4984 229.2 70.6984 229Z" fill="white"/>
<path d="M470.2 241.5C463.3 241.5 460.2 246.6 458.8 249.6C457.9 251.5 457.9 252.1 457.3 252.1C456.3 252.1 457.1 250.5 457.6 248.7C458.4 245.1 457.8 242.3 457.8 242.3H448V289.3H461.4V274.4C463 277.1 465.9 279.9 470.4 279.9C480.1 279.9 484.9 271.7 484.9 260.7C484.9 248.2 479 241.5 470.2 241.5ZM466.5 271.3C463.4 271.3 461.2 267.4 461.2 262C461.2 256.7 463.5 252.7 466.4 252.7C470.1 252.7 471.7 256.1 471.7 262C471.7 268.1 470.2 271.3 466.5 271.3Z" fill="white"/>
<path d="M204.6 241.5C198.7 241.5 195.8 246.1 194.5 249.1C193.8 250.8 193.5 252.1 192.9 252.1C192 252.1 192.7 251 192 248.4C191.1 245.1 188.3 241.5 182.4 241.5C176.2 241.5 173.6 246.7 172.3 249.6C171.4 251.6 171.4 252.1 170.8 252.1C169.8 252.1 170.6 250.5 171.1 248.7C171.9 245.1 171.3 242.3 171.3 242.3H161.5V279.1H174.9V260.8C174.9 257.2 176.4 252.6 179 252.6C182 252.6 182.6 254.9 182.6 259.2V279.2H196V260.9C196 257.7 197.3 252.7 200.1 252.7C203.1 252.7 203.7 255.9 203.7 259.3V279.3H216.9V257.7C216.9 247.9 213.5 241.5 204.6 241.5ZM431.4 241.5C425.5 241.5 422.6 246.1 421.3 249.1C420.6 250.8 420.3 252.1 419.7 252.1C418.8 252.1 419.4 250.6 418.8 248.4C417.8 245.1 415.4 241.5 409.2 241.5C403 241.5 400.4 246.7 399.1 249.6C398.2 251.6 398.2 252.1 397.6 252.1C396.6 252.1 397.4 250.5 397.9 248.7C398.7 245.1 398.1 242.3 398.1 242.3H388.3V279.1H401.7V260.8C401.7 257.2 403.2 252.6 405.8 252.6C408.8 252.6 409.4 254.9 409.4 259.2V279.2H422.8V260.9C422.8 257.7 424.1 252.7 426.9 252.7C429.9 252.7 430.5 255.9 430.5 259.3V279.3H443.7V257.7C443.6 247.9 440.3 241.5 431.4 241.5ZM239.7 241.5C229.5 241.5 222.1 245.3 222.1 245.3V256.4C222.1 256.4 230.2 251.7 236.8 251.7C242.1 251.7 242.7 254.5 242.5 256.9C242.5 256.9 241 256.5 236.4 256.5C225.5 256.5 220 261.4 220 269.4C220 276.9 226.2 280.1 231.4 280.1C239 280.1 242.3 275 243.4 272.6C244.1 270.9 244.2 269.8 244.9 269.8C245.6 269.8 245.4 270.6 245.3 272.3C245.2 275.2 245.4 277.4 245.8 279.3H255.9V261.2C255.8 249.7 251.8 241.5 239.7 241.5ZM236.4 270.6C233.2 271.3 231.6 270.4 231.6 268.2C231.6 265.3 234.6 264.1 238.9 264.1C240.8 264.1 242.6 264.3 242.6 264.3C242.5 265.5 239.8 269.8 236.4 270.6ZM277.8 231.2H291.2V279.2H277.8V231.2ZM305.9 260.8C305.9 257.5 309 254.5 314.6 254.5C320.7 254.5 325.7 257.5 326.8 258.1V245.3C326.8 245.3 322.9 241.5 313.3 241.5C303.2 241.5 294.7 247.4 294.7 260.2C294.7 273 302.4 280 313.2 280C321.7 280 326.8 275.3 326.8 275.3V263.1C325.2 264 320.7 267.1 314.6 267.1C308.2 267.2 305.9 264.2 305.9 260.8ZM353.9 241.5C346.2 241.5 343.2 248.8 342.6 250.1C342 251.4 341.7 252.1 341.2 252.1C340.4 252.1 340.9 250.5 341.3 249.5C341.9 247.6 343.2 242.7 343.2 236.6C343.2 232.5 342.6 231.1 342.6 231.1H331.1V279.1H344.5V260.8C344.5 257.8 345.7 252.6 349.1 252.6C351.9 252.6 352.8 254.7 352.8 258.8V279.1H366.2V259.6C366.1 250.2 364.5 241.5 353.9 241.5ZM370.4 242.4V279.2H383.8V242.4C383.8 242.4 381.6 243.7 377.1 243.7C372.7 243.7 370.4 242.4 370.4 242.4Z" fill="white"/>
<path d="M377.098 241.5C381.627 241.5 385.298 239.127 385.298 236.2C385.298 233.273 381.627 230.9 377.098 230.9C372.57 230.9 368.898 233.273 368.898 236.2C368.898 239.127 372.57 241.5 377.098 241.5Z" fill="white"/>
<path d="M260.102 242.4V279.2H273.502V242.4C273.502 242.4 271.302 243.7 266.802 243.7L260.102 242.4Z" fill="white"/>
<path d="M266.802 241.5C271.33 241.5 275.002 239.127 275.002 236.2C275.002 233.273 271.33 230.9 266.802 230.9C262.273 230.9 258.602 233.273 258.602 236.2C258.602 239.127 262.273 241.5 266.802 241.5Z" fill="white"/>
</svg>
