<svg width="596" height="448" viewBox="0 0 596 448" fill="none" xmlns="http://www.w3.org/2000/svg">
<path d="M57.1484 197.34V221.73H81.5384H105.928V197.34V172.95H81.5284H57.1484V197.34Z" fill="white"/>
<path d="M111.057 173.21C110.907 173.32 110.797 184.32 110.797 197.6V221.72H135.187H159.577V197.33V172.94H135.457C122.167 172.95 111.167 173.06 111.057 173.21Z" fill="white"/>
<path d="M502.48 189.46C498.54 190.32 494.38 193.25 492.61 196.48C491.07 199.33 490.47 202.26 490.47 206.8V210.8L486.83 210.91L483.15 211.02L483.04 215.22L482.93 219.46H486.72H490.47V237.28V255.1H495.72H500.97V237.28V219.46H508.66H516.35V230.8C516.39 244.34 516.65 246.89 518.3 250.23C519.69 252.93 521.86 254.73 524.72 255.52C527.12 256.16 532.34 256.05 535.04 255.29L537.37 254.61V250.41V246.21L535.23 246.92C531.78 248.08 529.08 247.37 527.73 244.86C527.13 243.81 527.05 242.27 526.94 231.54L526.83 219.46H532.08H537.37V215.15V210.84H532.12H526.87V204.42V198L525.86 198.26C525.26 198.37 522.9 199.09 520.61 199.8L516.37 201.11V206.06V211.01L508.64 210.9L500.91 210.79L501.02 206.4C501.17 201.6 501.66 200.21 503.68 198.71C505.07 197.7 508.29 197.43 510.51 198.18L512.24 198.78V194.32C512.24 190.53 512.16 189.86 511.6 189.67C510.47 189.23 504.2 189.12 502.48 189.46Z" fill="white"/>
<path d="M268.898 193.17C266.948 194.37 266.008 196.02 266.008 198.31C266.008 201.99 268.788 204.35 272.798 204.01C276.208 203.71 278.318 201.53 278.318 198.27C278.318 196.02 277.568 194.71 275.508 193.28C273.888 192.2 270.578 192.12 268.898 193.17Z" fill="white"/>
<path d="M190.328 224.35V255.11H195.388H200.448L200.368 231.47C200.288 218.45 200.368 207.83 200.478 207.83C200.588 207.83 204.938 218.48 210.198 231.47L219.728 255.14L223.478 255.03L227.228 254.92L236.498 231.55C241.598 218.68 245.878 208.06 245.988 207.95C246.098 207.8 246.218 218.38 246.218 231.4V255.11H251.468H256.718V224.35V193.59H249.498H242.258L233.668 214.67C228.938 226.3 224.738 236.54 224.368 237.44L223.618 239.13L220.358 230.88C218.558 226.38 214.508 216.14 211.358 208.11L205.618 193.59H197.968H190.348V224.35H190.328Z" fill="white"/>
<path d="M301.76 210.65C294.14 212.38 288.18 217.82 285.63 225.47C284.47 228.85 284.17 236.24 285.03 239.88C286.38 245.55 290.47 251.02 295.2 253.5C301.05 256.54 309.79 256.84 316.28 254.29L318.46 253.43L318.65 248.63C318.76 246 318.8 243.87 318.76 243.87C318.72 243.87 317.6 244.47 316.25 245.18C309.98 248.67 302.97 248.07 298.88 243.75C295.8 240.52 294.6 235.87 295.39 230.39C296.14 225.18 299.14 221.12 303.49 219.51C307.58 217.97 313.39 218.68 317.15 221.24C317.86 221.69 318.54 222.1 318.65 222.1C318.76 222.1 318.8 219.85 318.73 217.07L318.62 212.04L316.11 211.21C312.83 210.13 305.44 209.83 301.76 210.65Z" fill="white"/>
<path d="M346.41 210.5C342.73 211.03 339.84 213.16 338.01 216.73L337.07 218.53L337.03 214.67V210.81L331.89 210.92L326.71 211.03L326.6 233.05L326.52 255.11H331.73H336.98L337.09 241.49L337.2 227.91L338.25 225.66C339.9 222.17 341.81 220.41 344.67 219.88C346.58 219.54 349.7 219.96 351.35 220.82L352.4 221.38V216.32C352.4 212.68 352.25 211.18 351.95 210.96C351.17 210.5 348.21 210.24 346.41 210.5Z" fill="white"/>
<path d="M369.7 210.65C361.56 212.49 355.78 218.19 353.72 226.41C352.86 229.82 352.82 236.69 353.68 240.25C355.44 247.72 361.07 253.38 368.61 255.37C371.84 256.2 378.4 256.2 381.85 255.29C388.57 253.6 394.01 248.87 396.33 242.8C397.68 239.09 398.28 235.07 398.02 230.91C397.64 224.12 395.84 219.73 392.02 215.87C389.62 213.51 387.89 212.42 384.29 211.14C381.52 210.13 373.19 209.87 369.7 210.65ZM380.73 219.62C383.24 220.75 385.49 223.37 386.4 226.11C386.96 227.84 387.11 229.37 387.11 233.35C387.07 237.74 386.96 238.71 386.21 240.59C385.12 243.37 383.55 245.13 381.15 246.37C379.5 247.23 378.75 247.35 375.86 247.35C372.15 247.35 370.12 246.71 367.87 244.84C364.34 241.8 362.73 234.56 364.23 228.18C365.28 223.83 367.23 221.2 370.61 219.63C373.27 218.35 378.07 218.35 380.73 219.62Z" fill="white"/>
<path d="M414.047 210.65C409.617 211.89 405.677 215 404.147 218.45C402.907 221.26 402.907 226.37 404.187 229.03C405.727 232.18 407.447 233.53 414.087 236.72C417.427 238.33 420.467 240.02 420.837 240.43C421.817 241.52 422.077 244.33 421.287 245.53C419.147 248.79 411.197 248.46 405.227 244.82L403.047 243.51V248.57V253.6L404.397 254.16C408.557 255.89 416.587 256.45 420.977 255.32C425.817 254.08 429.377 251.46 431.177 247.78C431.927 246.2 432.077 245.34 432.077 242.34C432.077 239.41 431.967 238.51 431.287 237.24C429.407 233.68 427.007 231.88 420.257 228.84C415.307 226.66 413.957 225.5 413.657 223.25C412.947 218.11 420.707 216.61 428.287 220.44L430.087 221.38L429.977 216.58L429.867 211.82L427.617 211.11C424.547 210.13 416.787 209.87 414.047 210.65Z" fill="white"/>
<path d="M453.139 210.8C447.849 212.11 443.239 215.3 440.529 219.5C436.629 225.62 435.769 235.59 438.499 242.99C441.879 252.03 451.439 257.21 462.289 255.86C468.479 255.11 471.859 253.57 475.649 249.71C480.229 245.1 481.989 240.33 481.989 232.6C481.989 225.06 480.229 220.11 476.099 215.94C473.319 213.2 470.919 211.85 466.979 210.84C463.269 209.87 456.889 209.87 453.139 210.8ZM465.189 219.73C467.289 220.86 469.239 223.11 470.249 225.7C470.959 227.58 471.109 228.63 471.109 232.79C471.149 240.48 469.569 244.08 465.179 246.3C463.189 247.28 462.549 247.39 459.739 247.39C455.689 247.35 453.169 246.38 451.069 243.98C448.629 241.17 447.919 238.84 447.879 233.36C447.879 225.86 449.569 222.18 454.149 219.85C456.399 218.72 456.659 218.69 460.079 218.8C462.779 218.91 464.019 219.13 465.189 219.73Z" fill="white"/>
<path d="M266.869 232.98V255.12H272.119H277.369L277.289 233.06L277.179 211.04L272.039 210.93L266.859 210.82V232.98H266.869Z" fill="white"/>
<path d="M57.1484 251.36V275.75H81.5384H105.928V251.36V226.97H81.5284H57.1484V251.36Z" fill="white"/>
<path d="M110.867 251.25L110.977 275.56L135.287 275.67L159.557 275.75V251.36V226.97H135.167H110.797L110.867 251.25Z" fill="white"/>
</svg>
