<svg width="32" height="32" viewBox="0 0 32 32" fill="none" xmlns="http://www.w3.org/2000/svg">
<path fill-rule="evenodd" clip-rule="evenodd" d="M14.3332 3.99984C14.3332 3.81612 14.4828 3.6665 14.6665 3.6665H17.3332C17.5169 3.6665 17.6665 3.81612 17.6665 3.99984V5.33317V6.6665C17.6665 6.85022 17.5169 6.99984 17.3332 6.99984H14.6665C14.4828 6.99984 14.3332 6.85022 14.3332 6.6665V5.33457L14.3332 5.33317L14.3332 5.33177V3.99984ZM19.6665 3.99984V4.33317H23.9998C26.0255 4.33317 27.6665 5.97422 27.6665 7.99984V12.3332H27.9998C29.2881 12.3332 30.3332 13.3782 30.3332 14.6665V17.3332C30.3332 18.6215 29.2881 19.6665 27.9998 19.6665H27.6665V23.9998C27.6665 26.0255 26.0255 27.6665 23.9998 27.6665H19.6665V27.9998C19.6665 29.2881 18.6215 30.3332 17.3332 30.3332H14.6665C13.3782 30.3332 12.3332 29.2881 12.3332 27.9998V27.6665H7.99984C5.97422 27.6665 4.33317 26.0255 4.33317 23.9998V19.6665H3.99984C2.71155 19.6665 1.6665 18.6215 1.6665 17.3332V14.6665C1.6665 13.3782 2.71155 12.3332 3.99984 12.3332H4.33317V7.99984C4.33317 5.97422 5.97422 4.33317 7.99984 4.33317H12.3332V3.99984C12.3332 2.71155 13.3782 1.6665 14.6665 1.6665H17.3332C18.6215 1.6665 19.6665 2.71155 19.6665 3.99984ZM6.33317 19.6665V23.9998C6.33317 24.9209 7.07879 25.6665 7.99984 25.6665H12.3332V25.3332C12.3332 24.0449 13.3782 22.9998 14.6665 22.9998H17.3332C18.6215 22.9998 19.6665 24.0449 19.6665 25.3332V25.6665H23.9998C24.9209 25.6665 25.6665 24.9209 25.6665 23.9998V19.6665H25.3332C24.0449 19.6665 22.9998 18.6215 22.9998 17.3332V14.6665C22.9998 13.3782 24.0449 12.3332 25.3332 12.3332H25.6665V7.99984C25.6665 7.07879 24.9209 6.33317 23.9998 6.33317H19.6665V6.6665C19.6665 7.95479 18.6215 8.99984 17.3332 8.99984H14.6665C13.3782 8.99984 12.3332 7.95479 12.3332 6.6665V6.33317H7.99984C7.07879 6.33317 6.33317 7.07879 6.33317 7.99984V12.3332H6.6665C7.95479 12.3332 8.99984 13.3782 8.99984 14.6665V17.3332C8.99984 18.6215 7.95479 19.6665 6.6665 19.6665H6.33317ZM5.33317 17.6665H3.99984C3.81612 17.6665 3.6665 17.5169 3.6665 17.3332V14.6665C3.6665 14.4828 3.81612 14.3332 3.99984 14.3332H5.33177L5.33317 14.3332L5.33457 14.3332H6.6665C6.85022 14.3332 6.99984 14.4828 6.99984 14.6665V17.3332C6.99984 17.5169 6.85022 17.6665 6.6665 17.6665H5.33317ZM14.3332 27.9998V26.6679L14.3332 26.6665L14.3332 26.6651V25.3332C14.3332 25.1495 14.4828 24.9998 14.6665 24.9998H17.3332C17.5169 24.9998 17.6665 25.1495 17.6665 25.3332V26.6665V27.9998C17.6665 28.1836 17.5169 28.3332 17.3332 28.3332H14.6665C14.4828 28.3332 14.3332 28.1836 14.3332 27.9998ZM26.6665 17.6665H27.9998C28.1836 17.6665 28.3332 17.5169 28.3332 17.3332V14.6665C28.3332 14.4828 28.1836 14.3332 27.9998 14.3332H26.6679L26.6665 14.3332L26.6651 14.3332H25.3332C25.1495 14.3332 24.9998 14.4828 24.9998 14.6665V17.3332C24.9998 17.5169 25.1495 17.6665 25.3332 17.6665H26.6665ZM17.2665 11.9998C17.2665 12.6337 16.7545 13.1678 16.0998 13.1678C15.4556 13.1678 14.9332 12.6454 14.9332 12.0012C14.9332 11.0527 15.7118 10.84 16.0853 10.8346C16.7437 10.8251 17.2665 11.3584 17.2665 11.9998ZM16.0998 17.1678C16.7545 17.1678 17.2665 16.6337 17.2665 15.9998C17.2665 15.3584 16.7437 14.8251 16.0853 14.8346C15.7118 14.84 14.9332 15.0527 14.9332 16.0012C14.9332 16.6454 15.4556 17.1678 16.0998 17.1678ZM17.2665 19.9998C17.2665 20.6337 16.7545 21.1678 16.0998 21.1678C15.4556 21.1678 14.9332 20.6454 14.9332 20.0012C14.9332 19.0527 15.7118 18.84 16.0853 18.8346C16.7437 18.8251 17.2665 19.3584 17.2665 19.9998ZM19.7733 17.1678C20.4279 17.1678 20.9399 16.6337 20.9399 15.9998C20.9399 15.3584 20.4172 14.8251 19.7588 14.8346C19.3852 14.84 18.6066 15.0527 18.6066 16.0012C18.6066 16.6454 19.129 17.1678 19.7733 17.1678ZM13.1332 15.9998C13.1332 16.6337 12.6211 17.1678 11.9665 17.1678C11.3222 17.1678 10.7998 16.6454 10.7998 16.0012C10.7998 15.0527 11.5784 14.84 11.952 14.8346C12.6104 14.8251 13.1332 15.3584 13.1332 15.9998Z" fill="#343844"/>
</svg>
