<svg width="32" height="32" viewBox="0 0 32 32" fill="none" xmlns="http://www.w3.org/2000/svg">
<path fill-rule="evenodd" clip-rule="evenodd" d="M21.8477 4.85764C22.3212 4.57349 22.4748 3.95923 22.1907 3.48565C21.9065 3.01207 21.2923 2.85851 20.8187 3.14266L15.1508 6.54339C14.3354 7.03264 13.6764 7.74427 13.2511 8.59481L14.1365 9.03746L13.2511 8.59481L12.861 9.37506C12.5139 10.0693 12.3332 10.8349 12.3332 11.6111V12.3335H8.6665C5.90508 12.3335 3.6665 14.5721 3.6665 17.3335V19.3335C3.6665 19.8858 4.11422 20.3335 4.6665 20.3335C5.21879 20.3335 5.6665 19.8858 5.6665 19.3335V17.3335C5.6665 15.6766 7.00965 14.3335 8.6665 14.3335H18.9192L16.3731 16.8806L16.3731 16.8806C15.1261 18.1281 15.1263 20.1503 16.3736 21.3976C17.4504 22.4744 19.1376 22.6413 20.4046 21.7965L22.9998 20.0658V24.0002C22.9998 25.6571 21.6567 27.0002 19.9998 27.0002H12.6665C12.1142 27.0002 11.6665 27.4479 11.6665 28.0002C11.6665 28.5525 12.1142 29.0002 12.6665 29.0002H19.9998C22.7613 29.0002 24.9998 26.7616 24.9998 24.0002V18.732L26.4338 17.7758C27.527 17.0468 28.3663 15.9958 28.8356 14.7685L30.2674 11.0239C30.4646 10.508 30.2063 9.92996 29.6904 9.73272C29.1746 9.53548 28.5965 9.79377 28.3993 10.3096L26.9675 14.0542C26.6464 14.894 26.0721 15.613 25.3241 16.1118L23.4577 17.3565L23.4509 17.361L23.4338 17.3724L19.295 20.1325C18.8212 20.4484 18.1904 20.386 17.7878 19.9834C17.3215 19.517 17.3214 18.761 17.7876 18.2945L20.7072 15.3737C20.8947 15.1862 21 14.9319 21 14.6668V12.0001C21 11.4478 20.5523 11.0001 20 11.0001C19.4477 11.0001 19 11.4478 19 12.0001V12.3335H14.3332V11.6111C14.3332 11.1454 14.4416 10.686 14.6499 10.2695L15.04 9.48923C15.2952 8.97891 15.6906 8.55193 16.1798 8.25838L21.8477 4.85764ZM4.33317 28.0002C4.33317 27.4479 4.78089 27.0002 5.33317 27.0002H7.99984C8.55212 27.0002 8.99984 27.4479 8.99984 28.0002C8.99984 28.5524 8.55212 29.0002 7.99984 29.0002H5.33317C4.78089 29.0002 4.33317 28.5524 4.33317 28.0002ZM2.6665 23.0002C2.11422 23.0002 1.6665 23.4479 1.6665 24.0002C1.6665 24.5524 2.11422 25.0002 2.6665 25.0002H7.99984C8.55212 25.0002 8.99984 24.5524 8.99984 24.0002C8.99984 23.4479 8.55212 23.0002 7.99984 23.0002H2.6665Z" fill="#343844"/>
</svg>
