<svg width="32" height="32" viewBox="0 0 32 32" fill="none" xmlns="http://www.w3.org/2000/svg">
<path fill-rule="evenodd" clip-rule="evenodd" d="M5.33333 1.6665C4.04467 1.6665 3 2.71117 3 3.99984V7.99984C3 9.2885 4.04467 10.3332 5.33333 10.3332H6.33333V17.6665H5.33333C4.04467 17.6665 3 18.7112 3 19.9998V23.9998C3 25.2885 4.04467 26.3332 5.33333 26.3332H9.33333C10.622 26.3332 11.6667 25.2885 11.6667 23.9998V22.9998H13.3333C13.8856 22.9998 14.3333 22.5521 14.3333 21.9998C14.3333 21.4476 13.8856 20.9998 13.3333 20.9998H11.6667V19.9998C11.6667 18.7112 10.622 17.6665 9.33333 17.6665H8.33333V10.3332H9.33333C10.622 10.3332 11.6667 9.2885 11.6667 7.99984V6.99984H19V7.99984C19 9.2885 20.0447 10.3332 21.3333 10.3332H22.3333V11.9998C22.3333 12.5521 22.781 12.9998 23.3333 12.9998C23.8856 12.9998 24.3333 12.5521 24.3333 11.9998V10.3332H25.3333C26.622 10.3332 27.6667 9.2885 27.6667 7.99984V3.99984C27.6667 2.71117 26.622 1.6665 25.3333 1.6665H21.3333C20.0447 1.6665 19 2.71117 19 3.99984V4.99984H11.6667V3.99984C11.6667 2.71117 10.622 1.6665 9.33333 1.6665H5.33333ZM23.3333 8.33317L25.3333 8.33317C25.5174 8.33317 25.6667 8.18393 25.6667 7.99984V3.99984C25.6667 3.81574 25.5174 3.6665 25.3333 3.6665H21.3333C21.1492 3.6665 21 3.81574 21 3.99984V5.99984V7.99984C21 8.18393 21.1492 8.33317 21.3333 8.33317L23.3333 8.33317ZM9.66667 19.9998V21.9998V23.9998C9.66667 24.1839 9.51743 24.3332 9.33333 24.3332H5.33333C5.14924 24.3332 5 24.1839 5 23.9998V19.9998C5 19.8157 5.14924 19.6665 5.33333 19.6665H7.33333H9.33333C9.51743 19.6665 9.66667 19.8157 9.66667 19.9998ZM9.66667 3.99984V5.99984V7.99984C9.66667 8.18393 9.51743 8.33317 9.33333 8.33317L7.33333 8.33317L5.33333 8.33317C5.14924 8.33317 5 8.18393 5 7.99984V3.99984C5 3.81574 5.14924 3.6665 5.33333 3.6665H9.33333C9.51743 3.6665 9.66667 3.81574 9.66667 3.99984ZM21.3333 22.6665C20.781 22.6665 20.3333 23.1142 20.3333 23.6665C20.3333 24.2188 20.781 24.6665 21.3333 24.6665H24C24.5523 24.6665 25 24.2188 25 23.6665C25 23.1142 24.5523 22.6665 24 22.6665H21.3333ZM20.3333 20.3332C20.3333 19.7809 20.781 19.3332 21.3333 19.3332H24C24.5523 19.3332 25 19.7809 25 20.3332C25 20.8855 24.5523 21.3332 24 21.3332H21.3333C20.781 21.3332 20.3333 20.8855 20.3333 20.3332ZM20 14.9998C17.975 14.9998 16.3333 16.6415 16.3333 18.6665V25.3332C16.3333 27.3582 17.975 28.9998 20 28.9998H25.3333C27.3584 28.9998 29 27.3582 29 25.3332V18.6665C29 16.6415 27.3584 14.9998 25.3333 14.9998H20ZM18.3333 18.6665C18.3333 17.746 19.0795 16.9998 20 16.9998H25.3333C26.2538 16.9998 27 17.746 27 18.6665V25.3332C27 26.2536 26.2538 26.9998 25.3333 26.9998H20C19.0795 26.9998 18.3333 26.2536 18.3333 25.3332V18.6665Z" fill="#343844"/>
</svg>
