<svg width="32" height="32" viewBox="0 0 32 32" fill="none" xmlns="http://www.w3.org/2000/svg">
<path fill-rule="evenodd" clip-rule="evenodd" d="M3.6665 6.66667C3.6665 5.74619 4.4127 5 5.33317 5H13.3332C14.2536 5 14.9998 5.74619 14.9998 6.66667V10.6667C14.9998 11.219 15.4476 11.6667 15.9998 11.6667C16.5521 11.6667 16.9998 11.219 16.9998 10.6667V6.66667C16.9998 4.64162 15.3582 3 13.3332 3H5.33317C3.30813 3 1.6665 4.64162 1.6665 6.66667V25.3333C1.6665 27.3584 3.30813 29 5.33317 29H13.3332C15.3582 29 16.9998 27.3584 16.9998 25.3333V21.3333C16.9998 20.781 16.5521 20.3333 15.9998 20.3333C15.4476 20.3333 14.9998 20.781 14.9998 21.3333V25.3333C14.9998 26.2538 14.2536 27 13.3332 27H5.33317C4.4127 27 3.6665 26.2538 3.6665 25.3333V6.66667ZM5.6665 9.33333C5.6665 8.04467 6.71117 7 7.99984 7H10.6665C11.9552 7 12.9998 8.04467 12.9998 9.33333V12V16V18.6667C12.9998 19.9553 11.9552 21 10.6665 21H7.99984C6.71117 21 5.6665 19.9553 5.6665 18.6667V16V12V9.33333ZM10.9998 9.33333V11H7.6665V9.33333C7.6665 9.14924 7.81574 9 7.99984 9H10.6665C10.8506 9 10.9998 9.14924 10.9998 9.33333ZM10.9998 13H7.6665V15H10.9998V13ZM7.6665 17V18.6667C7.6665 18.8508 7.81574 19 7.99984 19H10.6665C10.8506 19 10.9998 18.8508 10.9998 18.6667V17H7.6665ZM25.6665 9.33333C25.6665 8.04467 26.7112 7 27.9998 7H29.3332C29.8855 7 30.3332 7.44772 30.3332 8C30.3332 8.55228 29.8855 9 29.3332 9H27.9998C27.8157 9 27.6665 9.14924 27.6665 9.33333V11H29.3332C29.8855 11 30.3332 11.4477 30.3332 12C30.3332 12.5523 29.8855 13 29.3332 13H27.6665V15H29.3332C29.8855 15 30.3332 15.4477 30.3332 16C30.3332 16.5523 29.8855 17 29.3332 17H27.6665V18.6667C27.6665 18.8508 27.8157 19 27.9998 19H29.3332C29.8855 19 30.3332 19.4477 30.3332 20C30.3332 20.5523 29.8855 21 29.3332 21H27.9998C26.7112 21 25.6665 19.9553 25.6665 18.6667V16V12V9.33333ZM28.2994 23.2862C28.6899 22.8957 29.3231 22.8957 29.7136 23.2862L29.7203 23.2929C30.1108 23.6834 30.1108 24.3166 29.7203 24.7071L29.7136 24.7138C29.3231 25.1043 28.6899 25.1043 28.2994 24.7138L28.2927 24.7071C27.9022 24.3166 27.9022 23.6834 28.2927 23.2929L28.2994 23.2862ZM9.71361 23.2862C9.32309 22.8957 8.68992 22.8957 8.2994 23.2862L8.29273 23.2929C7.90221 23.6834 7.90221 24.3166 8.29273 24.7071L8.2994 24.7138C8.68992 25.1043 9.32309 25.1043 9.71361 24.7138L9.72028 24.7071C10.1108 24.3166 10.1108 23.6834 9.72028 23.2929L9.71361 23.2862ZM14.9998 16C14.9998 15.4477 15.4476 15 15.9998 15H20.2523L19.2927 14.0404C18.9022 13.6499 18.9022 13.0168 19.2927 12.6262C19.6833 12.2357 20.3164 12.2357 20.7069 12.6262L23.3736 15.2929C23.7641 15.6834 23.7641 16.3166 23.3736 16.7071L20.7069 19.3738C20.3164 19.7643 19.6833 19.7643 19.2927 19.3738C18.9022 18.9832 18.9022 18.3501 19.2927 17.9596L20.2523 17H15.9998C15.4476 17 14.9998 16.5523 14.9998 16ZM25.3332 5C24.4127 5 23.6665 5.74619 23.6665 6.66667V9.33333C23.6665 9.88562 23.2188 10.3333 22.6665 10.3333C22.1142 10.3333 21.6665 9.88562 21.6665 9.33333V6.66667C21.6665 4.64162 23.3081 3 25.3332 3H29.3332C29.8855 3 30.3332 3.44772 30.3332 4C30.3332 4.55228 29.8855 5 29.3332 5H25.3332ZM23.6665 22.6667C23.6665 22.1144 23.2188 21.6667 22.6665 21.6667C22.1142 21.6667 21.6665 22.1144 21.6665 22.6667V25.3333C21.6665 27.3584 23.3081 29 25.3332 29H29.3332C29.8855 29 30.3332 28.5523 30.3332 28C30.3332 27.4477 29.8855 27 29.3332 27H25.3332C24.4127 27 23.6665 26.2538 23.6665 25.3333V22.6667Z" fill="#343844"/>
</svg>
