<svg width="32" height="32" viewBox="0 0 32 32" fill="none" xmlns="http://www.w3.org/2000/svg">
<path fill-rule="evenodd" clip-rule="evenodd" d="M15.6665 5.33317C15.6665 4.4127 16.4127 3.6665 17.3332 3.6665H26.6665C27.587 3.6665 28.3332 4.4127 28.3332 5.33317V14.6665C28.3332 15.587 27.587 16.3332 26.6665 16.3332H21.3332C20.7809 16.3332 20.3332 16.7809 20.3332 17.3332C20.3332 17.8855 20.7809 18.3332 21.3332 18.3332H26.6665C28.6915 18.3332 30.3332 16.6915 30.3332 14.6665V5.33317C30.3332 3.30813 28.6915 1.6665 26.6665 1.6665H17.3332C15.3081 1.6665 13.6665 3.30813 13.6665 5.33317V11.9998C13.6665 12.5521 14.1142 12.9998 14.6665 12.9998C15.2188 12.9998 15.6665 12.5521 15.6665 11.9998V5.33317ZM9.37361 3.9594C8.98309 3.56887 8.34992 3.56887 7.9594 3.9594C7.56887 4.34992 7.56887 4.98309 7.9594 5.37361L8.25229 5.6665H6.6665C4.64146 5.6665 2.99984 7.30813 2.99984 9.33317V10.6665C2.99984 11.2188 3.44755 11.6665 3.99984 11.6665C4.55212 11.6665 4.99984 11.2188 4.99984 10.6665V9.33317C4.99984 8.4127 5.74603 7.6665 6.6665 7.6665H8.25229L7.9594 7.9594C7.56887 8.34992 7.56887 8.98309 7.9594 9.37361C8.34992 9.76414 8.98309 9.76414 9.37361 9.37361L11.3736 7.37361C11.4695 7.27773 11.5418 7.16723 11.5906 7.04929C11.6395 6.93138 11.6665 6.80209 11.6665 6.6665C11.6665 6.53091 11.6395 6.40163 11.5906 6.28372C11.5418 6.16578 11.4695 6.05527 11.3736 5.9594L9.37361 3.9594ZM27.9998 20.3332C28.5521 20.3332 28.9998 20.7809 28.9998 21.3332V22.6665C28.9998 24.6915 27.3582 26.3332 25.3332 26.3332H23.7474L24.0403 26.6261C24.4308 27.0166 24.4308 27.6498 24.0403 28.0403C23.6498 28.4308 23.0166 28.4308 22.6261 28.0403L20.6261 26.0403C20.5302 25.9444 20.4579 25.8339 20.409 25.716C20.3602 25.598 20.3332 25.4688 20.3332 25.3332C20.3332 25.3159 20.3336 25.2988 20.3345 25.2817C20.3404 25.1649 20.3664 25.0533 20.409 24.9504C20.4579 24.8324 20.5302 24.7219 20.6261 24.6261L22.6261 22.6261C23.0166 22.2355 23.6498 22.2355 24.0403 22.6261C24.4308 23.0166 24.4308 23.6498 24.0403 24.0403L23.7474 24.3332H25.3332C26.2536 24.3332 26.9998 23.587 26.9998 22.6665V21.3332C26.9998 20.7809 27.4476 20.3332 27.9998 20.3332ZM5.6665 14.9998C3.45736 14.9998 1.6665 16.7907 1.6665 18.9998V20.6665V24.9998C1.6665 27.209 3.45736 28.9998 5.6665 28.9998H14.3332C16.5423 28.9998 18.3332 27.209 18.3332 24.9998V20.6665V18.9998C18.3332 16.7907 16.5423 14.9998 14.3332 14.9998H5.6665ZM3.6665 24.9998V21.6665H16.3332V24.9998C16.3332 26.1044 15.4377 26.9998 14.3332 26.9998H5.6665C4.56193 26.9998 3.6665 26.1044 3.6665 24.9998ZM3.6665 19.6665H16.3332V18.9998C16.3332 17.8953 15.4377 16.9998 14.3332 16.9998H5.6665C4.56193 16.9998 3.6665 17.8953 3.6665 18.9998V19.6665ZM17.6665 7.99984C17.6665 7.44755 18.1142 6.99984 18.6665 6.99984H25.3332C25.8855 6.99984 26.3332 7.44755 26.3332 7.99984C26.3332 8.55212 25.8855 8.99984 25.3332 8.99984H18.6665C18.1142 8.99984 17.6665 8.55212 17.6665 7.99984ZM22.6665 10.9998C22.1142 10.9998 21.6665 11.4476 21.6665 11.9998C21.6665 12.5521 22.1142 12.9998 22.6665 12.9998H25.3332C25.8855 12.9998 26.3332 12.5521 26.3332 11.9998C26.3332 11.4476 25.8855 10.9998 25.3332 10.9998H22.6665Z" fill="#343844"/>
</svg>
