<svg width="32" height="32" viewBox="0 0 32 32" fill="none" xmlns="http://www.w3.org/2000/svg">
<path fill-rule="evenodd" clip-rule="evenodd" d="M9.33317 5C8.4127 5 7.6665 5.74619 7.6665 6.66667V12C7.6665 12.5523 7.21879 13 6.6665 13C6.11422 13 5.6665 12.5523 5.6665 12V6.66667C5.6665 4.64162 7.30813 3 9.33317 3H25.3332C27.3582 3 28.9998 4.64162 28.9998 6.66667V24C28.9998 26.025 27.3582 27.6667 25.3332 27.6667H19.9998C19.4476 27.6667 18.9998 27.219 18.9998 26.6667C18.9998 26.1144 19.4476 25.6667 19.9998 25.6667H25.3332C26.2536 25.6667 26.9998 24.9205 26.9998 24V6.66667C26.9998 5.74619 26.2536 5 25.3332 5H9.33317ZM18.9998 9.33333C18.9998 8.78105 19.4476 8.33333 19.9998 8.33333H22.6663H22.6665C23.2188 8.33333 23.6665 8.78105 23.6665 9.33333V12C23.6665 12.5523 23.2188 13 22.6665 13C22.1142 13 21.6665 12.5523 21.6665 12V11.7483L19.3758 14.0402C19.1876 14.2285 18.943 14.3261 18.6964 14.3329C18.4673 14.3399 18.2348 14.2686 18.0418 14.1142L15.4074 12.0067L14.0403 13.3738C13.6498 13.7643 13.0166 13.7643 12.6261 13.3738C12.2355 12.9832 12.2355 12.3501 12.6261 11.9596L14.6209 9.96474C14.8142 9.76813 15.0735 9.6664 15.3349 9.66667C15.4546 9.66679 15.5749 9.68833 15.6893 9.73198C15.7883 9.76961 15.8824 9.82349 15.9676 9.89362L18.5932 11.9941L20.253 10.3333H19.9998C19.4476 10.3333 18.9998 9.88562 18.9998 9.33333ZM18.9998 17.3333C18.9998 16.781 19.4476 16.3333 19.9998 16.3333H22.6665C23.2188 16.3333 23.6665 16.781 23.6665 17.3333C23.6665 17.8856 23.2188 18.3333 22.6665 18.3333H19.9998C19.4476 18.3333 18.9998 17.8856 18.9998 17.3333ZM19.9998 20.3333C19.4476 20.3333 18.9998 20.781 18.9998 21.3333C18.9998 21.8856 19.4476 22.3333 19.9998 22.3333H22.6665C23.2188 22.3333 23.6665 21.8856 23.6665 21.3333C23.6665 20.781 23.2188 20.3333 22.6665 20.3333H19.9998ZM12.1303 20.9149C12.5209 21.3054 12.5211 21.9385 12.1307 22.3292L9.46545 24.9958C9.07508 25.3864 8.44201 25.3866 8.05136 24.9963L6.44994 23.3963C6.05925 23.006 6.05897 22.3728 6.44932 21.9821C6.83967 21.5914 7.47284 21.5911 7.86353 21.9815L8.75765 22.8748L10.7161 20.9153C11.1065 20.5247 11.7397 20.5245 12.1303 20.9149ZM6.6665 15C3.90508 15 1.6665 17.2386 1.6665 20V25.3333C1.6665 28.0948 3.90508 30.3333 6.6665 30.3333H11.9998C14.7613 30.3333 16.9998 28.0948 16.9998 25.3333V20C16.9998 17.2386 14.7613 15 11.9998 15H6.6665ZM3.6665 20C3.6665 18.3431 5.00965 17 6.6665 17H11.9998C13.6567 17 14.9998 18.3431 14.9998 20V25.3333C14.9998 26.9902 13.6567 28.3333 11.9998 28.3333H6.6665C5.00965 28.3333 3.6665 26.9902 3.6665 25.3333V20Z" fill="#343844"/>
</svg>
