<svg width="600" height="450" viewBox="0 0 600 450" fill="none" xmlns="http://www.w3.org/2000/svg">
<path d="M111.102 181.6C94.6016 181.6 81.1016 195.1 81.1016 211.6V266.9C81.1016 268.7 83.3016 269.6 84.4016 268.3L100.702 252H121.402C137.902 252 151.402 238.5 151.402 222V181.6H111.102Z" fill="#68B65A"/>
<path d="M100.801 252H85.8008L95.2008 257.6L100.801 252Z" fill="#12A750"/>
<path d="M151.502 181.6H111.102V222L151.502 181.6Z" fill="#40AD57"/>
<path d="M111.102 181.6C94.6016 181.6 81.1016 195.1 81.1016 211.6V252L111.102 222V181.6Z" fill="#12A750"/>
<path d="M151.502 181.6L111.102 222H151.502V181.6Z" fill="#81BE62"/>
<path d="M188.198 239C187.198 238.4 186.398 237.3 186.398 235.9C186.398 233.8 187.898 232.3 189.998 232.3C190.598 232.3 191.298 232.4 191.798 232.8C194.898 234.7 197.998 235.6 200.498 235.6C203.198 235.6 204.298 234.7 204.298 233.2V233.1C204.298 231.2 201.198 230.4 197.598 229.4C193.098 228.1 187.998 225.9 187.998 219.8V219.7C187.998 213.2 193.298 209.4 199.798 209.4C203.098 209.4 206.598 210.3 209.798 211.8C211.098 212.4 211.998 213.7 211.998 215.3C211.998 217.4 210.298 218.9 208.298 218.9C207.698 218.9 207.298 218.8 206.598 218.5C203.998 217.2 201.598 216.4 199.698 216.4C197.498 216.4 196.398 217.4 196.398 218.6V218.7C196.398 220.5 199.498 221.4 202.898 222.5C207.398 224 212.598 226.2 212.598 232V232.1C212.598 239.3 207.198 242.5 200.298 242.5C196.398 242.7 192.098 241.6 188.198 239ZM241.398 226.1C241.398 220.6 237.798 217.1 233.598 217.1C229.398 217.1 225.798 220.7 225.798 226V226.1C225.798 231.5 229.398 235 233.598 235C237.798 235.1 241.398 231.5 241.398 226.1ZM216.798 214.1C216.798 211.5 218.898 209.5 221.398 209.5C223.898 209.5 225.998 211.6 225.998 214.1V214.5C228.198 211.5 231.298 209.2 235.998 209.2C243.598 209.2 250.598 215.1 250.598 225.9V226C250.598 236.8 243.498 242.7 235.998 242.7C231.098 242.7 228.198 240.5 225.998 238V247.6C225.998 250.2 223.898 252.2 221.398 252.2C218.898 252.2 216.798 250.1 216.798 247.6V214.1ZM302.598 226.2C302.598 221.3 299.098 217.2 294.098 217.2C288.798 217.2 285.798 221.2 285.798 225.9V226C285.798 230.7 289.298 234.9 294.298 234.9C299.398 235.1 302.598 230.9 302.598 226.2ZM276.698 226.2C276.698 216.8 284.098 209.3 294.098 209.3C304.098 209.3 311.398 216.7 311.398 226V226.1C311.398 235.3 303.998 242.9 293.998 242.9C284.098 242.9 276.698 235.4 276.698 226.2ZM345.098 238C345.098 240.6 342.998 242.6 340.498 242.6C337.998 242.6 335.898 240.5 335.898 238V237.6C333.798 240.3 331.198 242.7 326.398 242.7C319.498 242.7 315.498 238.1 315.498 230.8V214.1C315.498 211.5 317.598 209.5 320.098 209.5C322.598 209.5 324.698 211.6 324.698 214.1V227.8C324.698 232.2 326.798 234.3 330.198 234.3C333.598 234.3 335.998 232.1 335.998 227.8V214.1C335.998 211.5 338.098 209.5 340.598 209.5C343.098 209.5 345.198 211.6 345.198 214.1V238C345.298 238 345.098 238 345.098 238ZM349.798 233V205.9C349.798 203.3 351.898 201.3 354.398 201.3C356.898 201.3 358.998 203.4 358.998 205.9V209.9H362.998C365.198 209.9 366.798 211.7 366.798 213.7C366.798 215.9 364.998 217.5 362.998 217.5H358.998V231.2C358.998 233.3 359.898 234.3 361.998 234.3H362.998C365.098 234.3 366.798 236 366.798 238.1C366.798 239.8 365.798 241.1 364.498 241.6C362.798 242.2 361.298 242.5 359.198 242.5C353.598 242.7 349.798 240.4 349.798 233ZM385.798 242.7C381.298 242.7 376.398 240.9 372.998 238.1L375.298 234.8C378.598 237.4 382.398 238.8 386.098 238.8C389.798 238.8 392.498 236.9 392.498 233.9V233.8C392.498 230.7 388.798 229.4 384.798 228.3C379.898 226.9 374.498 225.2 374.498 219.6V219.5C374.498 214.1 378.998 210.6 384.998 210.6C388.798 210.6 392.998 211.9 396.198 214.1L394.098 217.6C391.298 215.7 387.898 214.6 384.898 214.6C381.198 214.6 378.898 216.5 378.898 219.1V219.2C378.898 222.2 382.698 223.3 386.898 224.6C391.598 226 396.898 227.9 396.898 233.5V233.6C396.798 239.3 391.998 242.7 385.798 242.7ZM416.698 214.5C409.898 214.5 405.298 219.9 405.298 226.6C405.298 233.4 410.198 238.8 416.698 238.8C423.398 238.8 428.098 233.4 428.098 226.7C428.098 219.9 423.298 214.5 416.698 214.5ZM416.698 242.9C407.298 242.9 400.498 235.6 400.498 226.7C400.498 217.8 407.298 210.4 416.798 210.4C426.198 210.4 432.998 217.7 432.998 226.6C432.998 235.4 426.098 242.9 416.698 242.9ZM452.198 242.9C443.098 242.9 436.298 235.5 436.298 226.7C436.298 217.8 443.098 210.4 452.198 210.4C458.098 210.4 461.798 212.8 464.598 215.9L461.498 219.1C459.098 216.5 456.198 214.4 451.998 214.4C445.698 214.4 440.798 219.8 440.798 226.5C440.798 233.3 445.698 238.7 452.198 238.7C456.198 238.7 459.298 236.8 461.698 234.1L464.698 236.9C461.898 240.3 458.098 242.9 452.198 242.9ZM470.098 242.1V211.1H474.698V242.1H470.098ZM469.698 204.3V199.2H474.998V204.3H469.698ZM484.698 232.9C484.698 236.9 488.298 239.2 492.498 239.2C498.298 239.2 502.898 235.7 502.898 230.7V227.7C500.598 227.1 497.498 226.4 493.798 226.4C487.998 226.5 484.698 228.9 484.698 232.9ZM484.198 217L482.798 213.2C486.298 211.7 489.598 210.6 494.098 210.6C502.598 210.6 507.298 215 507.298 223V242H502.798V237.3C500.598 240.1 496.998 242.7 491.498 242.7C485.698 242.7 479.998 239.5 479.998 233C479.998 226.3 485.398 222.9 493.298 222.9C497.298 222.9 500.098 223.4 502.898 224.2V223.2C502.898 217.6 499.398 214.7 493.698 214.7C489.998 214.8 487.098 215.7 484.198 217ZM514.598 242.1V198.2H519.198V242.1H514.598ZM279.998 206.8C279.998 206.8 275.998 208.6 272.598 208.5C269.298 208.4 267.598 210.2 267.598 210.2C266.198 211.2 264.998 213 264.098 214.9V214C264.098 211.4 261.998 209.4 259.498 209.4C256.998 209.4 254.898 211.5 254.898 214V238C254.898 240.6 256.998 242.6 259.498 242.6C261.998 242.6 264.098 240.5 264.098 238V226.7C264.698 221.8 267.198 219.1 271.198 218.2C271.498 218.2 271.598 218.1 271.798 217.9C280.998 215.3 279.998 206.8 279.998 206.8Z" fill="white"/>
</svg>
