<?xml version="1.0" encoding="utf-8"?>
<!-- Generator: Adobe Illustrator 26.0.3, SVG Export Plug-In . SVG Version: 6.00 Build 0)  -->
<svg version="1.0" id="katman_1" xmlns="http://www.w3.org/2000/svg" xmlns:xlink="http://www.w3.org/1999/xlink" x="0px" y="0px"
	 viewBox="0 0 600 450" style="enable-background:new 0 0 600 450;" xml:space="preserve">
<style type="text/css">
	.st0{fill:#68B65A;}
	.st1{fill:#12A750;}
	.st2{fill:#40AD57;}
	.st3{fill:#81BE62;}
	.st4{fill:#010202;}
</style>
<path class="st0" d="M111.1,181.6c-16.5,0-30,13.5-30,30v55.3c0,1.8,2.2,2.7,3.3,1.4l16.3-16.3h20.7c16.5,0,30-13.5,30-30v-40.4
	H111.1z"/>
<path class="st1" d="M100.8,252h-15l9.4,5.6L100.8,252z"/>
<path class="st2" d="M151.5,181.6h-40.4V222L151.5,181.6z"/>
<path class="st1" d="M111.1,181.6c-16.5,0-30,13.5-30,30V252l30-30V181.6z"/>
<path class="st3" d="M151.5,181.6L111.1,222h40.4V181.6z"/>
<path class="st4" d="M188.2,239c-1-0.6-1.8-1.7-1.8-3.1c0-2.1,1.5-3.6,3.6-3.6c0.6,0,1.3,0.1,1.8,0.5c3.1,1.9,6.2,2.8,8.7,2.8
	c2.7,0,3.8-0.9,3.8-2.4v-0.1c0-1.9-3.1-2.7-6.7-3.7c-4.5-1.3-9.6-3.5-9.6-9.6v-0.1c0-6.5,5.3-10.3,11.8-10.3c3.3,0,6.8,0.9,10,2.4
	c1.3,0.6,2.2,1.9,2.2,3.5c0,2.1-1.7,3.6-3.7,3.6c-0.6,0-1-0.1-1.7-0.4c-2.6-1.3-5-2.1-6.9-2.1c-2.2,0-3.3,1-3.3,2.2v0.1
	c0,1.8,3.1,2.7,6.5,3.8c4.5,1.5,9.7,3.7,9.7,9.5v0.1c0,7.2-5.4,10.4-12.3,10.4C196.4,242.7,192.1,241.6,188.2,239z M241.4,226.1
	c0-5.5-3.6-9-7.8-9s-7.8,3.6-7.8,8.9v0.1c0,5.4,3.6,8.9,7.8,8.9C237.8,235.1,241.4,231.5,241.4,226.1z M216.8,214.1
	c0-2.6,2.1-4.6,4.6-4.6s4.6,2.1,4.6,4.6v0.4c2.2-3,5.3-5.3,10-5.3c7.6,0,14.6,5.9,14.6,16.7v0.1c0,10.8-7.1,16.7-14.6,16.7
	c-4.9,0-7.8-2.2-10-4.7v9.6c0,2.6-2.1,4.6-4.6,4.6s-4.6-2.1-4.6-4.6C216.8,247.6,216.8,214.1,216.8,214.1z M302.6,226.2
	c0-4.9-3.5-9-8.5-9c-5.3,0-8.3,4-8.3,8.7v0.1c0,4.7,3.5,8.9,8.5,8.9C299.4,235.1,302.6,230.9,302.6,226.2z M276.7,226.2
	c0-9.4,7.4-16.9,17.4-16.9c10,0,17.3,7.4,17.3,16.7v0.1c0,9.2-7.4,16.8-17.4,16.8C284.1,242.9,276.7,235.4,276.7,226.2z M345.1,238
	c0,2.6-2.1,4.6-4.6,4.6s-4.6-2.1-4.6-4.6v-0.4c-2.1,2.7-4.7,5.1-9.5,5.1c-6.9,0-10.9-4.6-10.9-11.9v-16.7c0-2.6,2.1-4.6,4.6-4.6
	s4.6,2.1,4.6,4.6v13.7c0,4.4,2.1,6.5,5.5,6.5s5.8-2.2,5.8-6.5v-13.7c0-2.6,2.1-4.6,4.6-4.6s4.6,2.1,4.6,4.6V238
	C345.3,238,345.1,238,345.1,238z M349.8,233v-27.1c0-2.6,2.1-4.6,4.6-4.6s4.6,2.1,4.6,4.6v4h4c2.2,0,3.8,1.8,3.8,3.8
	c0,2.2-1.8,3.8-3.8,3.8h-4v13.7c0,2.1,0.9,3.1,3,3.1h1c2.1,0,3.8,1.7,3.8,3.8c0,1.7-1,3-2.3,3.5c-1.7,0.6-3.2,0.9-5.3,0.9
	C353.6,242.7,349.8,240.4,349.8,233z M385.8,242.7c-4.5,0-9.4-1.8-12.8-4.6l2.3-3.3c3.3,2.6,7.1,4,10.8,4s6.4-1.9,6.4-4.9v-0.1
	c0-3.1-3.7-4.4-7.7-5.5c-4.9-1.4-10.3-3.1-10.3-8.7v-0.1c0-5.4,4.5-8.9,10.5-8.9c3.8,0,8,1.3,11.2,3.5l-2.1,3.5
	c-2.8-1.9-6.2-3-9.2-3c-3.7,0-6,1.9-6,4.5v0.1c0,3,3.8,4.1,8,5.4c4.7,1.4,10,3.3,10,8.9v0.1C396.8,239.3,392,242.7,385.8,242.7z
	 M416.7,214.5c-6.8,0-11.4,5.4-11.4,12.1c0,6.8,4.9,12.2,11.4,12.2c6.7,0,11.4-5.4,11.4-12.1C428.1,219.9,423.3,214.5,416.7,214.5z
	 M416.7,242.9c-9.4,0-16.2-7.3-16.2-16.2s6.8-16.3,16.3-16.3c9.4,0,16.2,7.3,16.2,16.2C433,235.4,426.1,242.9,416.7,242.9z
	 M452.2,242.9c-9.1,0-15.9-7.4-15.9-16.2c0-8.9,6.8-16.3,15.9-16.3c5.9,0,9.6,2.4,12.4,5.5l-3.1,3.2c-2.4-2.6-5.3-4.7-9.5-4.7
	c-6.3,0-11.2,5.4-11.2,12.1c0,6.8,4.9,12.2,11.4,12.2c4,0,7.1-1.9,9.5-4.6l3,2.8C461.9,240.3,458.1,242.9,452.2,242.9z M470.1,242.1
	v-31h4.6v31H470.1z M469.7,204.3v-5.1h5.3v5.1H469.7z M484.7,232.9c0,4,3.6,6.3,7.8,6.3c5.8,0,10.4-3.5,10.4-8.5v-3
	c-2.3-0.6-5.4-1.3-9.1-1.3C488,226.5,484.7,228.9,484.7,232.9z M484.2,217l-1.4-3.8c3.5-1.5,6.8-2.6,11.3-2.6
	c8.5,0,13.2,4.4,13.2,12.4v19h-4.5v-4.7c-2.2,2.8-5.8,5.4-11.3,5.4c-5.8,0-11.5-3.2-11.5-9.7c0-6.7,5.4-10.1,13.3-10.1
	c4,0,6.8,0.5,9.6,1.3v-1c0-5.6-3.5-8.5-9.2-8.5C490,214.8,487.1,215.7,484.2,217L484.2,217z M514.6,242.1v-43.9h4.6v43.9H514.6z
	 M280,206.8c0,0-4,1.8-7.4,1.7c-3.3-0.1-5,1.7-5,1.7c-1.4,1-2.6,2.8-3.5,4.7V214c0-2.6-2.1-4.6-4.6-4.6s-4.6,2.1-4.6,4.6v24
	c0,2.6,2.1,4.6,4.6,4.6s4.6-2.1,4.6-4.6v-11.3c0.6-4.9,3.1-7.6,7.1-8.5c0.3,0,0.4-0.1,0.6-0.3C281,215.3,280,206.8,280,206.8z"/>
</svg>
