<svg width="389" height="228" viewBox="0 0 389 228" fill="none" xmlns="http://www.w3.org/2000/svg">
<path fill-rule="evenodd" clip-rule="evenodd" d="M94 82.2998H46.4C42.3 82.2998 39 85.5998 39 89.6998V137.2C39 139.2 39.8 141.1 41.2 142.5C42.6 143.9 44.5 144.7 46.5 144.7H94C96 144.7 97.9 143.9 99.3 142.5C100.7 141.1 101.5 139.2 101.5 137.2V89.6998C101.4 85.5998 98 82.2998 94 82.2998ZM65.9 127.2C65.9 127.9 65.6 128.5 65.2 129C64.7 129.5 64.1 129.7 63.4 129.7H53C51.6 129.7 50.5 128.6 50.5 127.2V96.2998C50.5 94.8998 51.6 93.7998 53 93.7998H63.4C64.8 93.7998 65.9 94.8998 65.9 96.2998V127.2ZM89.9 113C89.9 113.7 89.6 114.3 89.2 114.8C88.7 115.3 88.1 115.5 87.4 115.5H77C75.6 115.5 74.5 114.4 74.5 113V96.2998C74.5 94.8998 75.6 93.7998 77 93.7998H87.4C88.8 93.7998 89.9 94.8998 89.9 96.2998V113Z" fill="url(#paint0_linear_318_3046)"/>
<path d="M168.298 86.8999V98.9999H153.998V144.8H140.198V98.8999H125.898V86.8999H168.298Z" fill="white"/>
<path d="M185.798 144.7H173.098V99.6998H185.798V108.3C188.198 102.2 192.098 98.5998 198.998 99.0998V112.4C189.998 111.7 185.798 113.9 185.798 121.1V144.7Z" fill="white"/>
<path d="M268.6 145C260.2 145 255 141 255 131.5V82.2998H267.8V129.8C267.8 132.5 269.6 133.5 271.8 133.5C272.4 133.5 273.1 133.5 273.7 133.4V144.5C272.1 144.9 270.3 145.1 268.6 145Z" fill="white"/>
<path d="M295.397 145C286.997 145 281.797 141 281.797 131.5V82.2998H294.597V129.8C294.597 132.5 296.397 133.5 298.697 133.5C299.297 133.5 299.997 133.5 300.597 133.4V144.5C298.797 144.9 297.097 145.1 295.397 145Z" fill="white"/>
<path d="M306.699 122.1C306.699 108.2 314.699 98.6997 328.499 98.6997C342.299 98.6997 350.099 108.2 350.099 122.1C350.099 136 342.199 145.7 328.499 145.7C314.799 145.7 306.699 136 306.699 122.1ZM319.199 122.1C319.199 128.9 321.999 134.2 328.499 134.2C334.999 134.2 337.599 128.8 337.599 122.1C337.599 115.4 334.799 110.1 328.499 110.1C322.199 110.1 319.199 115.4 319.199 122.1Z" fill="white"/>
<path d="M216.199 126.2C219.799 126.6 223.399 126.8 226.899 126.8C236.699 126.8 244.899 124.2 244.899 114.7C244.899 105.5 236.399 98.5996 226.199 98.5996C212.499 98.5996 203.699 108.5 203.699 122.4C203.699 136.8 211.299 145.4 228.399 145.4C233.499 145.4 238.499 144.5 243.299 142.7V131.9C238.899 133.3 233.899 134.7 228.899 134.7C222.099 134.9 217.399 132.7 216.199 126.2ZM225.999 108.5C229.599 108.5 232.499 110.9 232.499 114.3C232.499 118.6 227.899 120 222.699 120C220.499 120 218.199 119.8 215.999 119.5C216.199 117.4 216.799 115.4 217.799 113.5C219.499 110.5 222.599 108.6 225.999 108.5Z" fill="white"/>
<defs>
<linearGradient id="paint0_linear_318_3046" x1="70.153" y1="144.668" x2="70.153" y2="82.2876" gradientUnits="userSpaceOnUse">
<stop stop-color="#0052CC"/>
<stop offset="1" stop-color="#2684FF"/>
</linearGradient>
</defs>
</svg>
