<svg width="31" height="30" viewBox="0 0 31 30" fill="none" xmlns="http://www.w3.org/2000/svg">
<path fill-rule="evenodd" clip-rule="evenodd" d="M21.2112 10.4422C18.3261 7.81263 16.2546 4.30822 15.401 0.333252C13.8231 7.68168 8.0828 13.4219 0.734375 14.9999C8.0828 16.5779 13.8231 22.3182 15.401 29.6666C16.979 22.3182 22.7193 16.5779 30.0677 14.9999C27.3761 14.4219 24.9002 13.2855 22.7657 11.7162L16.4415 18.0404C16.051 18.4309 15.4178 18.4309 15.0273 18.0404L11.6939 14.707C11.3034 14.3165 11.3034 13.6833 11.6939 13.2928C12.0845 12.9023 12.7176 12.9023 13.1081 13.2928L15.7344 15.919L21.2112 10.4422Z" fill="#387FF5"/>
</svg>
