<svg width="166" height="169" viewBox="0 0 166 169" fill="none" xmlns="http://www.w3.org/2000/svg">
<rect x="29.8853" y="0.208984" width="70.9474" height="9.09582" rx="4.54791" fill="#E0E2DE"/>
<rect x="29.8853" y="15.6329" width="121.884" height="7.27666" rx="3.63833" fill="#E0E2DE"/>
<path d="M7.66096 4.55249C8.38995 7.94731 11.0418 10.5992 14.4367 11.3282C11.0418 12.0572 8.38995 14.7091 7.66096 18.1039C6.93196 14.7091 4.28008 12.0572 0.885254 11.3282C4.28008 10.5992 6.93196 7.94731 7.66096 4.55249Z" fill="#6099F7"/>
<path d="M15.8885 14.7534C16.253 16.4508 17.5789 17.7768 19.2763 18.1413C17.5789 18.5058 16.253 19.8317 15.8885 21.5291C15.524 19.8317 14.198 18.5058 12.5006 18.1413C14.198 17.7768 15.524 16.4508 15.8885 14.7534Z" fill="#6099F7"/>
<path d="M14.4365 1.64868C14.6448 2.61863 15.4025 3.37631 16.3724 3.5846C15.4025 3.79288 14.6448 4.55056 14.4365 5.52051C14.2282 4.55056 13.4706 3.79288 12.5006 3.5846C13.4706 3.37631 14.2282 2.61863 14.4365 1.64868Z" fill="#6099F7"/>
<rect x="18.8811" y="164.149" width="3.52941" height="3.58621" rx="1.76471" fill="#387FF5"/>
<rect x="28.3701" y="162.764" width="24.7059" height="5.88235" rx="2.94118" fill="#E0E2DE"/>
<rect x="64.9966" y="164.149" width="3.52941" height="3.58621" rx="1.76471" fill="#099EDD"/>
<rect x="74.2524" y="162.764" width="24.7059" height="5.88235" rx="2.94118" fill="#E0E2DE"/>
<rect x="111.112" y="164.149" width="3.52941" height="3.58621" rx="1.76471" fill="#DD65A6"/>
<rect x="120.723" y="162.764" width="24.7059" height="5.88235" rx="2.94118" fill="#E0E2DE"/>
<rect x="10.8823" y="138.99" width="8" height="4" rx="2" fill="#E0E2DE"/>
<rect x="38.1787" y="138.99" width="8" height="4" rx="2" fill="#E0E2DE"/>
<rect x="65.4731" y="138.99" width="8" height="4" rx="2" fill="#E0E2DE"/>
<rect x="92.7695" y="138.99" width="8" height="4" rx="2" fill="#E0E2DE"/>
<rect x="120.065" y="138.99" width="8" height="4" rx="2" fill="#E0E2DE"/>
<rect x="147.361" y="138.99" width="8" height="4" rx="2" fill="#E0E2DE"/>
<rect x="1.82643" y="47.3407" width="162.66" height="84.1016" rx="11.7759" stroke="#E0E2DE" stroke-width="0.448277"/>
<path d="M1.51489 75.1368H164.373" stroke="#E0E2DE" stroke-width="0.448277"/>
<path d="M1.51489 61.439H164.373" stroke="#E0E2DE" stroke-width="0.448277"/>
<path d="M1.51489 88.8356H164.373" stroke="#E0E2DE" stroke-width="0.448277"/>
<path d="M1.51489 102.534H164.373" stroke="#E0E2DE" stroke-width="0.448277"/>
<path d="M1.51489 116.232H164.373" stroke="#E0E2DE" stroke-width="0.448277"/>
<path d="M28.9111 47.2327L28.9111 131.959" stroke="#E0E2DE" stroke-width="0.448277"/>
<path d="M55.8013 47.2327L55.8013 131.959" stroke="#E0E2DE" stroke-width="0.448277"/>
<path d="M82.6902 47.2327L82.6902 131.959" stroke="#E0E2DE" stroke-width="0.448277"/>
<path d="M109.58 47.2327L109.58 131.959" stroke="#E0E2DE" stroke-width="0.448277"/>
<path d="M136.469 47.2327L136.469 131.959" stroke="#E0E2DE" stroke-width="0.448277"/>
<path d="M1.76904 72.0062V88.8355H109.834L97.4784 70.3025C88.9102 57.4502 72.0594 53.0776 58.323 60.142L55.8014 61.4388L43.3341 68.5672C34.7571 73.4712 23.9868 72.2224 16.7594 65.486C11.0604 60.1742 1.76904 64.2155 1.76904 72.0062Z" fill="#387FF5" fill-opacity="0.46" stroke="#387FF5" stroke-width="0.843534"/>
<path d="M128.393 110.698L109.834 88.8357H163.867V114.095C163.867 118.892 159.674 122.611 154.911 122.038L147.916 121.196C140.318 120.282 133.345 116.533 128.393 110.698Z" fill="#387FF5" fill-opacity="0.46" stroke="#387FF5" stroke-width="0.843534"/>
<circle cx="1.93524" cy="102.706" r="1.66437" fill="#DD65A6"/>
<circle cx="29.2304" cy="88.9791" r="1.66437" fill="#DD65A6"/>
<circle cx="55.8611" cy="102.706" r="1.66437" fill="#DD65A6"/>
<circle cx="82.8661" cy="106.163" r="1.66437" fill="#DD65A6"/>
<circle cx="109.786" cy="76.5682" r="1.66437" fill="#DD65A6"/>
<circle cx="136.416" cy="66.0666" r="1.66437" fill="#DD65A6"/>
<circle cx="163.712" cy="75.4109" r="1.66437" fill="#DD65A6"/>
<path d="M1.76904 103.042L6.04298 98.728C18.7433 85.9101 39.4894 86.007 52.0694 98.9431L52.5271 99.4137C54.8609 101.814 57.5986 103.784 60.6151 105.236C73.4248 111.399 88.817 107.197 96.7192 95.381L105.181 82.7275C108.4 77.9147 112.782 73.993 117.921 71.3264L121.073 69.6913C131.039 64.5201 142.903 64.5432 152.849 69.753L163.882 75.1165" stroke="#DD65A6" stroke-width="0.896553"/>
<path d="M1.76904 88.8358L13.5696 94.7912C23.2279 99.6655 34.6174 99.7076 44.3114 94.9051L56.5624 88.8358L82.4371 73.6154L93.8915 68.3287C103.331 63.972 114.235 64.1223 123.551 68.7375C131.701 72.7749 141.259 72.8174 149.444 68.8525L164.382 61.6166" stroke="#099EDD" stroke-width="0.896553" stroke-dasharray="1.79 1.79"/>
<circle cx="1.93524" cy="88.7259" r="1.66437" fill="#099EDD"/>
<circle cx="29.2304" cy="98.5259" r="1.66437" fill="#099EDD"/>
<circle cx="55.8611" cy="88.7259" r="1.66437" fill="#099EDD"/>
<circle cx="83.1563" cy="73.4139" r="1.66437" fill="#099EDD"/>
<circle cx="109.786" cy="65.1119" r="1.66437" fill="#099EDD"/>
<circle cx="136.416" cy="71.7809" r="1.66437" fill="#099EDD"/>
<circle cx="163.712" cy="61.7809" r="1.66437" fill="#099EDD"/>
</svg>
