<svg width="292" height="34" viewBox="0 0 292 34" fill="none" xmlns="http://www.w3.org/2000/svg">
<rect x="44.6392" y="0.83252" width="150.584" height="12.8704" rx="6.43522" fill="#E0E2DE"/>
<rect x="45" y="24" width="242" height="10" rx="5" fill="#E0E2DE"/>
<path d="M13.516 6.68262C14.6616 12.0173 18.8287 16.1844 24.1634 17.33C18.8287 18.4755 14.6616 22.6427 13.516 27.9773C12.3705 22.6427 8.20329 18.4755 2.86865 17.33C8.20329 16.1844 12.3705 12.0173 13.516 6.68262Z" fill="#6099F7"/>
<path d="M26.4448 22.7124C27.0175 25.3797 29.1011 27.4633 31.7685 28.0361C29.1011 28.6089 27.0175 30.6924 26.4448 33.3598C25.872 30.6924 23.7884 28.6089 21.1211 28.0361C23.7884 27.4633 25.872 25.3797 26.4448 22.7124Z" fill="#6099F7"/>
<path d="M24.1632 2.11963C24.4905 3.64381 25.6811 4.83443 27.2053 5.16173C25.6811 5.48903 24.4905 6.67965 24.1632 8.20383C23.8359 6.67965 22.6453 5.48903 21.1211 5.16173C22.6453 4.83443 23.8359 3.64381 24.1632 2.11963Z" fill="#6099F7"/>
</svg>
