<svg width="292" height="37" viewBox="0 0 292 37" fill="none" xmlns="http://www.w3.org/2000/svg">
<rect opacity="0.4" x="55" y="2" width="144" height="13" rx="6.5" fill="#88B2F9"/>
<g opacity="0.4">
<rect x="55" y="25" width="232" height="10" rx="5" fill="#88B2F9"/>
</g>
<path d="M0 18.5C0 8.28273 8.28273 0 18.5 0C28.7173 0 37 8.28273 37 18.5C37 28.7173 28.7173 37 18.5 37C8.28273 37 0 28.7173 0 18.5Z" fill="white" fill-opacity="0.1"/>
<path d="M18.5 8C19.6297 13.2608 23.7392 17.3703 29 18.5C23.7392 19.6297 19.6297 23.7392 18.5 29C17.3703 23.7392 13.2608 19.6297 8 18.5C13.2608 17.3703 17.3703 13.2608 18.5 8Z" fill="white"/>
<path d="M24.9037 5.69226C25.1333 6.76176 25.9688 7.59721 27.0383 7.82688C25.9688 8.05654 25.1333 8.89199 24.9037 9.96149C24.674 8.89199 23.8385 8.05654 22.769 7.82688C23.8385 7.59721 24.674 6.76176 24.9037 5.69226Z" fill="white"/>
<path d="M11.3842 25.6154C11.6905 27.0414 12.8044 28.1553 14.2304 28.4615C12.8044 28.7677 11.6905 29.8817 11.3842 31.3077C11.078 29.8817 9.96409 28.7677 8.53809 28.4615C9.96409 28.1553 11.078 27.0414 11.3842 25.6154Z" fill="white"/>
</svg>
