<svg width="212" height="161" viewBox="0 0 212 161" fill="none" xmlns="http://www.w3.org/2000/svg">
<rect x="30.353" y="1.08521" width="70.9474" height="9.09582" rx="4.54791" fill="#E0E2DE"/>
<rect x="30.353" y="16.5092" width="121.884" height="7.27666" rx="3.63833" fill="#E0E2DE"/>
<path d="M8.12873 5.42871C8.85772 8.82353 11.5096 11.4754 14.9044 12.2044C11.5096 12.9334 8.85772 15.5853 8.12873 18.9801C7.39973 15.5853 4.74785 12.9334 1.35303 12.2044C4.74785 11.4754 7.39973 8.82353 8.12873 5.42871Z" fill="#6099F7"/>
<path d="M16.3562 15.6296C16.7207 17.3271 18.0467 18.653 19.7441 19.0175C18.0467 19.382 16.7207 20.7079 16.3562 22.4053C15.9917 20.7079 14.6658 19.382 12.9684 19.0175C14.6658 18.653 15.9917 17.3271 16.3562 15.6296Z" fill="#6099F7"/>
<path d="M14.9043 2.5249C15.1126 3.49485 15.8703 4.25253 16.8402 4.46082C15.8703 4.6691 15.1126 5.42678 14.9043 6.39673C14.696 5.42678 13.9383 4.6691 12.9684 4.46082C13.9383 4.25253 14.696 3.49485 14.9043 2.5249Z" fill="#6099F7"/>
<rect x="20" y="156.073" width="10.7102" height="4.85082" rx="2.42541" fill="#E0E2DE"/>
<rect x="46.6278" y="156.073" width="10.7102" height="4.85082" rx="2.42541" fill="#E0E2DE"/>
<rect x="72.9585" y="156.073" width="11.3052" height="4.85082" rx="2.42541" fill="#E0E2DE"/>
<rect x="100.183" y="156.073" width="10.1152" height="4.85082" rx="2.42541" fill="#E0E2DE"/>
<rect x="125.621" y="156.073" width="12.4952" height="4.85082" rx="2.42541" fill="#E0E2DE"/>
<rect x="153.142" y="156.074" width="10.7102" height="4.85082" rx="2.42541" fill="#E0E2DE"/>
<rect x="179.175" y="156.073" width="11.9002" height="4.85082" rx="2.42541" fill="#E0E2DE"/>
<circle cx="187.874" cy="3.0527" r="1.76058" fill="#387FF5"/>
<rect x="192.529" y="0.626831" width="15.7661" height="4.8511" rx="2.42555" fill="#E0E2DE"/>
<circle cx="187.874" cy="11.4253" r="1.76058" fill="#E157A9"/>
<rect x="192.529" y="8.88245" width="13.9469" height="4.8511" rx="2.42555" fill="#E0E2DE"/>
<line x1="1" y1="49.8556" x2="209.591" y2="49.8556" stroke="#E0E2DE" stroke-width="0.434783"/>
<line x1="1" y1="66.7338" x2="209.591" y2="66.7338" stroke="#E0E2DE" stroke-width="0.434783"/>
<line x1="1" y1="84.0449" x2="209.591" y2="84.0449" stroke="#E0E2DE" stroke-width="0.434783"/>
<line x1="1" y1="101.357" x2="209.591" y2="101.357" stroke="#E0E2DE" stroke-width="0.434783"/>
<line x1="1" y1="118.667" x2="209.591" y2="118.667" stroke="#E0E2DE" stroke-width="0.434783"/>
<line x1="1" y1="135.979" x2="209.591" y2="135.979" stroke="#E0E2DE" stroke-width="0.434783"/>
<path d="M210.461 59.7251L192.264 82.4399C185.651 90.6949 175.087 94.7217 164.657 92.9627C156.419 91.5733 147.98 93.7842 141.482 99.0345L140.847 99.5477C129.279 108.894 112.701 108.699 101.356 99.0831L99.0358 97.1164L83.2577 84.9659C70.6075 75.2241 52.718 76.2715 41.291 87.4229C34.953 93.608 26.3394 96.8971 17.4919 96.5105L1.50745 95.8121V136.247H210.461V59.7251Z" fill="#B63F86" fill-opacity="0.27"/>
<path d="M210.461 59.7251L192.264 82.4399C185.651 90.6949 175.087 94.7217 164.657 92.9627V92.9627C156.419 91.5733 147.98 93.7842 141.482 99.0345L140.847 99.5477C129.279 108.894 112.701 108.699 101.356 99.0831L99.0358 97.1164L83.2577 84.9659C70.6075 75.2241 52.718 76.2715 41.291 87.4229V87.4229C34.953 93.608 26.3394 96.8971 17.4919 96.5105L1.50745 95.8121" stroke="#E157A9" stroke-width="1.73913" stroke-linecap="round"/>
<path d="M210.461 97.2283L192.029 85.7913C185.215 81.5633 177.25 79.5706 169.248 80.0922C158.105 80.8184 147.828 86.3515 141.086 95.2537L131.2 108.309C125.262 116.151 114.524 118.551 105.812 113.983C101.447 111.694 96.3938 111.086 91.6108 112.276L74.0555 116.641C65.6243 118.737 56.8031 118.695 48.3924 116.518L46.1617 115.94C36.4958 113.438 26.315 113.762 16.8278 116.874L1.50745 121.899V136.247H210.461V97.2283Z" fill="#2E71E5" fill-opacity="0.42"/>
<path d="M210.46 97.2283L192.029 85.7913C185.215 81.5633 177.25 79.5706 169.248 80.0922V80.0922C158.105 80.8184 147.827 86.3514 141.086 95.2537L131.2 108.309C125.261 116.151 114.524 118.551 105.812 113.983V113.983C101.447 111.694 96.3935 111.086 91.6105 112.276L74.0552 116.641C65.624 118.737 56.8027 118.695 48.392 116.518L46.0256 115.905C36.4448 113.425 26.3563 113.721 16.9375 116.759L1 121.899" stroke="#2E71E5" stroke-width="1.73913" stroke-linecap="round" stroke-linejoin="round"/>
</svg>
