<svg width="151" height="159" viewBox="0 0 151 159" fill="none" xmlns="http://www.w3.org/2000/svg">
<rect x="29" width="70.9474" height="9.09582" rx="4.54791" fill="#E0E2DE"/>
<rect x="29" y="15.424" width="121.884" height="7.27666" rx="3.63833" fill="#E0E2DE"/>
<path d="M6.7757 4.34357C7.5047 7.73839 10.1566 10.3903 13.5514 11.1193C10.1566 11.8483 7.5047 14.5001 6.7757 17.895C6.04671 14.5001 3.39482 11.8483 0 11.1193C3.39482 10.3903 6.04671 7.73839 6.7757 4.34357Z" fill="#6099F7"/>
<path d="M15.0032 14.5444C15.3677 16.2418 16.6936 17.5678 18.3911 17.9323C16.6936 18.2968 15.3677 19.6227 15.0032 21.3201C14.6387 19.6227 13.3128 18.2968 11.6154 17.9323C13.3128 17.5678 14.6387 16.2418 15.0032 14.5444Z" fill="#6099F7"/>
<path d="M13.5513 1.4397C13.7596 2.40965 14.5172 3.16733 15.4872 3.37561C14.5172 3.5839 13.7596 4.34158 13.5513 5.31153C13.343 4.34158 12.5853 3.5839 11.6154 3.37561C12.5853 3.16733 13.343 2.40965 13.5513 1.4397Z" fill="#6099F7"/>
<rect x="19" y="153" width="5.09524" height="5.09524" rx="2.54762" fill="#6099F7"/>
<rect x="27.0952" y="153" width="13" height="5" rx="2.5" fill="#C1C5BF"/>
<rect x="50.0952" y="153" width="5.09524" height="5.09524" rx="2.54762" fill="#B6D1FB"/>
<rect x="58.1904" y="153" width="13" height="5" rx="2.5" fill="#C1C5BF"/>
<rect x="81.1904" y="153" width="5.09524" height="5.09524" rx="2.54762" fill="#999DE7"/>
<rect x="89.2856" y="153" width="13" height="5" rx="2.5" fill="#C1C5BF"/>
<rect x="112.286" y="153" width="5.09524" height="5.09524" rx="2.54762" fill="#FFCE78"/>
<rect x="120.381" y="153" width="13" height="5" rx="2.5" fill="#C1C5BF"/>
<path d="M76 50C76 45.5817 79.6072 41.9308 83.9616 42.6792C90.1727 43.7468 96.1336 46.0577 101.475 49.5031C109.069 54.4012 115.09 61.3846 118.817 69.6169C122.544 77.8492 123.818 86.9813 122.488 95.9194C121.552 102.207 119.355 108.211 116.059 113.582C113.748 117.348 108.625 117.649 105.305 114.734L95.4428 106.074C92.1229 103.158 92.0215 98.0751 93.213 93.8206C93.4137 93.1039 93.5702 92.3729 93.6805 91.6316C94.1865 88.2322 93.7018 84.7591 92.2844 81.6281C90.867 78.4972 88.5771 75.8412 85.6889 73.9783C85.0591 73.5721 84.4066 73.2073 83.7357 72.8852C79.7526 70.9732 76 67.543 76 63.1247V50Z" fill="#6099F7" fill-opacity="0.47" stroke="white" stroke-width="3"/>
<path d="M104.937 115.147C108.215 118.109 108.506 123.233 105.031 125.962C102.294 128.112 99.3191 129.957 96.1596 131.457C90.5841 134.104 84.5418 135.628 78.3775 135.94C72.2133 136.252 66.0479 135.347 60.2335 133.277C56.9386 132.103 53.793 130.569 50.8522 128.706C47.1196 126.342 46.891 121.215 49.8531 117.937L59.3097 107.471C61.9088 104.595 66.3514 104.539 70.0036 105.84C72.215 106.627 74.5598 106.971 76.9042 106.852C79.2486 106.734 81.5467 106.154 83.6672 105.147C87.1693 103.485 91.5948 103.091 94.4713 105.69L104.937 115.147Z" fill="#5A78E5" stroke="white" stroke-width="3"/>
<path d="M49.5154 117.628C46.515 120.871 41.3878 121.102 38.6997 117.595C34.9983 112.767 32.2537 107.245 30.645 101.326C29.0362 95.4059 28.6086 89.2544 29.3571 83.2169C29.9008 78.8322 34.4393 76.4359 38.6686 77.7144L51.2318 81.5124C55.461 82.7909 57.6586 87.3755 58.3362 91.7415C58.4377 92.3954 58.5757 93.0452 58.7503 93.6877C58.925 94.3303 59.1348 94.9605 59.3782 95.5759C61.0036 99.6843 61.4287 104.751 58.4283 107.994L49.5154 117.628Z" fill="#387FF5" stroke="white" stroke-width="3"/>
<path d="M38.8409 77.1592C34.6312 75.8178 32.2478 71.2724 34.2829 67.3507C37.6094 60.941 42.386 55.3505 48.275 51.0484C54.1641 46.7462 60.9422 43.8955 68.0599 42.6755C72.4146 41.9291 76.0202 45.5817 76.0181 50L76.012 63.1247C76.01 67.543 72.2558 70.9715 68.2718 72.8816C67.2884 73.3531 66.3453 73.916 65.4555 74.566C64.5657 75.216 63.7427 75.9434 62.9945 76.7369C59.9635 79.9515 55.5558 82.4854 51.3461 81.144L38.8409 77.1592Z" fill="#F5AE45" stroke="white" stroke-width="3"/>
</svg>
