<svg width="152" height="164" viewBox="0 0 152 164" fill="none" xmlns="http://www.w3.org/2000/svg">
<g clip-path="url(#clip0_1269_2341)">
<rect x="30.1768" y="-0.717468" width="70.9474" height="9.09582" rx="4.54791" fill="#E0E2DE"/>
<rect x="30.1768" y="14.7065" width="121.884" height="7.27666" rx="3.63833" fill="#E0E2DE"/>
<path d="M7.95246 3.6261C8.68146 7.02092 11.3333 9.67281 14.7282 10.4018C11.3333 11.1308 8.68146 13.7827 7.95246 17.1775C7.22346 13.7827 4.57158 11.1308 1.17676 10.4018C4.57158 9.67281 7.22346 7.02092 7.95246 3.6261Z" fill="#6099F7"/>
<path d="M16.1798 13.827C16.5443 15.5244 17.8703 16.8503 19.5677 17.2148C17.8703 17.5793 16.5443 18.9053 16.1798 20.6027C15.8153 18.9053 14.4894 17.5793 12.792 17.2148C14.4894 16.8503 15.8153 15.5244 16.1798 13.827Z" fill="#6099F7"/>
<path d="M14.7279 0.722229C14.9362 1.69218 15.6939 2.44986 16.6638 2.65814C15.6939 2.86643 14.9362 3.62411 14.7279 4.59406C14.5196 3.62411 13.7619 2.86643 12.792 2.65814C13.7619 2.44986 14.5196 1.69218 14.7279 0.722229Z" fill="#6099F7"/>
<rect x="7.48389" y="134.581" width="4.64704" height="4.71269" rx="2.32352" fill="#E0E2DE"/>
<rect x="36.8345" y="134.581" width="4.64704" height="4.71269" rx="2.32352" fill="#E0E2DE"/>
<rect x="62.0254" y="134.581" width="4.64704" height="4.71269" rx="2.32352" fill="#E0E2DE"/>
<rect x="85.708" y="134.581" width="4.64704" height="4.71269" rx="2.32352" fill="#E0E2DE"/>
<rect x="111.187" y="134.581" width="4.64704" height="4.71269" rx="2.32352" fill="#E0E2DE"/>
<rect x="136.624" y="134.581" width="4.64704" height="4.71269" rx="2.32352" fill="#E0E2DE"/>
<path fill-rule="evenodd" clip-rule="evenodd" d="M151.284 59.1415C151.284 54.7232 147.703 51.1415 143.284 51.1415H8.48028C4.062 51.1415 0.480281 54.7232 0.480281 59.1415V122.388C0.480281 126.806 4.062 130.388 8.48028 130.388H143.284C147.703 130.388 151.284 126.806 151.284 122.388V59.1415ZM8 50.6612C3.58172 50.6612 0 54.2429 0 58.6612V122.868C0 127.286 3.58173 130.868 8 130.868H143.765C148.183 130.868 151.765 127.286 151.765 122.868V58.6612C151.765 54.2429 148.183 50.6612 143.765 50.6612H8Z" fill="#E0E2DE"/>
<path fill-rule="evenodd" clip-rule="evenodd" d="M151.765 65.7899H0V65.3096H151.765V65.7899Z" fill="#E0E2DE"/>
<path fill-rule="evenodd" clip-rule="evenodd" d="M151.765 82.6001H0V82.1198H151.765V82.6001Z" fill="#E0E2DE"/>
<path fill-rule="evenodd" clip-rule="evenodd" d="M151.765 99.4096H0V98.9293H151.765V99.4096Z" fill="#E0E2DE"/>
<path fill-rule="evenodd" clip-rule="evenodd" d="M151.765 116.22H0V115.739H151.765V116.22Z" fill="#E0E2DE"/>
<path fill-rule="evenodd" clip-rule="evenodd" d="M25.0934 130.868L25.0934 50.6612L25.5737 50.6612L25.5737 130.868L25.0934 130.868Z" fill="#E0E2DE"/>
<path fill-rule="evenodd" clip-rule="evenodd" d="M50.1872 130.868L50.1872 50.6612L50.6675 50.6612L50.6675 130.868L50.1872 130.868Z" fill="#E0E2DE"/>
<path fill-rule="evenodd" clip-rule="evenodd" d="M75.2814 130.868L75.2814 50.6612L75.7617 50.6612L75.7617 130.868L75.2814 130.868Z" fill="#E0E2DE"/>
<path fill-rule="evenodd" clip-rule="evenodd" d="M100.616 130.868L100.616 50.6612L101.096 50.6612L101.096 130.868L100.616 130.868Z" fill="#E0E2DE"/>
<path fill-rule="evenodd" clip-rule="evenodd" d="M125.709 130.868L125.709 50.6612L126.189 50.6612L126.189 130.868L125.709 130.868Z" fill="#E0E2DE"/>
<path d="M38.8228 61.2499C38.8228 58.6509 40.9296 56.544 43.5286 56.544C46.1276 56.544 48.2345 58.6509 48.2345 61.2499V87.7205C48.2345 90.3195 46.1276 92.4264 43.5286 92.4264C40.9296 92.4264 38.8228 90.3195 38.8228 87.7205V61.2499Z" fill="#387FF5"/>
<path d="M12.3525 61.544C12.3525 58.7826 14.5911 56.544 17.3525 56.544C20.114 56.544 22.3525 58.7826 22.3525 61.544V87.4264C22.3525 90.1878 20.114 92.4264 17.3525 92.4264C14.5911 92.4264 12.3525 90.1878 12.3525 87.4264V61.544Z" fill="#387FF5"/>
<path d="M2.94092 94.347C2.94092 93.286 3.80103 92.4259 4.86204 92.4259H10.4316C11.4926 92.4259 12.3527 93.286 12.3527 94.347V102.269C12.3527 103.33 11.4926 104.191 10.4316 104.191H4.86204C3.80103 104.191 2.94092 103.33 2.94092 102.269V94.347Z" fill="#B6D1FB"/>
<path d="M27.647 80.2292C27.647 79.1682 28.5071 78.308 29.5681 78.308H35.7258C36.7869 78.308 37.647 79.1682 37.647 80.2292V90.5046C37.647 91.5656 36.7869 92.4257 35.7258 92.4257H29.5681C28.5071 92.4257 27.647 91.5656 27.647 90.5046V80.2292Z" fill="#B6D1FB"/>
<path d="M52.353 94.347C52.353 93.286 53.2131 92.4259 54.2742 92.4259H60.4319C61.4929 92.4259 62.353 93.286 62.353 94.347V125.211C62.353 126.272 61.4929 127.132 60.4319 127.132H54.2742C53.2131 127.132 52.353 126.272 52.353 125.211V94.347Z" fill="#B6D1FB"/>
<path d="M77.647 94.347C77.647 93.286 78.5071 92.4259 79.5681 92.4259H85.7258C86.7869 92.4259 87.647 93.286 87.647 94.347V100.505C87.647 101.566 86.7869 102.426 85.7258 102.426H79.5681C78.5071 102.426 77.647 101.566 77.647 100.505V94.347Z" fill="#B6D1FB"/>
<path d="M63.5293 94.347C63.5293 93.286 64.3894 92.4259 65.4504 92.4259H71.6082C72.6692 92.4259 73.5293 93.286 73.5293 94.347V100.505C73.5293 101.566 72.6692 102.426 71.6082 102.426H65.4504C64.3894 102.426 63.5293 101.566 63.5293 100.505V94.347Z" fill="#387FF5"/>
<path d="M103.53 77.8767C103.53 76.8157 104.39 75.9556 105.451 75.9556H111.02C112.081 75.9556 112.942 76.8157 112.942 77.8767V89.9168C112.942 90.9778 112.081 91.8379 111.02 91.8379H105.451C104.39 91.8379 103.53 90.9778 103.53 89.9168V77.8767Z" fill="#B6D1FB"/>
<path d="M114.117 77.8767C114.117 76.8157 114.977 75.9556 116.038 75.9556H121.608C122.669 75.9556 123.529 76.8157 123.529 77.8767V89.9168C123.529 90.9778 122.669 91.8379 121.608 91.8379H116.038C114.977 91.8379 114.117 90.9778 114.117 89.9168V77.8767Z" fill="#387FF5"/>
<path d="M128.235 94.347C128.235 93.286 129.095 92.4259 130.156 92.4259H136.314C137.375 92.4259 138.235 93.286 138.235 94.347V111.681C138.235 112.742 137.375 113.602 136.314 113.602H130.156C129.095 113.602 128.235 112.742 128.235 111.681V94.347Z" fill="#B6D1FB"/>
<path d="M88.8237 98.0139C88.8237 95.2524 91.0623 93.0139 93.8237 93.0139C96.5852 93.0139 98.8237 95.2524 98.8237 98.0139V102.132C98.8237 104.893 96.5852 107.132 93.8237 107.132C91.0623 107.132 88.8237 104.893 88.8237 102.132V98.0139Z" fill="#387FF5"/>
<path d="M138.824 65.6611C138.824 62.8996 141.062 60.6611 143.824 60.6611C146.585 60.6611 148.824 62.8996 148.824 65.6611V88.014C148.824 90.7754 146.585 93.014 143.824 93.014C141.062 93.014 138.824 90.7754 138.824 88.014V65.6611Z" fill="#387FF5"/>
<path d="M-0.000488281 161.058C-0.000488281 160.083 0.789597 159.293 1.76422 159.293C2.73884 159.293 3.52892 160.083 3.52892 161.058C3.52892 162.033 2.73884 162.823 1.76422 162.823C0.789597 162.823 -0.000488281 162.033 -0.000488281 161.058Z" fill="#B6D1FB"/>
<rect x="7.64648" y="157.72" width="24.7059" height="5.88235" rx="2.94118" fill="#E0E2DE"/>
<path d="M46.4702 161.058C46.4702 160.083 47.2603 159.293 48.2349 159.293C49.2095 159.293 49.9996 160.083 49.9996 161.058C49.9996 162.033 49.2095 162.823 48.2349 162.823C47.2603 162.823 46.4702 162.033 46.4702 161.058Z" fill="#387FF5"/>
<rect x="54.1172" y="157.72" width="24.7059" height="5.88235" rx="2.94118" fill="#E0E2DE"/>
</g>
<defs>
<clipPath id="clip0_1269_2341">
<rect width="151.765" height="163.927" fill="white" transform="translate(0 0.0730591)"/>
</clipPath>
</defs>
</svg>
