<svg width="20" height="24" viewBox="0 0 20 24" fill="none" xmlns="http://www.w3.org/2000/svg">
<path fill-rule="evenodd" clip-rule="evenodd" d="M15.8333 5.66675C16.1023 6.91932 17.0807 7.89777 18.3333 8.16675C17.0807 8.43572 16.1023 9.41418 15.8333 10.6667C15.5643 9.41418 14.5859 8.43572 13.3333 8.16675C14.5859 7.89777 15.5643 6.91932 15.8333 5.66675ZM7.56 5.83342C8.31958 9.37068 11.0827 12.1338 14.62 12.8934C11.0827 13.653 8.31958 16.4162 7.56 19.9534C6.80042 16.4162 4.03726 13.653 0.5 12.8934C4.03726 12.1338 6.80042 9.37068 7.56 5.83342ZM18.3333 19.0001C16.6632 18.6414 15.3586 17.3368 15 15.6667C14.6413 17.3368 13.3367 18.6414 11.6666 19.0001C13.3367 19.3587 14.6413 20.6633 15 22.3334C15.3586 20.6633 16.6632 19.3587 18.3333 19.0001Z" fill="#2D66C4"/>
</svg>
